<svg version="1.2" xmlns="http://www.w3.org/2000/svg" viewBox="0 0 1641 459" width="1641" height="459">
	<title>Bet_Collective (1)</title>
	<style>
		.s0 { fill: #092264 } 
		.s1 { fill: #ffffff } 
	</style>
	<g id="Layer 1">
		<g id="&lt;Group&gt;">
			<g id="&lt;Group&gt;">
				<g id="&lt;Group&gt;">
					<path id="&lt;Compound Path&gt;" fill-rule="evenodd" class="s0" d="m370.6 261.2l2-1.1q2.4-1.4 4.1-2.8 0.3-2.6 0.4-6.1c0.1-6.5 0.2-18.4 0.2-35.5 0-4.6-0.1-11.8-0.3-21.5-0.1-7-0.3-9.9-0.5-11.1-1-0.2-3.1-0.5-7.6-0.8l-3.7-0.2v-13.3h4q1.5 0 3.2 0l9.2 0.3c3 0 6.7 0.1 11.3 0.1 4.4 0 7.9-0.1 10.4-0.2 6.5-0.2 10.7-0.4 12.7-0.4 8 0 14 0.8 18.5 2.6 4.9 1.8 8.5 4.5 10.8 8.1 2.3 3.6 3.4 7.6 3.4 11.9 0 4.6-1.3 9-3.8 12.9-2.5 3.8-5.6 6.8-9.4 9q2 0.6 3.5 1.4c3.9 2 7.1 5.1 9.4 9.2 2.3 4 3.4 8.5 3.4 13.4 0 5.1-1.2 9.8-3.4 13.9-2.3 4.1-5.1 7.6-8.6 10.5-3.5 2.8-7.5 5-11.9 6.7-4.4 1.6-10 2.5-16.5 2.5l-22.6-0.4c-3.5 0-8.2 0.1-14 0.4l-4.2 0.2zm33.6-5.7c1.1 0 2.5 0.1 4.5 0.1 4.4 0 7.8-1.4 10.5-4.2 2.7-2.9 4.1-7.3 4.1-13 0-4.1-0.8-7.3-2.2-9.7-1.3-2.2-3-3.8-5.2-4.7-2.4-1-6-1.5-10.7-1.5q-0.6 0-1.1 0v26.9zm0.2-71.6q-0.2 3.4-0.2 7.6l-0.1 10.4v5.6c2.7 0 5.2-0.2 7.6-0.7q2.9-0.5 4.6-1.8 1.6-1.3 2.8-4c0.9-1.9 1.3-4.2 1.3-6.8q0-3.8-1.3-6.3c-0.9-1.5-1.9-2.5-3.2-3.1-1-0.5-3.1-1.1-7.3-1.1q-2.2 0-4.2 0.2z"/>
					<path id="&lt;Compound Path&gt;" fill-rule="evenodd" class="s0" d="m374.6 266.7v-3.2q3.6-2.1 5.9-4.1 0.4-3.3 0.6-8.1 0.2-9.8 0.2-35.6 0-7-0.3-21.6-0.2-11.3-0.7-12.9-0.4-1-1.1-1.4-1.4-0.9-10-1.5v-5.5q1.5 0 3.1 0l9.2 0.3q4.6 0.1 11.4 0.1 6.7 0 10.5-0.2 9.7-0.4 12.6-0.4 11.1 0 17.1 2.3 6 2.3 8.8 6.6 2.8 4.3 2.8 9.7 0 5.8-3.2 10.8-3.2 4.9-8.1 7.7-3 1.7-13.2 4.5 12.2 1.5 17 3.9 4.8 2.4 7.7 7.5 2.9 5.2 2.9 11.5 0 6.6-3 12-2.9 5.4-7.6 9.3-4.6 3.8-10.7 6-6 2.3-15.1 2.3l-22.6-0.4q-5.4 0-14.2 0.4zm25.5-55.2l3.9 0.1q4.5 0 8.4-0.8 3.9-0.7 6.3-2.6 2.4-1.8 4.1-5.5 1.6-3.6 1.6-8.4 0-4.8-1.8-8.2-1.9-3.4-4.9-4.9-3.1-1.4-9.1-1.4-4.4 0-7.9 0.5-0.4 4.9-0.5 11.2l-0.1 10.4zm0.2 47.7q2.2 0.4 8.4 0.4 8.3 0 13.4-5.4 5.2-5.5 5.2-15.7 0-7.3-2.7-11.8-2.7-4.5-7.2-6.3-4.4-1.9-12.2-1.9-2.7 0-5.1 0.3v30.6l0.1 8q0 0.4 0.1 1.8z"/>
					<path id="&lt;Path&gt;" class="s0" d="m459.8 260.5l2.4-1.1q2.6-1.2 4.5-2.4 0.2-2.7 0.4-7.1c0.4-7.7 0.5-13.3 0.5-16.7v-30.2c0-1.1 0-5.5-0.2-13-0.1-3.9-0.3-5.9-0.4-6.9-1.1-0.2-3.2-0.4-7.4-0.6l-3.8-0.2v-13.6l19.7 0.4q4.5 0.1 8.8 0.1c6 0 12.9-0.1 20.4-0.2 0 0 13.6-0.4 13.6-0.4 1.7 0 5 0.1 10 0.3 0.8 0 1.7 0.2 3.1 0.5l1.7 0.5 1.9 3.5-1.4 10.8c-0.1 0.9-1 13.3-1 13.3h-12.9v-3.9c-0.1-4.6-0.3-6.8-0.4-7.9-0.6-0.1-1.5-0.2-2.8-0.4-4.3-0.5-8.6-0.7-12.6-0.7q-4.2 0-8.6 0.2c-0.4 4.4-0.6 9.6-0.6 15.5v10q2.7 0.1 5.5 0.1c1 0 4.7 0 11.1-0.2q1.1 0 1.7-0.1c0.3-1.1 0.5-3 0.6-6.4v-3.9h13.5l-0.4 18.7 0.4 18.7h-13.9v-4c0.1-4.6-0.2-6.5-0.4-7.3q0 0-0.1 0c-2.9-0.4-6.7-0.7-11.3-0.7q-3.7 0-6.7 0.2v24.7q0 2.4 0.1 4.4 4 0.2 9 0.2c4.7 0 9.1-0.2 13.1-0.5 2.9-0.2 4.4-0.4 5.2-0.6 0.5-1.6 1.2-4.7 2.1-10.7l0.5-3.4h13.4l-0.5 4.4c-0.9 8.7-1.4 15.9-1.4 21.4v1.7l-3 3-1.4 0.2c-3.1 0.3-7.2 0.5-12.7 0.5l-10.9-0.2c-10.5-0.2-17.9-0.2-21.9-0.2-1.1 0-8.6 0.1-22.4 0.4l-4.1 0.1z"/>
					<path id="&lt;Compound Path&gt;" class="s0" d="m463.8 266.7v-3.6q4.1-1.9 6.6-3.9 0.4-2.9 0.7-9.2 0.5-11.5 0.5-16.8v-30.2q0-1.7-0.2-13.1-0.2-7.5-0.9-9.2-0.3-0.7-1-1-1.8-0.8-9.7-1.2v-5.7l15.6 0.3q4.6 0.1 8.9 0.1 9.2 0 20.4-0.2l13.7-0.4q2.4 0 9.8 0.3 0.6 0 2.2 0.4l0.5 0.9-1.3 9.6q-0.1 1-0.7 9.7h-5.2q-0.2-7.9-0.6-9.7-0.3-1-0.8-1.4-0.9-0.6-5.4-1.1-6.7-0.7-13-0.7-6 0-12.3 0.5-0.9 7.6-0.9 19.2v13.8q4.6 0.3 9.5 0.3 1.6 0 11.2-0.2 3.6-0.1 4.2-0.5 0.7-0.4 1-1.4 0.8-2.6 1-8.5h5.4l-0.3 14.7 0.3 14.7h-5.8q0.1-7.7-1-9.6-0.8-1.3-2.9-1.6-4.6-0.8-11.9-0.8-6.5 0-10.7 0.4v28.5q0 4.8 0.2 8.2 5.4 0.4 12.9 0.4 7.2 0 13.4-0.5 6.1-0.4 7.5-1.3 0.5-0.3 0.9-1.2 1.2-3.2 2.6-12.2h5.5q-1.5 13.2-1.5 21.8l-0.9 0.9q-4.3 0.5-12.2 0.5l-10.8-0.2q-16-0.2-22-0.2-1.6 0-22.5 0.4z"/>
					<path id="&lt;Path&gt;" class="s0" d="m559.8 257.3l3.8-0.1c5.4-0.2 7.3-0.5 7.8-0.7q0.1 0 0.1-0.1c0.2-0.8 0.6-4 0.6-16.4v-40.2c0-7.4 0-11.8-0.1-14.4h-5.7c-4.6 0-8.7 0.2-12.2 0.5q-0.8 4.3-0.9 9.5l-0.1 3.9h-13.4l-0.1-3.9c-0.2-11.1-0.3-14.5-0.3-15.4q-0.2-2.8-0.7-6l-0.2-1.9 3.2-3.5 2 0.2q3 0.3 6.5 0.4c3.8 0.2 11.2 0.2 22 0.2h27.2c11.1 0 18.7 0 22.5-0.2 1.9-0.1 3.9-0.2 5.9-0.4l1.9-0.2 3.5 3.4-0.3 2q-0.6 3.9-0.7 6.8v0.1 0.1c-0.1 0.5-0.1 3.2-0.3 14.4l-0.1 3.9h-13.4l-0.1-3.9c-0.1-3.3-0.3-6.5-0.8-9.5q0 0 0 0-5.2-0.5-12.3-0.5h-5.7c-0.1 2.7-0.1 7.2-0.1 14.4v40.2c0 12.6 0.4 15.8 0.6 16.5 0.5 0.1 2.4 0.5 7.9 0.7l3.9 0.1v13.6l-4.2-0.2c-8.6-0.4-15.9-0.6-21.8-0.6-6.3 0-13.6 0.2-21.8 0.6l-4.1 0.2z"/>
					<path id="&lt;Compound Path&gt;" class="s0" d="m563.8 266.7v-5.5q8-0.3 9.5-1.1 1.5-0.8 2.1-2.7 0.7-2.9 0.7-17.4v-40.2q0-16.4-0.2-18.4h-9.6q-7.2 0-12.8 0.5-2.2 0.2-2.5 0.5-0.5 0.4-0.8 2.4-0.9 4.7-1 10.5h-5.6q-0.3-13.8-0.3-15.5-0.2-3-0.7-6.4l0.6-0.6q3.2 0.3 6.7 0.4 5.8 0.2 22.2 0.2h27.2q16.9 0 22.6-0.2 3.1-0.1 6.2-0.4l0.7 0.6q-0.6 4.1-0.7 7.2-0.1 0.5-0.3 14.7h-5.6q-0.1-5.2-0.8-10-0.4-2.4-0.9-2.9-0.4-0.3-2.2-0.4-5.5-0.6-13.2-0.6h-9.6q-0.2 2.4-0.2 18.4v40.2q0 14.5 0.7 17.5 0.5 1.7 2.1 2.6 1.5 0.8 9.6 1.1v5.5q-13.1-0.6-22-0.6-9.5 0-21.9 0.6z"/>
					<path id="&lt;Path&gt;" class="s0" d="m726.6 273c-9.9 0-18.9-1.6-26.7-4.8-6.2-2.6-11.5-6.1-15.8-10.4-4.3-4.3-7.7-9.1-10-14.1-3.5-7.6-5.3-15.8-5.3-24.6 0-15.2 5.3-27.8 15.7-37.5 10.4-9.6 25.1-14.5 43.6-14.5 6.3 0 12 0.5 17 1.5 5 0.9 10.9 2.5 17.4 4.9l1.7 0.6 1.5 3.9-0.4 1.4c-0.7 1.9-1.2 4.3-1.5 7.1-0.7 5-1.1 9.6-1.3 13.7l-0.1 3.9h-13l-0.1-3.9c-0.1-4.1-0.2-7.5-0.5-10.1-2.4-2.3-5-4-7.8-5.2-3.2-1.3-7.6-2-12.8-2-9.5 0-16.8 2.9-22.4 8.8-5.5 5.8-8.3 14.2-8.3 25 0 6.7 0.9 12.5 2.9 17.4 1.9 4.9 4.4 8.9 7.6 12 3.2 3.1 6.3 5.5 9.5 6.9 4.3 1.9 9.7 2.8 16.1 2.8 4.2 0 8.2-0.4 11.9-1.4 3.8-0.9 8-2.6 12.5-5l2.4-1.3 5.9 5.5-4.8 10.6-1.2 0.6c-5.9 3.1-11.3 5.3-16 6.5-4.8 1.1-10.7 1.7-17.7 1.7z"/>
					<path id="&lt;Compound Path&gt;" class="s0" d="m761.5 254.5l-3.1 6.8q-8.4 4.4-15.1 6.1-6.7 1.6-16.7 1.6-14.2 0-25.1-4.5-8.6-3.6-14.6-9.6-6-5.9-9.2-12.9-4.9-10.6-4.9-22.9 0-21.2 14.5-34.6 14.4-13.4 40.8-13.4 9.1 0 16.3 1.4 7.2 1.3 16.8 4.8l0.3 0.8q-1.1 3.2-1.7 7.9-1 7.6-1.3 14.1h-5.2q-0.1-7.4-0.7-11.8-4.5-4.7-10.1-7.1-5.6-2.3-14.3-2.3-15.8 0-25.3 10-9.4 10-9.4 27.8 0 10.8 3.2 18.9 3.1 8.1 8.5 13.3 5.3 5.3 10.6 7.7 7.3 3.2 17.8 3.2 6.8 0 12.9-1.5 6.1-1.6 13.3-5.3z"/>
					<path id="&lt;Compound Path&gt;" fill-rule="evenodd" class="s0" d="m821.4 273c-10.7 0-20-2-27.8-5.9-7.9-4-14.2-9.9-18.7-17.7-4.4-7.7-6.7-17.3-6.7-28.6 0-8.6 1.4-16.4 4.1-22.9 2.6-6.6 6.6-12.3 11.6-16.9 5-4.7 10.5-8 16.4-10.1 7.4-2.5 15.4-3.8 24-3.8 8.6 0 16.5 1.3 23.5 3.7 5.4 1.9 10.2 4.7 14.4 8.3 4.1 3.6 7.3 7.3 9.4 11.1 2.2 3.8 3.8 8 4.9 12.4 1.1 4.4 1.7 9.3 1.7 14.6 0 8.9-1.6 17.3-4.7 24.9-2.3 5.9-5.8 11.1-10.3 15.7-4.5 4.5-9.7 8-15.4 10.4-7.8 3.2-16.6 4.8-26.4 4.8zm1.3-90.2c-5.7 0-10.5 1.3-14.4 3.9-3.9 2.6-6.7 6.4-8.5 11.6-1.9 5.5-2.9 11.8-2.9 18.6 0 9.8 1.4 18 4 24.3 2.5 6 5.7 10.3 9.4 12.6 3.9 2.4 8.5 3.6 13.8 3.6 4.9 0 9.2-1.1 13-3.4 3.7-2.2 6.7-6.1 8.9-11.7 2.3-5.9 3.5-13.2 3.5-21.8 0-5.9-0.7-11.3-1.9-16.2-1.3-4.7-3.1-8.7-5.3-12-2.2-3.1-4.8-5.5-7.7-7.1-2.9-1.6-6.9-2.4-11.9-2.4z"/>
					<path id="&lt;Compound Path&gt;" fill-rule="evenodd" class="s0" d="m772.2 220.8q0-12.3 3.8-21.4 3.7-9.1 10.6-15.5 6.9-6.4 15-9.2 10.4-3.6 22.7-3.6 12.3 0 22.2 3.5 7.4 2.6 13 7.5 5.7 5 8.7 10.1 2.9 5.2 4.4 11.4 1.6 6.1 1.6 13.6 0 12.6-4.4 23.4-3.2 8.1-9.4 14.3-6.3 6.3-14.2 9.6-10.9 4.5-24.8 4.5-15.1 0-26-5.4-10.8-5.5-17-16.2-6.2-10.7-6.2-26.6zm20.7-3.9q0 15.6 4.3 25.8 4.3 10.3 11 14.5 6.7 4.2 15.9 4.2 8.4 0 15.1-4 6.7-4 10.5-13.6 3.8-9.6 3.8-23.3 0-9.4-2.1-17.2-2-7.8-5.9-13.3-3.8-5.4-9-8.3-5.2-2.9-13.8-2.9-9.8 0-16.7 4.6-6.8 4.6-10 13.6-3.1 9-3.1 19.9z"/>
					<path id="&lt;Path&gt;" class="s0" d="m884.7 260.6l2.5-1c0.6-0.3 2-1 4.4-2.4q0.2-0.1 0.3-0.2c0.1-1.2 0.3-4 0.5-10.5 0.2-6.8 0.2-15.1 0.2-24.7 0-14 0-22.8-0.1-26-0.2-7.8-0.4-11.1-0.5-12.5-1-0.2-3.2-0.5-7.8-0.6l-3.8-0.2v-13.9l4.1 0.2c5.6 0.2 12.1 0.4 19.3 0.4 8.1 0 15.8-0.2 23-0.4l4.2-0.2v13.9l-3.8 0.2c-3.8 0.1-5.8 0.4-6.8 0.6-0.1 0.9-0.2 2.8-0.4 6.3-0.2 4.9-0.3 11.1-0.3 18.5q0 1.2 0.1 19.4 0 9.6 0.1 19.1c0 3.4 0 5.9 0 7.6q6.1 0.2 8.7 0.2c6.6 0 12.3-0.4 17.2-1.1q0.7-0.1 1.1-0.2 0-0.2 0.1-0.3c0.8-3.3 1.7-7.1 2.5-11.4l0.6-3.2h13.4l-0.5 4.4c-0.2 1.5-0.2 1.8-0.2 1.9v0.2 0.2l-1.7 13.5c-0.4 5.1-0.5 6.9-0.6 7.4l-0.1 2.9-2.8 0.8q-2.3 0.6-4.5 0.8c-3 0.3-7.2 0.4-13.1 0.4-0.9 0-6.3-0.1-15.9-0.4-7.5-0.1-12.5-0.2-15.4-0.2-4.3 0-11 0.2-19.8 0.6l-4.2 0.2z"/>
					<path id="&lt;Compound Path&gt;" class="s0" d="m888.7 266.7v-3.4q1.8-0.8 4.9-2.7 1.4-0.8 1.8-1.3 0.3-0.3 0.4-0.7 0.3-1.7 0.6-12 0.2-10.3 0.2-24.8 0-21.2-0.1-26.2-0.3-12.6-0.9-14.4-0.2-0.8-1-1.2-1.5-1-10.2-1.3v-5.9q8.5 0.4 19.4 0.4 12.2 0 23.2-0.4v5.9q-7.6 0.3-9.3 1.2-0.7 0.4-1 1.3-0.4 0.9-0.7 8.3-0.3 7.4-0.3 18.6 0 1.2 0.1 19.4 0 9.6 0.1 19.1 0 9.4 0.1 11.4 9.2 0.4 12.6 0.4 10.2 0 17.8-1.2 2.7-0.4 3.3-0.9 0.5-0.4 1.1-2.4 1.4-5.1 2.6-11.7h5.6q-0.2 1.9-0.2 2.2l-1.7 13.6q-0.5 6.3-0.6 7.6-1.9 0.5-3.9 0.7-4.1 0.4-12.6 0.4-1.3 0-15.8-0.4-11.1-0.2-15.5-0.2-6.6 0-20 0.6z"/>
					<path id="&lt;Path&gt;" class="s0" d="m968.7 260.6l2.5-1c0.6-0.3 2-1 4.4-2.4q0.2-0.1 0.3-0.2c0.1-1.2 0.3-4 0.5-10.5 0.1-6.8 0.2-15.1 0.2-24.7 0-14 0-22.8-0.1-26-0.2-7.8-0.4-11.1-0.5-12.5-1.1-0.2-3.3-0.5-7.8-0.6l-3.8-0.2v-13.9l4.1 0.2c5.6 0.2 12.1 0.4 19.3 0.4 8.1 0 15.8-0.2 23-0.4l4.2-0.2v13.9l-3.8 0.2c-3.8 0.1-5.8 0.4-6.8 0.6-0.1 0.9-0.3 2.8-0.4 6.3-0.2 4.9-0.3 11.1-0.3 18.5q0 1.2 0.1 19.4 0 9.6 0.1 19.1 0 4.8 0 7.6 6.1 0.2 8.7 0.2c6.6 0 12.3-0.4 17.2-1.1q0.7-0.1 1.1-0.2 0-0.2 0.1-0.3c0.8-3.3 1.7-7.1 2.5-11.4l0.6-3.2h13.4l-0.5 4.4c-0.2 1.5-0.2 1.8-0.2 1.9v0.2 0.2l-1.7 13.5c-0.4 5.1-0.5 6.9-0.6 7.4l-0.1 2.9-2.8 0.8q-2.3 0.6-4.6 0.8c-2.9 0.3-7.2 0.4-13.1 0.4-0.8 0-6.2-0.1-15.8-0.4-7.5-0.1-12.5-0.2-15.4-0.2-4.3 0-11 0.2-19.8 0.6l-4.2 0.2z"/>
					<path id="&lt;Compound Path&gt;" class="s0" d="m972.7 266.7v-3.4q1.8-0.8 4.9-2.7 1.4-0.8 1.8-1.3 0.3-0.3 0.4-0.7 0.3-1.7 0.6-12 0.2-10.3 0.2-24.8 0-21.2-0.1-26.2-0.3-12.6-0.9-14.4-0.2-0.8-1-1.2-1.5-1-10.2-1.3v-5.9q8.5 0.4 19.4 0.4 12.2 0 23.2-0.4v5.9q-7.6 0.3-9.3 1.2-0.7 0.4-1.1 1.3-0.3 0.9-0.6 8.3-0.3 7.4-0.3 18.6 0 1.2 0.1 19.4 0 9.6 0.1 19.1 0 9.4 0.1 11.4 9.2 0.4 12.6 0.4 10.2 0 17.8-1.2 2.7-0.4 3.3-0.9 0.5-0.4 1.1-2.4 1.4-5.1 2.6-11.7h5.6q-0.2 1.9-0.2 2.2l-1.7 13.6q-0.5 6.3-0.6 7.6-1.9 0.5-3.9 0.7-4.1 0.4-12.7 0.4-1.2 0-15.7-0.4-11.1-0.2-15.5-0.2-6.6 0-20 0.6z"/>
					<path id="&lt;Path&gt;" class="s0" d="m1051.8 260.5l2.3-1.1q2.6-1.2 4.5-2.4 0.2-2.7 0.4-7.1c0.4-7.7 0.6-13.3 0.6-16.7v-30.2c0-1.1-0.1-5.5-0.2-13-0.1-3.9-0.3-5.9-0.5-6.9-1-0.2-3.2-0.4-7.4-0.6l-3.8-0.2v-13.6l19.7 0.4q4.6 0.1 8.8 0.1c6 0 12.9-0.1 20.4-0.2 0 0 13.6-0.4 13.6-0.4 1.8 0 5 0.1 10 0.3 0.8 0 1.8 0.2 3.1 0.5l1.7 0.5 1.9 3.5-1.4 10.8c-0.1 0.9-0.9 13.3-0.9 13.3h-12.9l-0.1-3.9c-0.1-4.6-0.2-6.8-0.3-7.9-0.6-0.1-1.6-0.2-2.9-0.4-4.3-0.5-8.5-0.7-12.6-0.7q-4.2 0-8.6 0.2c-0.4 4.4-0.6 9.6-0.6 15.5v10q2.7 0.1 5.6 0.1c0.9 0 4.6 0 11-0.2q1.1 0 1.8-0.1c0.2-1.1 0.4-3 0.5-6.4l0.1-3.9h13.4l-0.3 18.7 0.3 18.7h-13.9v-4c0.1-4.6-0.2-6.5-0.4-7.3q0 0-0.1 0c-2.8-0.4-6.6-0.7-11.2-0.7q-3.8 0-6.8 0.2v24.7q0 2.4 0.1 4.4 4 0.2 9 0.2c4.7 0 9.1-0.2 13.1-0.5 2.9-0.2 4.5-0.4 5.2-0.6 0.5-1.6 1.2-4.7 2.1-10.7l0.5-3.4h13.5l-0.5 4.4c-1 8.7-1.5 15.9-1.5 21.4v1.7l-3 3-1.4 0.2c-3.1 0.3-7.2 0.5-12.7 0.5l-10.9-0.2c-10.5-0.2-17.9-0.2-21.9-0.2-1 0-8.6 0.1-22.4 0.4l-4 0.1z"/>
					<path id="&lt;Compound Path&gt;" class="s0" d="m1055.8 266.7v-3.6q4-1.9 6.6-3.9 0.4-2.9 0.6-9.2 0.6-11.5 0.6-16.8v-30.2q0-1.7-0.2-13.1-0.2-7.5-1-9.2-0.3-0.7-1-1-1.8-0.8-9.7-1.2v-5.7l15.6 0.3q4.7 0.1 8.9 0.1 9.2 0 20.5-0.2l13.6-0.4q2.4 0 9.8 0.3 0.7 0 2.2 0.4l0.5 0.9-1.3 9.6q-0.1 1-0.7 9.7h-5.2q-0.1-7.9-0.6-9.7-0.3-1-0.8-1.4-0.9-0.6-5.4-1.1-6.6-0.7-13-0.7-6 0-12.2 0.5-1 7.6-1 19.2v13.8q4.6 0.3 9.6 0.3 1.5 0 11.1-0.2 3.6-0.1 4.3-0.5 0.6-0.4 0.9-1.4 0.8-2.6 1-8.5h5.4l-0.2 14.7 0.2 14.7h-5.8q0.1-7.7-1-9.6-0.8-1.3-2.8-1.6-4.7-0.8-11.9-0.8-6.5 0-10.8 0.4v28.5q0 4.8 0.2 8.2 5.5 0.4 12.9 0.4 7.3 0 13.4-0.5 6.2-0.4 7.6-1.3 0.4-0.3 0.8-1.2 1.2-3.2 2.6-12.2h5.5q-1.5 13.2-1.5 21.8l-0.9 0.9q-4.2 0.5-12.2 0.5l-10.8-0.2q-16-0.2-22-0.2-1.6 0-22.4 0.4z"/>
					<path id="&lt;Path&gt;" class="s0" d="m1192.5 273c-10 0-19-1.6-26.7-4.8-6.2-2.6-11.6-6.1-15.9-10.4-4.3-4.3-7.7-9.1-10-14.1-3.5-7.6-5.3-15.8-5.3-24.6 0-15.2 5.3-27.8 15.8-37.5 10.3-9.6 25-14.5 43.5-14.5 6.3 0 12 0.5 17.1 1.5 5 0.9 10.8 2.5 17.3 4.9l1.8 0.6 1.5 3.9-0.5 1.4c-0.6 1.9-1.1 4.3-1.5 7.1-0.6 5-1.1 9.6-1.2 13.7l-0.2 3.9h-13l-0.1-3.9c0-4.1-0.2-7.5-0.5-10.1-2.3-2.3-5-4-7.8-5.2-3.2-1.3-7.5-2-12.8-2-9.4 0-16.8 2.9-22.3 8.8-5.6 5.8-8.4 14.2-8.4 25 0 6.7 1 12.5 2.9 17.4 1.9 4.9 4.5 8.9 7.6 12 3.2 3.1 6.4 5.5 9.5 6.9 4.3 1.9 9.7 2.8 16.1 2.8 4.2 0 8.2-0.4 12-1.4 3.7-0.9 7.9-2.6 12.4-5l2.5-1.3 5.9 5.5-4.9 10.6-1.2 0.6c-5.9 3.1-11.2 5.3-16 6.5-4.7 1.1-10.7 1.7-17.6 1.7z"/>
					<path id="&lt;Compound Path&gt;" class="s0" d="m1227.3 254.5l-3.1 6.8q-8.4 4.4-15 6.1-6.7 1.6-16.7 1.6-14.3 0-25.2-4.5-8.6-3.6-14.6-9.6-6-5.9-9.2-12.9-4.9-10.6-4.9-22.9 0-21.2 14.5-34.6 14.5-13.4 40.8-13.4 9.1 0 16.3 1.4 7.2 1.3 16.8 4.8l0.3 0.8q-1.1 3.2-1.7 7.9-1 7.6-1.2 14.1h-5.3q-0.1-7.4-0.6-11.8-4.5-4.7-10.1-7.1-5.7-2.3-14.4-2.3-15.8 0-25.2 10-9.5 10-9.5 27.8 0 10.8 3.2 18.9 3.2 8.1 8.5 13.3 5.3 5.3 10.7 7.7 7.3 3.2 17.7 3.2 6.8 0 12.9-1.5 6.2-1.6 13.3-5.3z"/>
					<path id="&lt;Path&gt;" class="s0" d="m1251 257.3l3.8-0.1c5.4-0.2 7.3-0.5 7.9-0.7q0 0 0-0.1c0.2-0.8 0.6-4 0.6-16.4v-40.2c0-7.4 0-11.8 0-14.4h-5.8c-4.6 0-8.7 0.2-12.2 0.5q-0.8 4.2-0.9 9.5l-0.1 3.9h-13.4l-0.1-3.9c-0.2-11.1-0.3-14.5-0.3-15.4q-0.2-2.8-0.6-6l-0.3-1.9 3.2-3.5 2.1 0.2q3 0.3 6.4 0.4c3.8 0.2 11.2 0.2 22.1 0.2h27.1c11.2 0 18.7 0 22.5-0.2 1.9-0.1 3.9-0.2 5.9-0.4l1.9-0.2 3.5 3.4-0.3 2c-0.4 2.6-0.6 4.9-0.7 6.8v0.1 0.1c0 0.5-0.1 3.2-0.3 14.4v3.9h-13.4l-0.1-3.9c-0.1-3.3-0.4-6.5-0.9-9.5q0 0 0 0-5.2-0.5-12.3-0.5h-5.7c0 2.7-0.1 7.2-0.1 14.4v40.2c0 12.6 0.5 15.8 0.7 16.5 0.5 0.1 2.3 0.5 7.8 0.7l3.9 0.1v13.6l-4.2-0.2c-8.6-0.4-15.9-0.6-21.8-0.6-6.2 0-13.6 0.2-21.7 0.6l-4.2 0.2z"/>
					<path id="&lt;Compound Path&gt;" class="s0" d="m1255 266.7v-5.5q8-0.3 9.5-1.1 1.6-0.8 2.1-2.7 0.7-2.9 0.7-17.4v-40.2q0-16.4-0.2-18.4h-9.6q-7.2 0-12.7 0.5-2.2 0.2-2.6 0.5-0.4 0.4-0.8 2.4-0.9 4.7-1 10.5h-5.6q-0.2-13.8-0.3-15.5-0.2-3-0.7-6.4l0.6-0.6q3.2 0.3 6.8 0.4 5.7 0.2 22.2 0.2h27.1q16.9 0 22.6-0.2 3.1-0.1 6.3-0.4l0.6 0.6q-0.6 4.1-0.7 7.2-0.1 0.5-0.3 14.7h-5.5q-0.2-5.2-0.9-10-0.4-2.4-0.9-2.9-0.4-0.3-2.1-0.4-5.5-0.6-13.3-0.6h-9.6q-0.2 2.4-0.2 18.4v40.2q0 14.5 0.8 17.5 0.4 1.7 2 2.6 1.5 0.8 9.6 1.1v5.5q-13-0.6-22-0.6-9.5 0-21.9 0.6z"/>
					<path id="&lt;Path&gt;" class="s0" d="m1325 256.9l3.9-0.1c4.3-0.2 6.2-0.3 7-0.4 0-0.8 0.2-2.2 0.3-4.5 0.3-5.3 0.5-10.2 0.5-14.6v-28.1c0-8.8 0-14.5-0.1-17-0.2-5.4-0.4-8-0.6-9.2-0.8 0-2.7-0.2-7.1-0.3l-3.9-0.2v-13.9l4.2 0.2c5.6 0.2 12 0.4 19.2 0.4 8.2 0 15.9-0.2 23.1-0.4l4.2-0.2v13.9l-3.9 0.2c-5.1 0.1-6.7 0.3-7.1 0.3-0.1 0.5-0.2 1.3-0.3 2.6-0.1 0.8-0.2 2.5-0.2 6.4-0.2 14.3-0.3 17.3-0.3 17.7v27.1l0.2 12.2c0 4.6 0.3 6.6 0.4 7.4q0 0 0.1 0c0.2 0.1 1.4 0.3 7.2 0.4l3.9 0.1v13.9l-4.2-0.1c-7.2-0.3-15-0.4-23.2-0.4-7.1 0-13.5 0.1-19.1 0.4l-4.2 0.2z"/>
					<path id="&lt;Compound Path&gt;" class="s0" d="m1371.7 172.8v5.9q-6.8 0.2-8.1 0.5-1.3 0.3-1.8 0.7-0.5 0.4-0.7 1.1-0.5 1.2-0.7 4.4-0.1 1.7-0.2 6.6-0.3 16.5-0.3 17.7v27.1l0.2 12.3q0 6.9 0.7 9 0.3 0.9 0.9 1.4 0.6 0.5 2 0.8 1.4 0.3 8 0.5v5.9q-11-0.4-23.4-0.4-10.8 0-19.3 0.4v-5.9q7-0.3 8.1-0.5 1.4-0.3 1.9-0.7 0.5-0.5 0.6-1.1 0.2-0.8 0.6-6.3 0.5-8.1 0.5-14.9v-28.1q0-13.4-0.1-17.2-0.3-8.5-0.8-10.7-0.2-0.8-0.7-1.3-0.4-0.5-1.6-0.8-1.1-0.3-8.5-0.5v-5.9q8.5 0.4 19.4 0.4 12.3 0 23.3-0.4z"/>
					<path id="&lt;Path&gt;" class="s0" d="m1423.2 271.2l-1-2.5c-3.8-9.5-7.5-18.5-10.9-26.8l-9.5-22.8c-7.5-17.7-12.1-28.3-13.7-31.6-1.4-2.8-2.2-3.9-2.5-4.3-0.5-0.1-2.2-0.5-6.3-0.6l-3.9-0.1v-13.9l4.1 0.2c10.7 0.3 17.2 0.4 19.5 0.4l28.1-0.5v13.8l-3.9 0.1c-3.4 0-5.4 0.2-6.6 0.4 0.4 1.4 1.4 4.4 3.8 10.1 2.6 6.3 2.8 6.7 2.8 6.9q0.2 0.5 0.4 1.1l13.2 32.3 11.3-27.8c0.2-0.5 1-2.8 4.7-12.6 2.2-5.8 3.1-8.6 3.4-10q-4.2-0.3-7.1-0.4l-3.9-0.1v-13.8l21.1 0.5 18.5-0.6v13.6l-3.6 0.4c-3.4 0.3-4.9 0.6-5.6 0.7-0.6 1-2.4 4.1-6.3 13.5l-4.8 11.2-9 21.6c-7.7 18.3-12.9 31.4-15.6 38.9l-0.9 2.7z"/>
					<path id="&lt;Compound Path&gt;" class="s0" d="m1425.9 267.2q-5.7-14.1-10.9-26.8l-9.6-22.8q-11.2-26.8-13.8-31.9-2.5-5.2-3.9-5.9-2-1.1-8.3-1.2v-5.8q16.1 0.4 19.6 0.4l24.1-0.4v5.8q-5.6 0.1-8.2 0.7-1.5 0.3-2 0.9-0.6 0.7-0.6 1.7 0 2 4.4 12.7 2.6 6.2 2.7 6.7 0.2 0.5 0.5 1.3l17 41.4 14.9-36.9q0.5-1.3 4.7-12.7 3.1-8.1 3.7-10.8 0.2-0.8 0.2-1.6 0-1.2-0.4-1.8-0.4-0.5-1-0.8-0.4-0.2-2.4-0.3-4.4-0.4-7.4-0.5v-5.8l17.1 0.4 14.5-0.4v5.8q-6.5 0.6-7.6 1.4-1.8 1.4-7.6 15.2l-4.8 11.2-9 21.6q-11.6 27.7-15.7 39.2z"/>
					<path id="&lt;Path&gt;" class="s0" d="m1487.3 260.5l2.3-1.1q2.6-1.2 4.5-2.4 0.2-2.7 0.4-7.1c0.4-7.7 0.5-13.3 0.5-16.7v-30.2c0-1.1 0-5.5-0.2-13-0.1-3.9-0.3-5.9-0.4-6.9-1-0.2-3.2-0.4-7.4-0.6l-3.8-0.2v-13.6l19.7 0.4q4.6 0.1 8.8 0.1c6 0 12.9-0.1 20.4-0.2 0 0 13.6-0.4 13.6-0.4 1.7 0 5 0.1 10 0.3 0.8 0 1.7 0.2 3.1 0.5l1.7 0.5 1.9 3.5-1.4 10.8c-0.1 0.9-1 13.3-1 13.3h-12.9v-3.9c-0.1-4.6-0.2-6.8-0.4-7.9-0.6-0.1-1.5-0.2-2.8-0.4-4.3-0.5-8.5-0.7-12.6-0.7q-4.2 0-8.6 0.2c-0.4 4.4-0.6 9.6-0.6 15.5v10q2.7 0.1 5.5 0.1c1 0 4.7 0 11.1-0.2q1.1 0 1.8-0.1c0.2-1.1 0.4-3 0.5-6.4l0.1-3.9h13.4l-0.4 18.7 0.4 18.7h-13.9v-4c0.1-4.6-0.2-6.5-0.4-7.3q0 0-0.1 0c-2.9-0.4-6.6-0.7-11.2-0.7q-3.8 0-6.8 0.2v24.7q0 2.4 0.1 4.4 4 0.2 9 0.2c4.7 0 9.1-0.2 13.1-0.5 2.9-0.2 4.4-0.4 5.2-0.6 0.5-1.6 1.2-4.7 2.1-10.7l0.5-3.4h13.5l-0.5 4.4c-1 8.7-1.5 15.9-1.5 21.4v1.7l-3 3-1.4 0.2c-3.1 0.3-7.2 0.5-12.7 0.5l-10.9-0.2c-10.5-0.2-17.9-0.2-21.9-0.2-1 0-8.6 0.1-22.4 0.4l-4 0.1z"/>
					<path id="&lt;Compound Path&gt;" class="s0" d="m1491.3 266.7v-3.6q4-1.9 6.5-3.9 0.4-2.9 0.7-9.2 0.5-11.5 0.5-16.8v-30.2q0-1.7-0.2-13.1-0.2-7.5-0.9-9.2-0.3-0.7-1-1-1.8-0.8-9.7-1.2v-5.7l15.6 0.3q4.6 0.1 8.9 0.1 9.2 0 20.4-0.2l13.7-0.4q2.4 0 9.8 0.3 0.6 0 2.2 0.4l0.5 0.9-1.3 9.6q-0.1 1-0.7 9.7h-5.2q-0.2-7.9-0.6-9.7-0.3-1-0.8-1.4-0.9-0.6-5.4-1.1-6.7-0.7-13-0.7-6 0-12.2 0.5-1 7.6-1 19.2v13.8q4.6 0.3 9.5 0.3 1.6 0 11.2-0.2 3.6-0.1 4.3-0.5 0.6-0.4 0.9-1.4 0.8-2.6 1-8.5h5.4l-0.3 14.7 0.3 14.7h-5.8q0.1-7.7-1-9.6-0.8-1.3-2.9-1.6-4.6-0.8-11.8-0.8-6.6 0-10.8 0.4v28.5q0 4.8 0.2 8.2 5.5 0.4 12.9 0.4 7.3 0 13.4-0.5 6.1-0.4 7.6-1.3 0.4-0.3 0.8-1.2 1.2-3.2 2.6-12.2h5.5q-1.5 13.2-1.5 21.8l-0.9 0.9q-4.3 0.5-12.2 0.5l-10.8-0.2q-16-0.2-22-0.2-1.6 0-22.4 0.4z"/>
				</g>
				<g id="&lt;Group&gt;">
					<path id="&lt;Compound Path&gt;" fill-rule="evenodd" class="s1" d="m374.6 266.7v-3.2q3.6-2.1 5.9-4.1 0.4-3.3 0.6-8.1 0.2-9.8 0.2-35.6 0-7-0.3-21.6-0.2-11.3-0.7-12.9-0.4-1-1.1-1.4-1.4-0.9-10-1.5v-5.5q1.5 0 3.1 0l9.2 0.3q4.6 0.1 11.4 0.1 6.7 0 10.5-0.2 9.7-0.4 12.6-0.4 11.1 0 17.1 2.3 6 2.3 8.8 6.6 2.8 4.3 2.8 9.7 0 5.8-3.2 10.8-3.2 4.9-8.1 7.7-3 1.7-13.2 4.5 12.2 1.5 17 3.9 4.8 2.4 7.7 7.5 2.9 5.2 2.9 11.5 0 6.6-3 12-2.9 5.4-7.6 9.3-4.6 3.8-10.7 6-6 2.3-15.1 2.3l-22.6-0.4q-5.4 0-14.2 0.4zm25.5-55.2l3.9 0.1q4.5 0 8.4-0.8 3.9-0.7 6.3-2.6 2.4-1.8 4.1-5.5 1.6-3.6 1.6-8.4 0-4.8-1.8-8.2-1.9-3.4-4.9-4.9-3.1-1.4-9.1-1.4-4.4 0-7.9 0.5-0.4 4.9-0.5 11.2l-0.1 10.4zm0.2 47.7q2.2 0.4 8.4 0.4 8.3 0 13.4-5.4 5.2-5.5 5.2-15.7 0-7.3-2.7-11.8-2.7-4.5-7.2-6.3-4.4-1.9-12.2-1.9-2.7 0-5.1 0.3v30.6l0.1 8q0 0.4 0.1 1.8z"/>
					<path id="&lt;Compound Path&gt;" class="s1" d="m463.8 266.7v-3.6q4.1-1.9 6.6-3.9 0.4-2.9 0.7-9.2 0.5-11.5 0.5-16.8v-30.2q0-1.7-0.2-13.1-0.2-7.5-0.9-9.2-0.3-0.7-1-1-1.8-0.8-9.7-1.2v-5.7l15.6 0.3q4.6 0.1 8.9 0.1 9.2 0 20.4-0.2l13.7-0.4q2.4 0 9.8 0.3 0.6 0 2.2 0.4l0.5 0.9-1.3 9.6q-0.1 1-0.7 9.7h-5.2q-0.2-7.9-0.6-9.7-0.3-1-0.8-1.4-0.9-0.6-5.4-1.1-6.7-0.7-13-0.7-6 0-12.3 0.5-0.9 7.6-0.9 19.2v13.8q4.6 0.3 9.5 0.3 1.6 0 11.2-0.2 3.6-0.1 4.2-0.5 0.7-0.4 1-1.4 0.8-2.6 1-8.5h5.4l-0.3 14.7 0.3 14.7h-5.8q0.1-7.7-1-9.6-0.8-1.3-2.9-1.6-4.6-0.8-11.9-0.8-6.5 0-10.7 0.4v28.5q0 4.8 0.2 8.2 5.4 0.4 12.9 0.4 7.2 0 13.4-0.5 6.1-0.4 7.5-1.3 0.5-0.3 0.9-1.2 1.2-3.2 2.6-12.2h5.5q-1.5 13.2-1.5 21.8l-0.9 0.9q-4.3 0.5-12.2 0.5l-10.8-0.2q-16-0.2-22-0.2-1.6 0-22.5 0.4z"/>
					<path id="&lt;Compound Path&gt;" class="s1" d="m563.8 266.7v-5.5q8-0.3 9.5-1.1 1.5-0.8 2.1-2.7 0.7-2.9 0.7-17.4v-40.2q0-16.4-0.2-18.4h-9.6q-7.2 0-12.8 0.5-2.2 0.2-2.5 0.5-0.5 0.4-0.8 2.4-0.9 4.7-1 10.5h-5.6q-0.3-13.8-0.3-15.5-0.2-3-0.7-6.4l0.6-0.6q3.2 0.3 6.7 0.4 5.8 0.2 22.2 0.2h27.2q16.9 0 22.6-0.2 3.1-0.1 6.2-0.4l0.7 0.6q-0.6 4.1-0.7 7.2-0.1 0.5-0.3 14.7h-5.6q-0.1-5.2-0.8-10-0.4-2.4-0.9-2.9-0.4-0.3-2.2-0.4-5.5-0.6-13.2-0.6h-9.6q-0.2 2.4-0.2 18.4v40.2q0 14.5 0.7 17.5 0.5 1.7 2.1 2.6 1.5 0.8 9.6 1.1v5.5q-13.1-0.6-22-0.6-9.5 0-21.9 0.6z"/>
					<path id="&lt;Compound Path&gt;" class="s1" d="m761.5 254.5l-3.1 6.8q-8.4 4.4-15.1 6.1-6.7 1.6-16.7 1.6-14.2 0-25.1-4.5-8.6-3.6-14.6-9.6-6-5.9-9.2-12.9-4.9-10.6-4.9-22.9 0-21.2 14.5-34.6 14.4-13.4 40.8-13.4 9.1 0 16.3 1.4 7.2 1.3 16.8 4.8l0.3 0.8q-1.1 3.2-1.7 7.9-1 7.6-1.3 14.1h-5.2q-0.1-7.4-0.7-11.8-4.5-4.7-10.1-7.1-5.6-2.3-14.3-2.3-15.8 0-25.3 10-9.4 10-9.4 27.8 0 10.8 3.2 18.9 3.1 8.1 8.5 13.3 5.3 5.3 10.6 7.7 7.3 3.2 17.8 3.2 6.8 0 12.9-1.5 6.1-1.6 13.3-5.3z"/>
					<path id="&lt;Compound Path&gt;" fill-rule="evenodd" class="s1" d="m772.2 220.8q0-12.3 3.8-21.4 3.7-9.1 10.6-15.5 6.9-6.4 15-9.2 10.4-3.6 22.7-3.6 12.3 0 22.2 3.5 7.4 2.6 13 7.5 5.7 5 8.7 10.1 2.9 5.2 4.4 11.4 1.6 6.1 1.6 13.6 0 12.6-4.4 23.4-3.2 8.1-9.4 14.3-6.3 6.3-14.2 9.6-10.9 4.5-24.8 4.5-15.1 0-26-5.4-10.8-5.5-17-16.2-6.2-10.7-6.2-26.6zm20.7-3.9q0 15.6 4.3 25.8 4.3 10.3 11 14.5 6.7 4.2 15.9 4.2 8.4 0 15.1-4 6.7-4 10.5-13.6 3.8-9.6 3.8-23.3 0-9.4-2.1-17.2-2-7.8-5.9-13.3-3.8-5.4-9-8.3-5.2-2.9-13.8-2.9-9.8 0-16.7 4.6-6.8 4.6-10 13.6-3.1 9-3.1 19.9z"/>
					<path id="&lt;Compound Path&gt;" class="s1" d="m888.7 266.7v-3.4q1.8-0.8 4.9-2.7 1.4-0.8 1.8-1.3 0.3-0.3 0.4-0.7 0.3-1.7 0.6-12 0.2-10.3 0.2-24.8 0-21.2-0.1-26.2-0.3-12.6-0.9-14.4-0.2-0.8-1-1.2-1.5-1-10.2-1.3v-5.9q8.5 0.4 19.4 0.4 12.2 0 23.2-0.4v5.9q-7.6 0.3-9.3 1.2-0.7 0.4-1 1.3-0.4 0.9-0.7 8.3-0.3 7.4-0.3 18.6 0 1.2 0.1 19.4 0 9.6 0.1 19.1 0 9.4 0.1 11.4 9.2 0.4 12.6 0.4 10.2 0 17.8-1.2 2.7-0.4 3.3-0.9 0.5-0.4 1.1-2.4 1.4-5.1 2.6-11.7h5.6q-0.2 1.9-0.2 2.2l-1.7 13.6q-0.5 6.3-0.6 7.6-1.9 0.5-3.9 0.7-4.1 0.4-12.6 0.4-1.3 0-15.8-0.4-11.1-0.2-15.5-0.2-6.6 0-20 0.6z"/>
					<path id="&lt;Compound Path&gt;" class="s1" d="m972.7 266.7v-3.4q1.8-0.8 4.9-2.7 1.4-0.8 1.8-1.3 0.3-0.3 0.4-0.7 0.3-1.7 0.6-12 0.2-10.3 0.2-24.8 0-21.2-0.1-26.2-0.3-12.6-0.9-14.4-0.2-0.8-1-1.2-1.5-1-10.2-1.3v-5.9q8.5 0.4 19.4 0.4 12.2 0 23.2-0.4v5.9q-7.6 0.3-9.3 1.2-0.7 0.4-1.1 1.3-0.3 0.9-0.6 8.3-0.3 7.4-0.3 18.6 0 1.2 0.1 19.4 0 9.6 0.1 19.1 0 9.4 0.1 11.4 9.2 0.4 12.6 0.4 10.2 0 17.8-1.2 2.7-0.4 3.3-0.9 0.5-0.4 1.1-2.4 1.4-5.1 2.6-11.7h5.6q-0.2 1.9-0.2 2.2l-1.7 13.6q-0.5 6.3-0.6 7.6-1.9 0.5-3.9 0.7-4.1 0.4-12.7 0.4-1.2 0-15.7-0.4-11.1-0.2-15.5-0.2-6.6 0-20 0.6z"/>
					<path id="&lt;Compound Path&gt;" class="s1" d="m1055.8 266.7v-3.6q4-1.9 6.6-3.9 0.4-2.9 0.6-9.2 0.6-11.5 0.6-16.8v-30.2q0-1.7-0.2-13.1-0.2-7.5-1-9.2-0.3-0.7-1-1-1.8-0.8-9.7-1.2v-5.7l15.6 0.3q4.7 0.1 8.9 0.1 9.2 0 20.5-0.2l13.6-0.4q2.4 0 9.8 0.3 0.7 0 2.2 0.4l0.5 0.9-1.3 9.6q-0.1 1-0.7 9.7h-5.2q-0.1-7.9-0.6-9.7-0.3-1-0.8-1.4-0.9-0.6-5.4-1.1-6.6-0.7-13-0.7-6 0-12.2 0.5-1 7.6-1 19.2v13.8q4.6 0.3 9.6 0.3 1.5 0 11.1-0.2 3.6-0.1 4.3-0.5 0.6-0.4 0.9-1.4 0.8-2.6 1-8.5h5.4l-0.2 14.7 0.2 14.7h-5.8q0.1-7.7-1-9.6-0.8-1.3-2.8-1.6-4.7-0.8-11.9-0.8-6.5 0-10.8 0.4v28.5q0 4.8 0.2 8.2 5.5 0.4 12.9 0.4 7.3 0 13.4-0.5 6.2-0.4 7.6-1.3 0.4-0.3 0.8-1.2 1.2-3.2 2.6-12.2h5.5q-1.5 13.2-1.5 21.8l-0.9 0.9q-4.2 0.5-12.2 0.5l-10.8-0.2q-16-0.2-22-0.2-1.6 0-22.4 0.4z"/>
					<path id="&lt;Compound Path&gt;" class="s1" d="m1227.3 254.5l-3.1 6.8q-8.4 4.4-15 6.1-6.7 1.6-16.7 1.6-14.3 0-25.2-4.5-8.6-3.6-14.6-9.6-6-5.9-9.2-12.9-4.9-10.6-4.9-22.9 0-21.2 14.5-34.6 14.5-13.4 40.8-13.4 9.1 0 16.3 1.4 7.2 1.3 16.8 4.8l0.3 0.8q-1.1 3.2-1.7 7.9-1 7.6-1.2 14.1h-5.3q-0.1-7.4-0.6-11.8-4.5-4.7-10.1-7.1-5.7-2.3-14.4-2.3-15.8 0-25.2 10-9.5 10-9.5 27.8 0 10.8 3.2 18.9 3.2 8.1 8.5 13.3 5.3 5.3 10.7 7.7 7.3 3.2 17.7 3.2 6.8 0 12.9-1.5 6.2-1.6 13.3-5.3z"/>
					<path id="&lt;Compound Path&gt;" class="s1" d="m1255 266.7v-5.5q8-0.3 9.5-1.1 1.6-0.8 2.1-2.7 0.7-2.9 0.7-17.4v-40.2q0-16.4-0.2-18.4h-9.6q-7.2 0-12.7 0.5-2.2 0.2-2.6 0.5-0.4 0.4-0.8 2.4-0.9 4.7-1 10.5h-5.6q-0.2-13.8-0.3-15.5-0.2-3-0.7-6.4l0.6-0.6q3.2 0.3 6.8 0.4 5.7 0.2 22.2 0.2h27.1q16.9 0 22.6-0.2 3.1-0.1 6.3-0.4l0.6 0.6q-0.6 4.1-0.7 7.2-0.1 0.5-0.3 14.7h-5.5q-0.2-5.2-0.9-10-0.4-2.4-0.9-2.9-0.4-0.3-2.1-0.4-5.5-0.6-13.3-0.6h-9.6q-0.2 2.4-0.2 18.4v40.2q0 14.5 0.8 17.5 0.4 1.7 2 2.6 1.5 0.8 9.6 1.1v5.5q-13-0.6-22-0.6-9.5 0-21.9 0.6z"/>
					<path id="&lt;Compound Path&gt;" class="s1" d="m1371.7 172.8v5.9q-6.8 0.2-8.1 0.5-1.3 0.3-1.8 0.7-0.5 0.4-0.7 1.1-0.5 1.2-0.7 4.4-0.1 1.7-0.2 6.6-0.3 16.5-0.3 17.7v27.1l0.2 12.3q0 6.9 0.7 9 0.3 0.9 0.9 1.4 0.6 0.5 2 0.8 1.4 0.3 8 0.5v5.9q-11-0.4-23.4-0.4-10.8 0-19.3 0.4v-5.9q7-0.3 8.1-0.5 1.4-0.3 1.9-0.7 0.5-0.5 0.6-1.1 0.2-0.8 0.6-6.3 0.5-8.1 0.5-14.9v-28.1q0-13.4-0.1-17.2-0.3-8.5-0.8-10.7-0.2-0.8-0.7-1.3-0.4-0.5-1.6-0.8-1.1-0.3-8.5-0.5v-5.9q8.5 0.4 19.4 0.4 12.3 0 23.3-0.4z"/>
					<path id="&lt;Compound Path&gt;" class="s1" d="m1425.9 267.2q-5.7-14.1-10.9-26.8l-9.6-22.8q-11.2-26.8-13.8-31.9-2.5-5.2-3.9-5.9-2-1.1-8.3-1.2v-5.8q16.1 0.4 19.6 0.4l24.1-0.4v5.8q-5.6 0.1-8.2 0.7-1.5 0.3-2 0.9-0.6 0.7-0.6 1.7 0 2 4.4 12.7 2.6 6.2 2.7 6.7 0.2 0.5 0.5 1.3l17 41.4 14.9-36.9q0.5-1.3 4.7-12.7 3.1-8.1 3.7-10.8 0.2-0.8 0.2-1.6 0-1.2-0.4-1.8-0.4-0.5-1-0.8-0.4-0.2-2.4-0.3-4.4-0.4-7.4-0.5v-5.8l17.1 0.4 14.5-0.4v5.8q-6.5 0.6-7.6 1.4-1.8 1.4-7.6 15.2l-4.8 11.2-9 21.6q-11.6 27.7-15.7 39.2z"/>
					<path id="&lt;Compound Path&gt;" class="s1" d="m1491.3 266.7v-3.6q4-1.9 6.5-3.9 0.4-2.9 0.7-9.2 0.5-11.5 0.5-16.8v-30.2q0-1.7-0.2-13.1-0.2-7.5-0.9-9.2-0.3-0.7-1-1-1.8-0.8-9.7-1.2v-5.7l15.6 0.3q4.6 0.1 8.9 0.1 9.2 0 20.4-0.2l13.7-0.4q2.4 0 9.8 0.3 0.6 0 2.2 0.4l0.5 0.9-1.3 9.6q-0.1 1-0.7 9.7h-5.2q-0.2-7.9-0.6-9.7-0.3-1-0.8-1.4-0.9-0.6-5.4-1.1-6.7-0.7-13-0.7-6 0-12.2 0.5-1 7.6-1 19.2v13.8q4.6 0.3 9.5 0.3 1.6 0 11.2-0.2 3.6-0.1 4.3-0.5 0.6-0.4 0.9-1.4 0.8-2.6 1-8.5h5.4l-0.3 14.7 0.3 14.7h-5.8q0.1-7.7-1-9.6-0.8-1.3-2.9-1.6-4.6-0.8-11.8-0.8-6.6 0-10.8 0.4v28.5q0 4.8 0.2 8.2 5.5 0.4 12.9 0.4 7.3 0 13.4-0.5 6.1-0.4 7.6-1.3 0.4-0.3 0.8-1.2 1.2-3.2 2.6-12.2h5.5q-1.5 13.2-1.5 21.8l-0.9 0.9q-4.3 0.5-12.2 0.5l-10.8-0.2q-16-0.2-22-0.2-1.6 0-22.4 0.4z"/>
				</g>
			</g>
			<g id="&lt;Group&gt;">
				<path id="&lt;Path&gt;" class="s1" d="m306.8 220.1c0 17.6-3.5 34.7-10.3 50.8-6.5 15.5-15.9 29.4-27.9 41.4-12 12-25.9 21.4-41.5 28-16.1 6.8-33.1 10.2-50.7 10.2-17.6 0-34.7-3.4-50.8-10.2-15.5-6.6-29.5-16-41.5-28-11.9-12-21.4-25.9-27.9-41.4-6.8-16.1-10.3-33.2-10.3-50.8 0-17.6 3.5-34.7 10.3-50.8 6.5-15.5 16-29.5 27.9-41.4 12-12 26-21.4 41.5-28 16.1-6.8 33.2-10.2 50.8-10.2 17.6 0 34.6 3.4 50.7 10.2 15.6 6.6 29.5 16 41.5 28 12 11.9 21.4 25.9 27.9 41.4 6.8 16.1 10.3 33.2 10.3 50.8z"/>
				<path id="&lt;Compound Path&gt;" fill-rule="evenodd" class="s0" d="m310.3 220.1c0 18.1-3.6 35.6-10.6 52.1-6.7 16-16.4 30.3-28.7 42.6-12.3 12.3-26.6 21.9-42.5 28.7-16.5 7-34.1 10.5-52.1 10.5-18.1 0-35.7-3.5-52.2-10.5-15.9-6.8-30.2-16.4-42.5-28.7-12.3-12.3-22-26.6-28.7-42.6-7-16.5-10.6-34-10.6-52.1 0-18.1 3.6-35.6 10.6-52.1 6.7-16 16.4-30.3 28.7-42.6 12.3-12.3 26.6-21.9 42.5-28.7 16.5-7 34.1-10.5 52.2-10.5 18 0 35.6 3.5 52.1 10.5 15.9 6.8 30.2 16.4 42.5 28.7 12.3 12.3 22 26.6 28.7 42.6 7 16.5 10.6 34 10.6 52.1zm-8.6 0c0-33.5-13.1-65-36.7-88.6-23.7-23.7-55.2-36.7-88.6-36.7-33.5 0-65 13-88.7 36.7-23.6 23.6-36.7 55.1-36.7 88.6 0 33.5 13.1 64.9 36.7 88.6 23.7 23.7 55.2 36.7 88.7 36.7 33.4 0 64.9-13 88.6-36.7 23.6-23.7 36.7-55.1 36.7-88.6z"/>
				<path id="&lt;Compound Path&gt;" class="s0" d="m108.6 221.3q0.8-1.2 1.7-2.4-0.9 1.2-1.7 2.4z"/>
				<path id="&lt;Compound Path&gt;" fill-rule="evenodd" class="s0" d="m284.6 181.3v15.1c-2 29.9-6.1 40.8-14.4 60.8-11.7 28-41.8 49-42.1 49.2-14.4 8.7-33.4 14.9-47.4 15.5h-0.9q-0.4 0-0.9 0-1.3 0-2.5 0v-0.1 0.1q-1.3 0-2.6 0-0.5 0-0.9 0h-0.9c-14-0.6-33-6.8-47.4-15.5-0.3-0.2-30.4-21.2-42.1-49.2-8.3-20-12.3-30.9-14.4-60.8v-15.1c0-5.8 5.4-10.6 11.9-10.6 5.6 0 10.5 3.5 11.7 8.4l7.6 31q0.3 0 0.6 0 0.2-0.7 0.5-1.4 0.1-0.2 0.2-0.5 0.1-0.4 0.3-0.9 0.2-0.3 0.3-0.6 0.5-1.1 1-2.3 0.2-0.3 0.4-0.7 0.5-1.1 1.1-2.2 0.9-1.5 1.8-3.1 0.2-0.3 0.5-0.7 0.2-0.4 0.5-0.8 0.2-0.4 0.5-0.8 0.2-0.3 0.5-0.7 0.3-0.4 0.5-0.8 0.3-0.4 0.6-0.8 0.8-1.1 1.7-2.3 0.3-0.4 0.6-0.8 1.2-1.5 2.6-3.1 0.3-0.4 0.6-0.8 0.4-0.4 0.7-0.7c8.7-9.8 20.5-19.3 34.5-26.4-8.7-7-32.2-30.9-22.8-37.6 6.9-4.9 26.4 6 32.6 10.2 7-8.4 11.9-14 17.6-14 5.6 0 10.4 5.4 17 14 7.8-3.2 24.9-16.4 33-10.2 8.3 6.2-2 18.4-7 23.8-4.5 5-10 9.6-15.5 13.7 12.7 6.3 24.7 14.7 34.1 25.3l-0.1 0.1 0.1-0.1c7.3 8.3 12.1 17.9 14.5 25.2q0.3 0 0.6 0l7.6-31c1.2-4.9 6.1-8.4 11.7-8.4 6.6 0 11.9 4.8 11.9 10.6zm-112.6 117c0-11.3-3.8-22.3-10.6-31.3-6.2-8.3-14.5-12.4-22.2-18.8-9.2-7.8-17.1-17.7-25.4-26.6-1.5-1.6-4.4-4.7-6.9-3.2-2.2 1.3-1.9 4.8-1.2 6.7 6.3 17.3 20.5 30.2 32.3 43.7 3.6 4.1-1.4 10-6.8 4.7-8-7.9-12.3-12.9-15.4-16.2-7-7.6-10.7-12.8-15.4-21.7-8.9-17.3-12.6-36.1-17.2-54.9-0.2-0.8-0.7-1.5-1.5-1.9q-0.8-0.4-1.7-0.4-0.4 0-0.9 0.1c-1.4 0.3-2.4 1.6-2.4 2.9v15c0 19.8 5 39.7 14.5 57.6 7.1 13.5 16.6 25.8 28.2 36.6 9.7 8.9 21.7 15.7 34.7 19.7 5 1.5 12.3 3 17.9 3.1zm8.9-63.5l-0.9-5.4q7.1-0.7 11.2-4.6 4.1-3.8 4.1-10v-0.1q0-3.5-1.1-5.9-1.1-2.4-3.5-4-2.5-1.6-5.2-2.5-2.8-0.9-7.2-1.9-5.3-1.1-7.3-2-2.1-1-2.1-2.4v-0.1q0-2.9 5.3-3.8 5.3-0.8 11.2 1.3c1.9 0.7 3.7 1.5 5 2.6q1 0.8 1.6 1.7c0.3 0.3 0.9 0.1 0.9-0.3q-0.2-1.9-0.5-5.2-0.4-4.3-0.6-7c0-0.8-0.7-1.3-1.5-1.2q-0.5 0.1-1.1 0.1-0.8 0-2.2-0.2-1.4-0.2-3.5-0.5-2.1-0.4-3.5-0.5l0.9-5.8c0.2-1.4-0.9-2.7-2.3-2.7h-4.5c-1.4 0-2.5 1.3-2.3 2.7l0.9 5.5q-7.1 0.6-11.2 4.5-4.1 3.8-4.1 9.7v0.1q0 2.5 0.5 4.4 0.6 2 1.8 3.4 1.3 1.4 2.6 2.4 1.3 1 3.6 1.8 2.3 0.9 4.1 1.3 1.8 0.5 4.7 1.2 5.3 1.2 7.2 2 1.9 0.8 1.9 2.4v0.1q0 3.3-5.7 3.9-5.7 0.6-12-2.2c-2.1-0.9-3.9-2-5.4-3.3q-1.1-1-1.9-2.2c-0.3-0.4-0.9-0.2-0.9 0.2q0.6 7.8 1.2 14c0.1 0.8 0.9 1.4 1.6 1.1q0.5-0.1 1.1-0.1 0.9 0 4.3 0.9 3.4 0.9 6.6 1.2l-0.9 5.4c-0.2 1.5 0.9 2.7 2.3 2.7h4.5c1.4 0 2.5-1.2 2.3-2.7zm95.1-53.3c0-1.4-1-2.6-2.4-3q-0.5-0.1-0.9-0.1-0.9 0-1.7 0.4c-0.8 0.5-1.3 1.1-1.5 1.9-4.6 18.8-8.2 37.6-17.2 54.9-4.7 9-8.4 14.1-15.4 21.7-3.1 3.3-7.4 8.4-15.4 16.2-5.3 5.3-10.4-0.6-6.8-4.7 11.9-13.5 26-26.4 32.3-43.6 0.7-2 1-5.4-1.1-6.7-2.6-1.6-5.5 1.5-7 3.2-8.3 8.8-16.2 18.7-25.4 26.5-7.7 6.5-16 10.6-22.2 18.8-6.7 9.1-10.6 20.1-10.6 31.3v15.2c5.6-0.2 12.9-1.7 17.9-3.2 13-4 25-10.8 34.7-19.7 11.6-10.8 21.1-23.1 28.2-36.5 9.5-18 14.5-37.9 14.5-57.7z"/>
			</g>
		</g>
	</g>
</svg>