<svg width="351" height="43" viewBox="0 0 351 43" fill="none" xmlns="http://www.w3.org/2000/svg">
<rect x="1.25" y="1.25" width="40.5" height="40.5" rx="20.25" fill="white"/>
<rect x="1.25" y="1.25" width="40.5" height="40.5" rx="20.25" stroke="black" stroke-width="1.5"/>
<path d="M33.176 15.4727C32.802 15.4716 32.4398 15.6038 32.1544 15.8456C31.869 16.0874 31.679 16.4229 31.6186 16.7921L30.5939 22.9266L28.3512 24.208L29.2318 22.4474C29.4639 21.9844 29.5106 21.4503 29.3624 20.954C29.2143 20.4577 28.8823 20.0366 28.4344 19.7766C27.9864 19.5166 27.4561 19.4372 26.9517 19.5548C26.4472 19.6723 26.0066 19.9778 25.7197 20.409L22.8043 24.7818C22.7393 24.8812 22.7049 24.9975 22.7055 25.1163V34.1572C22.7055 34.3171 22.769 34.4704 22.882 34.5834C22.995 34.6965 23.1483 34.76 23.3082 34.76H30.5409C30.7008 34.76 30.8541 34.6965 30.9671 34.5834C31.0801 34.4704 31.1436 34.3171 31.1436 34.1572V31.7463C31.1436 31.5865 31.0801 31.4332 30.9671 31.3201C30.8541 31.2071 30.7008 31.1436 30.5409 31.1436H29.9382V30.7524L34.628 24.8903C34.7135 24.7834 34.7601 24.6505 34.76 24.5136V17.0518C34.7592 16.6324 34.5919 16.2305 34.2949 15.9344C33.9979 15.6383 33.5954 15.4722 33.176 15.4727ZM29.9382 33.5545H23.9109V32.3491H29.9382V33.5545ZM33.5545 24.302L28.8647 30.1642C28.7792 30.2711 28.7327 30.404 28.7327 30.5409V31.1436H23.9109V25.2971L26.725 21.0781C26.8419 20.9022 27.0214 20.7776 27.227 20.7297C27.4326 20.6817 27.6487 20.714 27.8313 20.82C28.0139 20.926 28.1492 21.0976 28.2095 21.2999C28.2698 21.5022 28.2506 21.7199 28.1559 21.9086L26.3821 25.4496C26.3228 25.5659 26.3028 25.6983 26.3252 25.8269C26.3477 25.9556 26.4112 26.0734 26.5064 26.1628C26.6015 26.2522 26.7231 26.3082 26.8529 26.3226C26.9826 26.3369 27.1135 26.3087 27.2259 26.2422L31.445 23.8313C31.5223 23.7872 31.5889 23.7264 31.64 23.6535C31.6911 23.5805 31.7253 23.4972 31.7403 23.4094L32.8102 16.9922C32.826 16.8996 32.876 16.8163 32.9502 16.7587C33.0244 16.701 33.1175 16.6733 33.2111 16.6808C33.3048 16.6884 33.3922 16.7307 33.4562 16.7995C33.5202 16.8683 33.5561 16.9585 33.557 17.0524L33.5545 24.302ZM17.2809 20.409C16.994 19.9778 16.5534 19.6723 16.0489 19.5548C15.5445 19.4372 15.0142 19.5166 14.5662 19.7766C14.1183 20.0366 13.7863 20.4577 13.6382 20.954C13.49 21.4503 13.5367 21.9844 13.7688 22.4474L14.6494 24.208L12.4036 22.9266L11.379 16.7921C11.3105 16.4037 11.0995 16.055 10.7872 15.8143C10.4749 15.5735 10.084 15.4581 9.69105 15.4906C9.29809 15.5231 8.93145 15.7012 8.66302 15.9901C8.39459 16.2789 8.24372 16.6575 8.24 17.0518V24.5136C8.23994 24.6505 8.28649 24.7834 8.372 24.8903L13.0618 30.7524V31.1436H12.4591C12.2992 31.1436 12.1459 31.2071 12.0329 31.3201C11.9199 31.4332 11.8564 31.5865 11.8564 31.7463V34.1572C11.8564 34.3171 11.9199 34.4704 12.0329 34.5834C12.1459 34.6965 12.2992 34.76 12.4591 34.76H19.6918C19.8517 34.76 20.005 34.6965 20.118 34.5834C20.231 34.4704 20.2945 34.3171 20.2945 34.1572V25.1163C20.2944 24.9973 20.2591 24.881 20.1933 24.7818L17.2809 20.409ZM14.1353 30.1642L9.44545 24.302V17.0518C9.44628 16.9579 9.48222 16.8677 9.54622 16.7989C9.61023 16.7301 9.69765 16.6878 9.79128 16.6802C9.88492 16.6727 9.978 16.7004 10.0522 16.7581C10.1264 16.8157 10.1764 16.899 10.1922 16.9916L11.2621 23.4076C11.2771 23.4954 11.3113 23.5787 11.3624 23.6517C11.4135 23.7246 11.4801 23.7854 11.5574 23.8295L15.7765 26.2404C15.8887 26.3054 16.0188 26.3325 16.1476 26.3177C16.2764 26.3028 16.397 26.2469 16.4914 26.1581C16.5859 26.0693 16.6492 25.9524 16.672 25.8248C16.6948 25.6972 16.6758 25.5656 16.6179 25.4496L14.8471 21.908C14.7583 21.7203 14.7432 21.5061 14.8049 21.3078C14.8665 21.1095 15.0003 20.9415 15.1798 20.8372C15.3593 20.7328 15.5715 20.6997 15.7743 20.7443C15.9771 20.7889 16.1558 20.908 16.275 21.0781L19.0891 25.2971V31.1436H14.2673V30.5409C14.2673 30.404 14.2208 30.2711 14.1353 30.1642ZM19.0891 33.5545H13.0618V32.3491H19.0891V33.5545Z" fill="black"/>
<path d="M28.13 14.87C28.13 13.5587 27.7412 12.2769 27.0126 11.1866C26.2841 10.0963 25.2487 9.24649 24.0372 8.74468C22.8257 8.24287 21.4926 8.11158 20.2066 8.3674C18.9205 8.62322 17.7391 9.25466 16.8119 10.1819C15.8847 11.1091 15.2532 12.2905 14.9974 13.5766C14.7416 14.8626 14.8729 16.1957 15.3747 17.4072C15.8765 18.6187 16.7263 19.6541 17.8166 20.3826C18.9069 21.1112 20.1887 21.5 21.5 21.5C23.2578 21.4979 24.9429 20.7988 26.1858 19.5558C27.4287 18.3129 28.1279 16.6278 28.13 14.87ZM21.5 20.2946C20.4271 20.2946 19.3783 19.9764 18.4863 19.3804C17.5942 18.7843 16.8989 17.9371 16.4884 16.9459C16.0778 15.9547 15.9704 14.864 16.1797 13.8117C16.389 12.7595 16.9056 11.7929 17.6643 11.0343C18.4229 10.2756 19.3895 9.759 20.4417 9.54969C21.494 9.34038 22.5847 9.44781 23.5759 9.85838C24.5671 10.2689 25.4143 10.9642 26.0103 11.8563C26.6064 12.7483 26.9245 13.7971 26.9245 14.87C26.923 16.3082 26.3509 17.687 25.334 18.704C24.317 19.7209 22.9382 20.293 21.5 20.2946Z" fill="black"/>
<path d="M21.5001 12.8694C21.9384 12.8694 22.2935 13.2245 22.2935 13.6628H23.1702C23.1702 12.8957 22.6442 12.2514 21.9384 12.0585V11.5237H21.0617V12.0585C20.356 12.2514 19.83 12.8957 19.83 13.6628C19.83 14.5834 20.5796 15.3329 21.5001 15.3329C21.657 15.3329 21.8104 15.3795 21.9409 15.4667C22.0714 15.5538 22.173 15.6778 22.2331 15.8227C22.2931 15.9677 22.3089 16.1272 22.2782 16.2811C22.2476 16.435 22.1721 16.5764 22.0611 16.6874C21.9501 16.7983 21.8088 16.8739 21.6549 16.9045C21.501 16.9351 21.3414 16.9194 21.1965 16.8594C21.0515 16.7993 20.9276 16.6976 20.8404 16.5671C20.7532 16.4367 20.7067 16.2833 20.7067 16.1264H19.83C19.83 16.8935 20.356 17.5378 21.0617 17.7307V18.2655H21.9384V17.7307C22.6442 17.5378 23.1702 16.8935 23.1702 16.1264C23.1702 15.2058 22.4206 14.4562 21.5001 14.4562C21.2897 14.4562 21.0879 14.3727 20.9391 14.2239C20.7903 14.0751 20.7067 13.8733 20.7067 13.6628C20.7067 13.4524 20.7903 13.2506 20.9391 13.1018C21.0879 12.953 21.2897 12.8694 21.5001 12.8694Z" fill="black"/>
<path d="M49.8 32V31.04H61.416C62.3547 31.04 63.1547 30.8907 63.816 30.592C64.4773 30.2933 64.9893 29.7387 65.352 28.928C65.7147 28.096 65.896 26.9227 65.896 25.408C65.896 24.064 65.736 23.0187 65.416 22.272C65.1173 21.5253 64.5947 21.0027 63.848 20.704C63.1227 20.4053 62.1307 20.256 60.872 20.256L59.912 19.136C62.2373 19.136 64.2747 19.36 66.024 19.808C67.7733 20.2347 69.1387 20.9387 70.12 21.92C71.1013 22.88 71.592 24.1707 71.592 25.792C71.592 27.2213 71.1973 28.3947 70.408 29.312C69.64 30.2293 68.584 30.912 67.24 31.36C65.896 31.7867 64.3813 32 62.696 32H49.8ZM53 31.52V7.872H58.056V31.52H53ZM56.296 20.256V19.136H61.416C62.312 19.136 63.0373 18.9973 63.592 18.72C64.168 18.4427 64.584 17.9307 64.84 17.184C65.1173 16.4373 65.256 15.36 65.256 13.952C65.256 12.5227 65.1173 11.4453 64.84 10.72C64.584 9.97333 64.168 9.472 63.592 9.216C63.0373 8.96 62.312 8.832 61.416 8.832H49.8V7.872H62.696C64.1893 7.872 65.5333 8.096 66.728 8.544C67.944 8.992 68.904 9.664 69.608 10.56C70.3333 11.456 70.696 12.576 70.696 13.92C70.696 15.3067 70.3013 16.48 69.512 17.44C68.7227 18.3787 67.6347 19.0827 66.248 19.552C64.8613 20.0213 63.2507 20.256 61.416 20.256H56.296ZM73.6713 32V31.04H87.2073C88.4019 31.04 89.4153 30.72 90.2473 30.08C91.0793 29.44 91.7193 28.5973 92.1673 27.552C92.6366 26.5067 92.8819 25.376 92.9033 24.16H94.1833V32H73.6713ZM76.7113 31.52V7.872H81.7673V31.52H76.7113ZM87.4953 25.088C87.4739 24.064 87.2713 23.2213 86.8873 22.56C86.5033 21.8987 85.8846 21.408 85.0313 21.088C84.1779 20.768 83.0473 20.608 81.6393 20.608V19.648C83.0473 19.648 84.1779 19.4987 85.0313 19.2C85.8846 18.9013 86.5033 18.4427 86.8873 17.824C87.2713 17.2053 87.4739 16.4267 87.4953 15.488H88.7753V25.088H87.4953ZM92.4233 14.272C92.4019 13.2907 92.1779 12.3947 91.7513 11.584C91.3459 10.752 90.7593 10.0907 89.9913 9.6C89.2233 9.088 88.2953 8.832 87.2073 8.832H73.6713V7.872H93.7033V14.272H92.4233ZM100.369 32V31.04H104.369V8.832H102.769C101.595 8.832 100.582 9.152 99.7285 9.792C98.8965 10.432 98.2458 11.2747 97.7765 12.32C97.3285 13.3653 97.0938 14.496 97.0725 15.712H95.7925V7.872H118.001V15.712H116.721C116.699 14.496 116.454 13.3653 115.985 12.32C115.537 11.2747 114.897 10.432 114.065 9.792C113.233 9.152 112.219 8.832 111.025 8.832H109.425V31.04H113.201V32H100.369ZM136.778 32.416C135.092 32.416 133.546 32.0853 132.138 31.424C130.73 30.7627 129.503 29.8667 128.458 28.736C127.434 27.584 126.634 26.272 126.058 24.8C125.482 23.3067 125.194 21.7387 125.194 20.096C125.194 18.4533 125.471 16.8853 126.026 15.392C126.602 13.8987 127.412 12.5653 128.458 11.392C129.503 10.2187 130.74 9.29067 132.17 8.608C133.599 7.92533 135.178 7.584 136.906 7.584C138.015 7.584 138.964 7.744 139.754 8.064C140.564 8.36267 141.396 8.832 142.25 9.472L143.658 7.872H144.458V15.264H143.498C143.263 14.0267 142.868 12.9173 142.314 11.936C141.78 10.9333 141.055 10.144 140.138 9.568C139.242 8.992 138.122 8.704 136.778 8.704C135.988 8.704 135.252 8.85333 134.57 9.152C133.908 9.45067 133.332 10.016 132.842 10.848C132.351 11.6587 131.967 12.8427 131.69 14.4C131.412 15.936 131.274 17.952 131.274 20.448C131.274 22.6453 131.38 24.4587 131.594 25.888C131.828 27.296 132.18 28.3947 132.65 29.184C133.119 29.9733 133.695 30.528 134.378 30.848C135.082 31.1467 135.892 31.296 136.81 31.296C138.26 31.296 139.466 31.008 140.426 30.432C141.407 29.856 142.175 29.0987 142.73 28.16C143.306 27.2 143.711 26.1653 143.946 25.056H144.906V32H143.946L142.538 30.528C141.62 31.1893 140.682 31.6693 139.722 31.968C138.783 32.2667 137.802 32.416 136.778 32.416ZM159.496 32.416C157.832 32.416 156.274 32.0747 154.824 31.392C153.394 30.7093 152.136 29.7813 151.048 28.608C149.981 27.4347 149.138 26.1013 148.52 24.608C147.922 23.1147 147.624 21.5467 147.624 19.904C147.624 18.2613 147.922 16.704 148.52 15.232C149.138 13.7387 149.981 12.4267 151.048 11.296C152.136 10.144 153.394 9.23733 154.824 8.576C156.274 7.91467 157.832 7.584 159.496 7.584C161.16 7.584 162.717 7.91467 164.168 8.576C165.618 9.23733 166.877 10.144 167.944 11.296C169.032 12.4267 169.874 13.7387 170.472 15.232C171.09 16.704 171.4 18.2613 171.4 19.904C171.4 21.5467 171.09 23.1147 170.472 24.608C169.874 26.1013 169.032 27.4347 167.944 28.608C166.877 29.7813 165.618 30.7093 164.168 31.392C162.717 32.0747 161.16 32.416 159.496 32.416ZM159.464 31.296C160.552 31.296 161.469 31.136 162.216 30.816C162.962 30.4747 163.56 29.888 164.008 29.056C164.477 28.224 164.808 27.072 165 25.6C165.213 24.128 165.32 22.2507 165.32 19.968C165.32 17.6853 165.213 15.8187 165 14.368C164.808 12.896 164.477 11.7547 164.008 10.944C163.56 10.112 162.962 9.536 162.216 9.216C161.469 8.87467 160.552 8.704 159.464 8.704C158.397 8.704 157.49 8.87467 156.744 9.216C156.018 9.536 155.432 10.1013 154.984 10.912C154.536 11.7227 154.205 12.864 153.992 14.336C153.8 15.7867 153.704 17.6427 153.704 19.904C153.704 22.2293 153.8 24.1387 153.992 25.632C154.205 27.104 154.536 28.256 154.984 29.088C155.453 29.8987 156.05 30.4747 156.776 30.816C157.522 31.136 158.418 31.296 159.464 31.296ZM173.328 32V31.04H186.864C188.058 31.04 189.072 30.72 189.904 30.08C190.736 29.44 191.376 28.5973 191.824 27.552C192.293 26.5067 192.538 25.376 192.56 24.16H193.84V32H173.328ZM176.368 31.52V7.872H181.424V31.52H176.368ZM173.328 8.832V7.872H185.2V8.832H173.328ZM195.109 32V31.04H208.645C209.839 31.04 210.853 30.72 211.685 30.08C212.517 29.44 213.157 28.5973 213.605 27.552C214.074 26.5067 214.319 25.376 214.341 24.16H215.621V32H195.109ZM198.149 31.52V7.872H203.205V31.52H198.149ZM195.109 8.832V7.872H206.981V8.832H195.109ZM216.89 32V31.04H230.426C231.621 31.04 232.634 30.72 233.466 30.08C234.298 29.44 234.938 28.5973 235.386 27.552C235.855 26.5067 236.101 25.376 236.122 24.16H237.402V32H216.89ZM219.93 31.52V7.872H224.986V31.52H219.93ZM230.714 25.088C230.693 24.064 230.49 23.2213 230.106 22.56C229.722 21.8987 229.103 21.408 228.25 21.088C227.397 20.768 226.266 20.608 224.858 20.608V19.648C226.266 19.648 227.397 19.4987 228.25 19.2C229.103 18.9013 229.722 18.4427 230.106 17.824C230.49 17.2053 230.693 16.4267 230.714 15.488H231.994V25.088H230.714ZM235.642 14.272C235.621 13.2907 235.397 12.3947 234.97 11.584C234.565 10.752 233.978 10.0907 233.21 9.6C232.442 9.088 231.514 8.832 230.426 8.832H216.89V7.872H236.922V14.272H235.642ZM251.715 32.416C250.03 32.416 248.483 32.0853 247.075 31.424C245.667 30.7627 244.441 29.8667 243.395 28.736C242.371 27.584 241.571 26.272 240.995 24.8C240.419 23.3067 240.131 21.7387 240.131 20.096C240.131 18.4533 240.409 16.8853 240.963 15.392C241.539 13.8987 242.35 12.5653 243.395 11.392C244.441 10.2187 245.678 9.29067 247.107 8.608C248.537 7.92533 250.115 7.584 251.843 7.584C252.953 7.584 253.902 7.744 254.691 8.064C255.502 8.36267 256.334 8.832 257.187 9.472L258.595 7.872H259.395V15.264H258.435C258.201 14.0267 257.806 12.9173 257.251 11.936C256.718 10.9333 255.993 10.144 255.075 9.568C254.179 8.992 253.059 8.704 251.715 8.704C250.926 8.704 250.19 8.85333 249.507 9.152C248.846 9.45067 248.27 10.016 247.779 10.848C247.289 11.6587 246.905 12.8427 246.627 14.4C246.35 15.936 246.211 17.952 246.211 20.448C246.211 22.6453 246.318 24.4587 246.531 25.888C246.766 27.296 247.118 28.3947 247.587 29.184C248.057 29.9733 248.633 30.528 249.315 30.848C250.019 31.1467 250.83 31.296 251.747 31.296C253.198 31.296 254.403 31.008 255.363 30.432C256.345 29.856 257.113 29.0987 257.667 28.16C258.243 27.2 258.649 26.1653 258.883 25.056H259.843V32H258.883L257.475 30.528C256.558 31.1893 255.619 31.6693 254.659 31.968C253.721 32.2667 252.739 32.416 251.715 32.416ZM266.337 32V31.04H270.337V8.832H268.737C267.564 8.832 266.551 9.152 265.697 9.792C264.865 10.432 264.215 11.2747 263.745 12.32C263.297 13.3653 263.063 14.496 263.041 15.712H261.761V7.872H283.969V15.712H282.689C282.668 14.496 282.423 13.3653 281.953 12.32C281.505 11.2747 280.865 10.432 280.033 9.792C279.201 9.152 278.188 8.832 276.993 8.832H275.393V31.04H279.169V32H266.337ZM288.118 31.52V7.872H293.174V31.52H288.118ZM285.078 32V31.04H296.31V32H285.078ZM285.078 8.832V7.872H296.31V8.832H285.078ZM307.053 32.288L298.349 8.352H303.885L309.677 24.256H309.805L309.997 25.44L307.885 32.288H307.053ZM307.053 32.288L308.717 27.2L315.629 8.352H316.685L307.885 32.288H307.053ZM295.981 8.832V7.872H306.605V8.832H295.981ZM311.693 8.832V7.872H318.765V8.832H311.693ZM318.765 32V31.04H332.301C333.496 31.04 334.509 30.72 335.341 30.08C336.173 29.44 336.813 28.5973 337.261 27.552C337.73 26.5067 337.976 25.376 337.997 24.16H339.277V32H318.765ZM321.805 31.52V7.872H326.861V31.52H321.805ZM332.589 25.088C332.568 24.064 332.365 23.2213 331.981 22.56C331.597 21.8987 330.978 21.408 330.125 21.088C329.272 20.768 328.141 20.608 326.733 20.608V19.648C328.141 19.648 329.272 19.4987 330.125 19.2C330.978 18.9013 331.597 18.4427 331.981 17.824C332.365 17.2053 332.568 16.4267 332.589 15.488H333.869V25.088H332.589ZM337.517 14.272C337.496 13.2907 337.272 12.3947 336.845 11.584C336.44 10.752 335.853 10.0907 335.085 9.6C334.317 9.088 333.389 8.832 332.301 8.832H318.765V7.872H338.797V14.272H337.517Z" fill="white"/>
</svg>
