<svg width="150" height="32" viewBox="0 0 150 32" fill="none" xmlns="http://www.w3.org/2000/svg">
<path d="M28.6075 15.9996C28.6075 17.6198 28.2834 19.1917 27.6443 20.6712C27.0263 22.0997 26.1428 23.3829 25.0165 24.4852C23.8912 25.5866 22.5801 26.4523 21.1197 27.0563C19.608 27.6827 18.002 28 16.3475 28C14.693 28 13.087 27.6827 11.5754 27.0563C10.115 26.4523 8.80385 25.5866 7.67855 24.4852C6.55231 23.3829 5.66785 22.0997 5.05073 20.6712C4.41161 19.1917 4.08749 17.6198 4.08749 15.9996C4.08749 14.3802 4.41161 12.8084 5.05073 11.3288C5.66785 9.89943 6.55231 8.61707 7.67855 7.51476C8.80385 6.41246 10.115 5.5477 11.5754 4.94277C13.087 4.31733 14.6931 4 16.3475 4C18.002 4 19.608 4.31724 21.1197 4.94277C22.5801 5.5477 23.8912 6.41246 25.0165 7.51476C26.1427 8.61697 27.0263 9.89943 27.6443 11.3288C28.2834 12.8084 28.6075 14.3803 28.6075 15.9996Z" fill="#092264"/>
<path d="M27.9453 11.2044C27.3113 9.73735 26.4038 8.41984 25.2479 7.28856C24.0921 6.15727 22.746 5.26899 21.247 4.64851C19.6949 4.00595 18.0464 3.68018 16.3474 3.68018C14.6483 3.68018 12.9999 4.00595 11.4477 4.64851C9.94877 5.26899 8.60267 6.15727 7.44682 7.28856C6.29098 8.41984 5.38348 9.73735 4.74944 11.2044C4.09293 12.7236 3.76007 14.3371 3.76007 16C3.76007 17.6629 4.09293 19.2764 4.74944 20.7955C5.38348 22.2626 6.29098 23.58 7.44682 24.7114C8.60267 25.8427 9.94877 26.7309 11.4477 27.3515C12.9999 27.994 14.6483 28.3198 16.3474 28.3198C18.0465 28.3198 19.6949 27.994 21.247 27.3515C22.746 26.731 24.0921 25.8427 25.2479 24.7114C26.4038 23.5801 27.3113 22.2626 27.9453 20.7955C28.6018 19.2764 28.9347 17.6629 28.9347 16C28.9347 14.3371 28.6018 12.7236 27.9453 11.2044ZM24.6776 24.1531C22.4525 26.3309 19.4942 27.5303 16.3475 27.5303C13.2008 27.5303 10.2423 26.331 8.01732 24.1531C5.7922 21.9753 4.56689 19.0798 4.56689 16C4.56689 12.9201 5.7923 10.0246 8.01732 7.84683C10.2424 5.669 13.2008 4.46962 16.3475 4.46962C19.4942 4.46962 22.4526 5.669 24.6776 7.84683C26.9028 10.0246 28.1281 12.9201 28.1281 16C28.1281 19.0798 26.9028 21.9754 24.6776 24.1531Z" fill="white"/>
<path d="M9.97772 16.1072C10.0305 16.0356 10.0844 15.9646 10.1404 15.8931C10.0838 15.9647 10.0297 16.0362 9.97772 16.1072Z" fill="white"/>
<path d="M25.403 11.4607C24.88 11.4607 24.4202 11.7824 24.3089 12.226L23.5914 15.0848C23.5724 15.0842 23.5539 15.0848 23.5354 15.0848C23.3061 14.4065 22.8609 13.5264 22.1692 12.7663L22.1639 12.7727L22.1685 12.7663C21.2872 11.7863 20.1607 11.019 18.9631 10.4388C19.4821 10.0577 19.9993 9.63283 20.4262 9.17566C20.89 8.67792 21.859 7.55663 21.0843 6.98023C20.3202 6.41219 18.7069 7.63336 17.9744 7.92152C17.3571 7.13424 16.9058 6.63135 16.3769 6.63135C15.8427 6.63135 15.3802 7.1543 14.7247 7.92152C14.1424 7.53657 12.3064 6.53209 11.6582 6.9853C10.7781 7.60044 12.9823 9.80358 13.8031 10.447C12.4863 11.1001 11.3802 11.9718 10.564 12.8687C10.5423 12.8925 10.5211 12.9165 10.4994 12.9403C10.4784 12.9641 10.4572 12.988 10.4368 13.0112C10.3538 13.1066 10.2734 13.202 10.197 13.2974C10.1779 13.3213 10.1588 13.3452 10.1403 13.369C10.0843 13.4406 10.0304 13.5115 9.97763 13.5831C9.96052 13.6069 9.94341 13.6301 9.92621 13.654C9.9091 13.6779 9.89265 13.7018 9.8762 13.725C9.85975 13.7488 9.8433 13.7727 9.82741 13.7959C9.81096 13.8197 9.79508 13.843 9.77929 13.8668C9.76415 13.89 9.74836 13.9139 9.73313 13.9371C9.71799 13.961 9.70286 13.9842 9.68838 14.0074C9.62907 14.1009 9.5737 14.1937 9.52238 14.286C9.48346 14.355 9.44661 14.4234 9.41239 14.4917C9.40055 14.5142 9.38937 14.5368 9.37874 14.5594C9.34387 14.6297 9.31153 14.6999 9.28126 14.7689C9.27336 14.7883 9.26547 14.807 9.25758 14.8264C9.24507 14.8547 9.23389 14.8831 9.22336 14.9108C9.21678 14.9263 9.21085 14.9411 9.20559 14.9566C9.18914 14.9998 9.17401 15.0424 9.15944 15.085C9.14101 15.085 9.12249 15.0843 9.10341 15.085L8.38609 12.2261C8.27479 11.7825 7.81493 11.4609 7.2919 11.4609C6.67469 11.4609 6.17206 11.8973 6.17206 12.4338V13.8213C6.36448 16.5712 6.74848 17.5776 7.52982 19.4172C8.62532 21.9955 11.4527 23.9195 11.481 23.9388L11.4849 23.9414C12.8393 24.7429 14.6193 25.3096 15.942 25.3637V25.3689H16.0198C16.0474 25.3689 16.0758 25.3682 16.1041 25.3682L16.1074 25.3676C16.1891 25.3682 16.2695 25.3669 16.3472 25.3631L16.3478 25.354V25.3631C16.4256 25.3669 16.506 25.3682 16.5876 25.3676L16.5909 25.3682C16.6192 25.3682 16.6476 25.3689 16.6753 25.3689H16.753V25.3637C18.0758 25.3095 19.8557 24.7428 21.2101 23.9414L21.214 23.9388C21.2423 23.9195 24.0697 21.9955 25.1652 19.4172C25.9465 17.5776 26.3306 16.5712 26.5229 13.8213V12.4338C26.523 11.8971 26.0203 11.4607 25.403 11.4607ZM15.942 24.5891C15.4144 24.5769 14.7246 24.4363 14.257 24.297C13.0317 23.9328 11.9033 23.3054 10.9955 22.4833C9.90327 21.4943 9.00997 20.364 8.34134 19.1235C7.45274 17.4736 6.98235 15.6386 6.98235 13.8172V12.4438C6.98235 12.3168 7.07589 12.2059 7.20965 12.1743C7.23738 12.1679 7.26502 12.1647 7.292 12.1647C7.34802 12.1647 7.40263 12.1776 7.45142 12.2033C7.52455 12.242 7.57654 12.3046 7.5944 12.3761C8.02784 14.1034 8.3671 15.8339 9.21161 17.4259C9.64834 18.2492 9.99887 18.7238 10.6575 19.4207C10.9473 19.7276 11.3518 20.1905 12.1008 20.9139C12.6061 21.402 13.0791 20.8571 12.7392 20.48C11.6285 19.2389 10.2966 18.0551 9.7102 16.4651C9.64364 16.2846 9.61469 15.9674 9.81425 15.8481C10.056 15.7036 10.3228 15.988 10.4717 16.1434C11.2497 16.9539 11.9862 17.8688 12.8551 18.5832C13.5791 19.1783 14.363 19.5568 14.9434 20.3182C15.5764 21.148 15.942 22.159 15.942 23.1976V24.5891ZM16.5573 17.6032H16.137C16.0026 17.6032 15.9005 17.4853 15.9223 17.3556L16.006 16.8528C15.8063 16.8334 15.5995 16.7973 15.386 16.7425C15.1719 16.6884 15.0376 16.6613 14.9815 16.6613C14.9447 16.6613 14.911 16.6658 14.8801 16.6742C14.8076 16.6941 14.7338 16.6458 14.7273 16.5717C14.6913 16.1911 14.6543 15.7625 14.6163 15.2847C14.6129 15.2414 14.67 15.2225 14.6943 15.2589C14.7433 15.3323 14.8055 15.4009 14.8788 15.4647C15.0144 15.5826 15.1884 15.6839 15.386 15.769C15.7806 15.9392 16.1554 16.0063 16.5112 15.9708C16.8663 15.9354 17.0441 15.8167 17.0441 15.6136V15.5995C17.0441 15.5054 16.9848 15.4331 16.8663 15.3835C16.7476 15.3338 16.5237 15.2713 16.1937 15.1959C16.0079 15.1534 15.8597 15.1178 15.7483 15.0895C15.6363 15.0612 15.5085 15.0211 15.365 14.9689C15.2207 14.9173 15.1081 14.8619 15.027 14.8025C14.946 14.7438 14.8656 14.671 14.7866 14.5833C14.7075 14.4963 14.6508 14.3925 14.616 14.2719C14.581 14.1512 14.5639 14.0159 14.5639 13.8644V13.8573C14.5639 13.4942 14.6924 13.1945 14.9506 12.9585C15.2082 12.7225 15.5599 12.5858 16.006 12.5478L15.9223 12.0449C15.9006 11.9152 16.0027 11.7973 16.137 11.7973H16.5593C16.6929 11.7973 16.7951 11.9147 16.774 12.0442L16.6883 12.5762C16.7766 12.5859 16.8872 12.6007 17.0197 12.622C17.152 12.6433 17.2621 12.6601 17.3504 12.6717C17.4386 12.6833 17.5085 12.6891 17.5592 12.6891C17.5968 12.6891 17.6304 12.6865 17.6594 12.6814C17.7299 12.6698 17.7958 12.7188 17.801 12.789C17.8129 12.9522 17.8313 13.1669 17.8557 13.4332C17.8742 13.6334 17.8885 13.7917 17.8985 13.9083C17.902 13.9495 17.8475 13.9704 17.8226 13.937C17.7805 13.8806 17.7275 13.8283 17.6654 13.78C17.5416 13.6826 17.3807 13.6027 17.197 13.5389C16.83 13.4118 16.4809 13.3738 16.1488 13.426C15.8168 13.4776 15.6502 13.5936 15.6502 13.7728V13.7799C15.6502 13.8695 15.7141 13.9424 15.8418 13.9991C15.9696 14.0559 16.1982 14.1198 16.5282 14.1906C16.8069 14.2467 17.0322 14.3035 17.2041 14.3602C17.376 14.4169 17.5388 14.4936 17.6916 14.5904C17.8451 14.6871 17.9564 14.8096 18.0262 14.9585C18.0961 15.1074 18.131 15.2879 18.131 15.5001V15.5143C18.131 15.8921 18.0019 16.199 17.7443 16.435C17.4861 16.671 17.1343 16.8103 16.6883 16.8528L16.7726 17.355C16.7944 17.4853 16.6916 17.6032 16.5573 17.6032ZM25.7127 13.8173C25.7127 15.6387 25.2423 17.4737 24.3536 19.1236C23.685 20.3641 22.7917 21.4944 21.6995 22.4834C20.7917 23.3055 19.6633 23.9329 18.438 24.2971C17.9702 24.4364 17.2805 24.577 16.7529 24.5892V23.1978C16.7529 22.1591 17.1186 21.1482 17.7516 20.3184C18.3319 19.557 19.1158 19.1784 19.8398 18.5833C20.7087 17.8689 21.4452 16.9541 22.2231 16.1436C22.372 15.9882 22.6388 15.7038 22.8806 15.8483C23.0803 15.9676 23.0512 16.2847 22.9847 16.4653C22.3984 18.0552 21.0664 19.2391 19.9557 20.4802C19.6158 20.8574 20.0888 21.4022 20.5941 20.9141C21.3431 20.1907 21.7476 19.7277 22.0374 19.4209C22.6962 18.7238 23.0466 18.2494 23.4833 17.426C24.3278 15.8342 24.6671 14.1036 25.1006 12.3763C25.1184 12.3047 25.1705 12.2421 25.2436 12.2035C25.2923 12.1777 25.347 12.1649 25.403 12.1649C25.43 12.1649 25.4578 12.1681 25.4854 12.1745C25.6191 12.2061 25.7127 12.317 25.7127 12.444V13.8173Z" fill="white"/>
<path d="M34.3276 19.5301L34.5126 19.422C34.6595 19.3361 34.7884 19.2502 34.8973 19.1655C34.9125 19.0015 34.9232 18.8098 34.9294 18.5932C34.9459 17.9888 34.9543 16.8727 34.9543 15.2761C34.9543 14.8533 34.9438 14.1793 34.9231 13.2729C34.9115 12.6218 34.8927 12.3499 34.8802 12.2375C34.7853 12.2188 34.5839 12.1901 34.1703 12.1643L33.8201 12.1426V10.8983H34.1934C34.2901 10.8983 34.3914 10.9005 34.4969 10.9048L35.3574 10.9298C35.631 10.9339 35.9755 10.9359 36.4056 10.9359C36.8187 10.9359 37.1453 10.9317 37.3763 10.9236C37.9872 10.8981 38.3777 10.8857 38.5677 10.8857C39.3093 10.8857 39.8744 10.9634 40.2951 11.1232C40.7437 11.2937 41.081 11.5508 41.2975 11.8874C41.5095 12.2171 41.617 12.5897 41.617 12.9951C41.617 13.4253 41.497 13.8305 41.2602 14.1994C41.0322 14.5544 40.7367 14.8358 40.3816 15.036C40.509 15.077 40.6191 15.1211 40.7127 15.1682C41.0775 15.352 41.3719 15.6398 41.5879 16.0238C41.7986 16.3989 41.9053 16.8198 41.9053 17.2752C41.9053 17.7503 41.7971 18.189 41.5838 18.5793C41.3775 18.9564 41.1076 19.2832 40.7816 19.5505C40.4604 19.814 40.0881 20.0254 39.6756 20.1789C39.2598 20.3338 38.7415 20.4123 38.1352 20.4123L36.0228 20.3746C35.6989 20.3747 35.2578 20.3873 34.7181 20.4119L34.3276 20.4297V19.5301ZM37.4591 18.9992C37.5621 19.0042 37.6984 19.0076 37.8783 19.0076C38.2925 19.0076 38.6145 18.879 38.8625 18.6146C39.1135 18.3473 39.2408 17.9409 39.2408 17.4068C39.2408 17.026 39.1743 16.7215 39.043 16.5016C38.9168 16.2903 38.7574 16.1467 38.5555 16.0625C38.3269 15.9672 37.9913 15.9189 37.5587 15.9189C37.5218 15.9189 37.4854 15.9194 37.4495 15.9203V18.4285L37.4591 18.9992ZM37.4837 12.3165C37.4721 12.532 37.4648 12.7688 37.4621 13.0241L37.4496 13.9963V14.5206C37.7018 14.5203 37.9429 14.4993 38.1597 14.4581C38.3434 14.4233 38.4886 14.3657 38.5917 14.287C38.6915 14.2108 38.7807 14.0862 38.8569 13.9167C38.9371 13.7383 38.9778 13.5252 38.9778 13.2833C38.9778 13.0481 38.9345 12.8507 38.849 12.6966C38.7698 12.5539 38.6743 12.4573 38.5571 12.4012C38.4633 12.3564 38.2681 12.303 37.872 12.303C37.7358 12.303 37.6061 12.3076 37.4837 12.3165Z" fill="white"/>
<path d="M34.701 20.0393V19.7447C34.9224 19.6153 35.1062 19.4858 35.2525 19.3562C35.2776 19.1515 35.2942 18.9009 35.3026 18.6042C35.3193 17.9942 35.3277 16.885 35.3277 15.2765C35.3277 14.8462 35.3173 14.1757 35.2964 13.2648C35.2839 12.5629 35.2608 12.1618 35.2274 12.0616C35.2064 11.9989 35.1751 11.955 35.1334 11.93C35.0457 11.8716 34.7323 11.8256 34.1934 11.792V11.2719C34.2853 11.2719 34.3814 11.274 34.4817 11.2781L35.3465 11.3032C35.6306 11.3074 35.9835 11.3095 36.4056 11.3095C36.8234 11.3095 37.1513 11.3054 37.3895 11.2969C37.9911 11.2718 38.3837 11.2593 38.5677 11.2593C39.2571 11.2593 39.7887 11.3304 40.1627 11.4723C40.5365 11.6144 40.8102 11.8201 40.9836 12.0896C41.1569 12.3591 41.2436 12.661 41.2436 12.9951C41.2436 13.3546 41.1444 13.6887 40.946 13.9979C40.7475 14.3071 40.4937 14.5474 40.1845 14.7186C40.0007 14.8231 39.5912 14.963 38.9562 15.1386C39.7166 15.2305 40.2461 15.3517 40.5448 15.502C40.8435 15.6524 41.0827 15.8874 41.2624 16.207C41.442 16.5266 41.5319 16.8828 41.5319 17.2755C41.5319 17.6892 41.4399 18.0642 41.2562 18.4004C41.0723 18.7368 40.8352 19.024 40.5448 19.2621C40.2544 19.5003 39.9212 19.6894 39.5454 19.8292C39.1693 19.9692 38.6993 20.0392 38.1353 20.0392L36.0295 20.0016C35.6912 20.0017 35.2482 20.0142 34.701 20.0393ZM37.0762 14.8879L37.4396 14.8942C37.7237 14.8942 37.9869 14.8713 38.2293 14.8253C38.4715 14.7794 38.6679 14.699 38.8184 14.584C38.9688 14.4692 39.095 14.2979 39.1975 14.0702C39.2998 13.8425 39.3511 13.5804 39.3511 13.2837C39.3511 12.9828 39.2926 12.727 39.1757 12.516C39.0586 12.305 38.9062 12.1547 38.7181 12.0648C38.5301 11.975 38.2482 11.9301 37.8721 11.9301C37.6005 11.9301 37.354 11.9468 37.1326 11.9802C37.1075 12.281 37.0929 12.6278 37.0887 13.0205L37.0763 13.9919L37.0762 14.8879ZM37.1012 19.3374C37.239 19.3667 37.498 19.3813 37.8783 19.3813C38.3962 19.3813 38.8152 19.211 39.1347 18.8705C39.4544 18.53 39.6141 18.0422 39.6141 17.4072C39.6141 16.956 39.5305 16.5905 39.3635 16.3105C39.1963 16.0306 38.9749 15.8333 38.6991 15.7183C38.4234 15.6035 38.0432 15.5459 37.5585 15.5459C37.3871 15.5459 37.2263 15.5543 37.076 15.571V18.4287L37.0885 19.1744C37.0886 19.1954 37.0928 19.2497 37.1012 19.3374Z" fill="white"/>
<path d="M42.6563 19.4629L42.8718 19.3622C43.0345 19.2864 43.1752 19.2089 43.2919 19.131C43.3077 18.9686 43.3215 18.7468 43.3335 18.4687C43.3665 17.7565 43.3832 17.2354 43.3832 16.918V14.0979C43.3832 13.9938 43.377 13.5848 43.3645 12.8825C43.3548 12.5213 43.3362 12.3332 43.3224 12.2393C43.2259 12.2222 43.0276 12.1973 42.6345 12.1771L42.2802 12.159V10.8901L44.1155 10.9296C44.3995 10.9338 44.6733 10.9358 44.9347 10.9358C45.5005 10.9358 46.1413 10.9295 46.8395 10.9171C46.8395 10.9171 48.1112 10.8857 48.1123 10.8857C48.2746 10.8857 48.5759 10.894 49.0418 10.9109C49.1164 10.912 49.2072 10.9274 49.3343 10.9604L49.4918 11.0015L49.6699 11.3325L49.5366 12.3427C49.5309 12.4257 49.4504 13.5814 49.4504 13.5814H48.2464L48.2402 13.2144C48.2329 12.7916 48.2188 12.582 48.2082 12.4803C48.152 12.4705 48.0672 12.4582 47.9417 12.445C47.5413 12.4005 47.1461 12.3781 46.7648 12.3781C46.5037 12.3781 46.2349 12.3857 45.9628 12.4007C45.9276 12.8033 45.9098 13.2882 45.9098 13.8471V14.7794C46.0778 14.7863 46.2504 14.7899 46.4264 14.7899C46.5175 14.7899 46.8639 14.7815 47.4563 14.7649C47.5273 14.7635 47.5811 14.7614 47.6216 14.759C47.641 14.6563 47.6627 14.4732 47.67 14.1582L47.6783 13.7934H48.931L48.8992 15.5454L48.931 17.2913H47.6354L47.6385 16.9147C47.6422 16.4871 47.6159 16.3052 47.6003 16.2357C47.5968 16.2351 47.593 16.2343 47.5887 16.2337C47.3221 16.1912 46.9686 16.1695 46.5392 16.1695C46.305 16.1695 46.0946 16.1739 45.9098 16.1824V18.4909C45.9098 18.6385 45.9115 18.7761 45.9147 18.9027C46.1669 18.914 46.4494 18.9197 46.7586 18.9197C47.1986 18.9197 47.6096 18.9053 47.9803 18.877C48.2518 18.8562 48.3951 18.8324 48.4673 18.8166C48.513 18.6696 48.5798 18.3811 48.6642 17.8155L48.7118 17.4973H49.9645L49.9184 17.9119C49.8284 18.7213 49.7828 19.3947 49.7828 19.9135V20.068L49.4993 20.3518L49.3686 20.3661C49.0855 20.3971 48.699 20.4121 48.1875 20.4121L47.1716 20.3932C46.1857 20.3808 45.4957 20.3745 45.123 20.3745C45.0272 20.3745 44.3254 20.3872 43.0371 20.412L42.6566 20.4194V19.4629H42.6563Z" fill="white"/>
<path d="M43.0297 20.0392V19.7009C43.2803 19.584 43.4849 19.4628 43.6437 19.3373C43.6688 19.1618 43.6896 18.8778 43.7063 18.4851C43.7398 17.7666 43.7565 17.2442 43.7565 16.9183V14.0983C43.7565 13.9897 43.7502 13.5823 43.7377 12.8762C43.7252 12.4041 43.6959 12.1159 43.65 12.0114C43.629 11.9697 43.5977 11.9384 43.556 11.9174C43.4431 11.8673 43.1424 11.8296 42.6536 11.8045V11.2719L44.1075 11.3032C44.3958 11.3074 44.6715 11.3095 44.9347 11.3095C45.507 11.3095 46.1441 11.3032 46.8461 11.2906L48.1182 11.2593C48.2687 11.2593 48.5736 11.2677 49.0333 11.2844C49.075 11.2844 49.144 11.2969 49.2401 11.322L49.284 11.4035L49.1649 12.3059C49.1607 12.3686 49.1398 12.6694 49.1023 13.2083H48.6134C48.605 12.7154 48.5861 12.4125 48.557 12.2997C48.5403 12.2413 48.5152 12.1994 48.4818 12.1743C48.4274 12.1367 48.2603 12.1033 47.9804 12.0741C47.5668 12.0282 47.1615 12.0051 46.7646 12.0051C46.3927 12.0051 46.0125 12.0198 45.6241 12.049C45.5655 12.5212 45.5363 13.1206 45.5363 13.8476V15.1323C45.8203 15.1533 46.117 15.1637 46.4262 15.1637C46.5222 15.1637 46.869 15.1554 47.4664 15.1386C47.692 15.1345 47.8246 15.1197 47.8643 15.0947C47.904 15.0696 47.9343 15.0257 47.9552 14.9631C48.0054 14.8043 48.0346 14.5391 48.043 14.1672H48.5505L48.5254 15.5459L48.5505 16.9183H48.0116C48.0157 16.4338 47.9844 16.1349 47.9176 16.0222C47.8675 15.9386 47.7776 15.8865 47.6482 15.8655C47.3598 15.8196 46.99 15.7965 46.5389 15.7965C46.1336 15.7965 45.7994 15.809 45.5362 15.8341V18.4912C45.5362 18.7879 45.5425 19.0427 45.555 19.2557C45.8933 19.2808 46.2944 19.2933 46.7582 19.2933C47.2094 19.2933 47.626 19.2787 48.0083 19.2495C48.3907 19.2204 48.6257 19.1784 48.7134 19.1241C48.7426 19.1074 48.7698 19.0699 48.7949 19.0114C48.8701 18.8109 48.9495 18.4307 49.0331 17.8708H49.5469C49.455 18.698 49.4091 19.379 49.4091 19.9137L49.3277 19.9952C49.0603 20.0245 48.68 20.0391 48.187 20.0391L47.178 20.0203C46.1837 20.0078 45.4986 20.0015 45.1225 20.0015C45.0225 20.0016 44.3248 20.0141 43.0297 20.0392Z" fill="white"/>
<path d="M51.9814 19.1641L52.3424 19.1522C52.8445 19.1356 53.0206 19.1044 53.0728 19.0919C53.0742 19.0887 53.0763 19.0836 53.0785 19.0765C53.0963 19.0001 53.1345 18.7017 53.1345 17.5512V13.7973C53.1345 13.108 53.1317 12.6973 53.1281 12.4537H52.5931C52.1621 12.4537 51.7776 12.4675 51.45 12.4947C51.4029 12.7617 51.3757 13.06 51.3682 13.386L51.3599 13.7509H50.1086L50.1015 13.3848C50.0813 12.3521 50.0734 12.0325 50.0705 11.9494C50.0587 11.7769 50.0386 11.587 50.011 11.385L49.9875 11.2137L50.2869 10.8804L50.4767 10.9006C50.6633 10.9206 50.8656 10.9347 51.0777 10.9426C51.4309 10.9549 52.1245 10.9611 53.1381 10.9611H55.6699C56.7126 10.9611 57.4188 10.9549 57.7688 10.9426C57.9497 10.9348 58.1378 10.9206 58.325 10.9006L58.5022 10.8818L58.8241 11.2031L58.7966 11.3889C58.7611 11.6298 58.7391 11.8426 58.7313 12.0213L58.7306 12.0364L58.73 12.0415C58.7275 12.0921 58.7214 12.3405 58.7066 13.3827L58.7012 13.7508H57.449L57.4397 13.3869C57.4318 13.0784 57.406 12.7802 57.3627 12.5008C57.3625 12.4995 57.3623 12.4984 57.3621 12.4971C57.0372 12.468 56.6538 12.4536 56.215 12.4536H55.6803C55.6764 12.7051 55.6735 13.1203 55.6735 13.7972V17.5512C55.6735 18.7279 55.7136 19.0188 55.7311 19.0893C55.7777 19.1015 55.9496 19.1349 56.4655 19.152L56.8266 19.164V20.4302L56.4358 20.4121C55.6353 20.3749 54.9517 20.356 54.4038 20.356C53.8186 20.356 53.1353 20.3748 52.3727 20.412L51.9812 20.431V19.1641H51.9814Z" fill="white"/>
<path d="M52.3547 20.0393V19.5255C52.8561 19.5089 53.1538 19.4754 53.2477 19.4252C53.3417 19.375 53.4054 19.2915 53.4388 19.1745C53.4847 18.9949 53.5078 18.4538 53.5078 17.5513V13.7975C53.5078 12.774 53.5015 12.2016 53.489 12.0804H52.5929C52.1416 12.0804 51.7446 12.0951 51.4022 12.1243C51.2643 12.1368 51.1849 12.1534 51.164 12.1744C51.1347 12.1995 51.1097 12.2726 51.0888 12.3937C51.0344 12.6862 51.0031 13.0141 50.9948 13.3777H50.4746C50.4579 12.5213 50.4473 12.0388 50.4432 11.93C50.4307 11.7462 50.4098 11.5477 50.3807 11.3347L50.437 11.272C50.6334 11.293 50.8422 11.3076 51.0637 11.3159C51.423 11.3284 52.1144 11.3347 53.1381 11.3347H55.6698C56.7227 11.3347 57.4266 11.3285 57.7819 11.3159C57.9739 11.3076 58.1682 11.2929 58.3647 11.272L58.4273 11.3347C58.3897 11.5896 58.3667 11.813 58.3583 12.0052C58.3541 12.0387 58.3458 12.4962 58.3332 13.3777H57.8131C57.8047 13.0517 57.7776 12.7406 57.7317 12.4439C57.7066 12.2936 57.6794 12.2038 57.6502 12.1744C57.6251 12.1535 57.5582 12.139 57.4496 12.1306C57.107 12.0973 56.6953 12.0805 56.215 12.0805H55.3189C55.3064 12.2267 55.3001 12.7992 55.3001 13.7976V17.5515C55.3001 18.4538 55.323 18.997 55.369 19.1808C55.3982 19.2895 55.4609 19.3699 55.557 19.4221C55.653 19.4744 55.9518 19.5089 56.4532 19.5255V20.0393C55.6426 20.0017 54.9595 19.983 54.4039 19.983C53.8108 19.983 53.1275 20.0017 52.3547 20.0393Z" fill="white"/>
<path d="M67.5581 20.6319C66.6278 20.6319 65.7894 20.4812 65.0662 20.1839C64.4858 19.9391 63.9882 19.6107 63.5841 19.2064C63.1827 18.8051 62.8686 18.3619 62.6505 17.8893C62.3244 17.1877 62.1587 16.4158 62.1587 15.596C62.1587 14.1777 62.6534 13.0007 63.629 12.0977C64.5961 11.2021 65.9645 10.748 67.6959 10.748C68.28 10.748 68.8141 10.7924 69.2839 10.8798C69.7509 10.9667 70.2964 11.1217 70.9053 11.3404L71.0663 11.3981L71.2077 11.7655L71.164 11.8937C71.1056 12.0654 71.0585 12.2894 71.0244 12.5596C70.963 13.0211 70.9239 13.4504 70.9078 13.838L70.8929 14.1958H69.6795L69.6728 13.8293C69.6659 13.4522 69.6504 13.1373 69.6265 12.8905C69.406 12.6801 69.1613 12.5186 68.8976 12.4096C68.5958 12.285 68.1936 12.2218 67.7023 12.2218C66.8191 12.2218 66.1369 12.4881 65.6165 13.0362C65.0983 13.5821 64.8355 14.3695 64.8355 15.3767C64.8355 15.9989 64.9269 16.5451 65.1071 17.0003C65.2853 17.451 65.5238 17.8267 65.8158 18.1169C66.1124 18.4116 66.4106 18.6276 66.7023 18.7588C67.105 18.9362 67.611 19.0267 68.2035 19.0267C68.5971 19.0267 68.9733 18.982 69.3216 18.8939C69.6719 18.8055 70.062 18.6493 70.4808 18.43L70.7134 18.3082L71.2625 18.8134L70.8093 19.8085L70.6966 19.868C70.1499 20.1567 69.6479 20.3584 69.2047 20.4675C68.7616 20.5766 68.2074 20.6319 67.5581 20.6319Z" fill="white"/>
<path d="M70.8106 18.9051L70.5223 19.538C70.0001 19.8137 69.5311 20.0028 69.1154 20.1051C68.6996 20.2074 68.1806 20.2586 67.5581 20.2586C66.6722 20.2586 65.8889 20.1186 65.208 19.8387C64.6731 19.6131 64.2199 19.3144 63.8481 18.9426C63.4762 18.5707 63.19 18.1676 62.9895 17.7331C62.6846 17.0772 62.5321 16.3649 62.5321 15.5961C62.5321 14.28 62.9822 13.2052 63.8826 12.3718C64.7828 11.5383 66.0541 11.1216 67.696 11.1216C68.26 11.1216 68.7665 11.1634 69.2158 11.2469C69.6647 11.3305 70.1861 11.4789 70.7793 11.692L70.8107 11.7734C70.7438 11.9698 70.6916 12.2163 70.654 12.5129C70.5914 12.9851 70.5516 13.4217 70.5349 13.8228H70.0462C70.0378 13.3633 70.0169 12.9955 69.9836 12.7198C69.7035 12.4274 69.3892 12.209 69.0404 12.0648C68.6915 11.9207 68.2454 11.8487 67.7025 11.8487C66.7206 11.8487 65.9351 12.1589 65.3461 12.7793C64.757 13.3997 64.4625 14.2656 64.4625 15.377C64.4625 16.0497 64.5617 16.6367 64.7601 17.138C64.9586 17.6393 65.2229 18.054 65.5529 18.382C65.883 18.71 66.2152 18.9491 66.5493 19.0996C67.0047 19.3001 67.5562 19.4003 68.2038 19.4003C68.63 19.4003 69.033 19.3523 69.4133 19.2562C69.7934 19.1601 70.2071 18.9952 70.6541 18.7611L70.8106 18.9051Z" fill="white"/>
<path d="M76.4007 20.6319C75.4062 20.6319 74.5347 20.4466 73.8104 20.0811C73.0728 19.709 72.4861 19.1526 72.0668 18.4275C71.6509 17.7089 71.4399 16.8111 71.4399 15.7589C71.4399 14.9495 71.5663 14.2295 71.8153 13.6187C72.067 13.002 72.4324 12.47 72.9013 12.0377C73.3675 11.6077 73.8838 11.2925 74.4358 11.1008C75.121 10.8665 75.8743 10.748 76.6763 10.748C77.4746 10.748 78.2113 10.8625 78.8661 11.0882C79.3709 11.2672 79.8213 11.528 80.2083 11.8644C80.5913 12.1976 80.8889 12.5473 81.0927 12.9041C81.2931 13.2545 81.4462 13.6434 81.548 14.0597C81.6487 14.471 81.6997 14.9289 81.6997 15.4205C81.6997 16.2506 81.5536 17.0333 81.2653 17.7475C81.0474 18.2923 80.7235 18.7832 80.3033 19.2058C79.8841 19.6272 79.4003 19.9558 78.8651 20.1826C78.1426 20.481 77.3145 20.6319 76.4007 20.6319ZM76.526 12.209C75.9942 12.209 75.5401 12.3323 75.1762 12.5755C74.8141 12.8175 74.5561 13.1712 74.3878 13.6565C74.208 14.1742 74.117 14.7572 74.117 15.3891C74.117 16.3082 74.2422 17.0724 74.4889 17.6605C74.7246 18.2225 75.0215 18.6192 75.3714 18.8394C75.7267 19.0634 76.1574 19.1769 76.6514 19.1769C77.1128 19.1769 77.5121 19.0714 77.8719 18.8545C78.2139 18.6482 78.4909 18.2815 78.695 17.7648C78.9126 17.2141 79.0229 16.5286 79.0229 15.7275C79.0229 15.1774 78.9627 14.6696 78.8441 14.218C78.7285 13.7787 78.5625 13.4023 78.3509 13.0993C78.1467 12.8074 77.9051 12.5828 77.6328 12.4318C77.3663 12.284 76.9938 12.209 76.526 12.209Z" fill="white"/>
<path d="M71.8134 15.7586C71.8134 14.9941 71.9294 14.3277 72.1611 13.7596C72.393 13.1914 72.724 12.7088 73.1544 12.3119C73.5847 11.915 74.0526 11.6289 74.5582 11.4533C75.2057 11.2319 75.9119 11.1211 76.6764 11.1211C77.4368 11.1211 78.1261 11.2277 78.7446 11.4407C79.2041 11.6036 79.6103 11.8387 79.9635 12.1458C80.3165 12.4528 80.5849 12.7673 80.7688 13.0888C80.9526 13.4107 81.0915 13.7635 81.1855 14.148C81.2795 14.5324 81.3265 14.9564 81.3265 15.4201C81.3265 16.2056 81.1908 16.9347 80.9191 17.6073C80.7186 18.1087 80.425 18.5535 80.0386 18.9422C79.6521 19.3307 79.2124 19.6294 78.7195 19.8383C78.0426 20.1182 77.2697 20.2582 76.4006 20.2582C75.4606 20.2582 74.6531 20.088 73.9785 19.7474C73.3038 19.407 72.7742 18.9046 72.3899 18.2403C72.0054 17.576 71.8134 16.7488 71.8134 15.7586ZM73.7436 15.3889C73.7436 16.3625 73.8772 17.1677 74.1445 17.8048C74.4119 18.442 74.7545 18.8921 75.1723 19.1553C75.5901 19.4185 76.0831 19.5501 76.6513 19.5501C77.1777 19.5501 77.6487 19.4247 78.0645 19.174C78.4801 18.9233 78.806 18.4993 79.0421 17.9018C79.2781 17.3044 79.3962 16.5796 79.3962 15.7273C79.3962 15.1424 79.3325 14.6077 79.2051 14.123C79.0776 13.6384 78.8948 13.2258 78.6567 12.8852C78.4185 12.5448 78.1376 12.2847 77.8138 12.1051C77.4899 11.9255 77.0607 11.8356 76.526 11.8356C75.916 11.8356 75.3969 11.9788 74.9686 12.2649C74.5404 12.5511 74.2292 12.9741 74.0349 13.534C73.8406 14.0939 73.7436 14.7121 73.7436 15.3889Z" fill="white"/>
<path d="M82.313 19.4721L82.5408 19.3757C82.6043 19.3488 82.7274 19.2885 82.9526 19.1542C82.9658 19.1468 82.977 19.1402 82.9865 19.1343C82.9962 19.0236 83.0115 18.7628 83.0274 18.1523C83.044 17.5162 83.0524 16.7425 83.0524 15.8527C83.0524 14.5431 83.0482 13.7242 83.04 13.4187C83.0247 12.6979 83.003 12.389 82.9882 12.2576C82.8943 12.2397 82.6895 12.2127 82.2645 12.1963L81.9055 12.1824V10.8804L82.2964 10.8989C82.818 10.9235 83.4235 10.9359 84.0961 10.9359C84.8492 10.9359 85.572 10.9233 86.2446 10.8986L86.6316 10.8844V12.1804L86.2749 12.1963C85.9191 12.212 85.7335 12.2352 85.6406 12.2519C85.6322 12.3431 85.6202 12.5173 85.6067 12.8477C85.5882 13.2985 85.5789 13.8795 85.5789 14.5745C85.5789 14.6496 85.5809 15.2529 85.5851 16.3843C85.5892 16.981 85.5922 17.5735 85.5945 18.1609C85.5956 18.4824 85.5969 18.7107 85.5984 18.8724C85.9788 18.8874 86.2506 18.895 86.4088 18.895C87.0215 18.895 87.5605 18.8586 88.0106 18.7868C88.0541 18.7804 88.0882 18.7745 88.1146 18.7695C88.1174 18.7608 88.1204 18.7513 88.1236 18.7407C88.2042 18.4339 88.2841 18.0773 88.361 17.6806L88.4196 17.3784H89.6632L89.6188 17.7917C89.6039 17.9304 89.6021 17.9629 89.602 17.9662V17.9892L89.5993 18.0044L89.4435 19.2631C89.4029 19.7434 89.3912 19.9062 89.3885 19.9581L89.3746 20.2271L89.1151 20.2988C88.9746 20.3376 88.8318 20.3646 88.6906 20.3791C88.4161 20.4018 88.0186 20.4124 87.4678 20.4124C87.3873 20.4124 86.8889 20.4019 85.9864 20.381C85.2882 20.3642 84.8196 20.356 84.5537 20.356C84.151 20.356 83.5284 20.3748 82.703 20.4121L82.3128 20.4296V19.4721H82.313Z" fill="white"/>
<path d="M82.6864 20.039V19.7195C82.7948 19.6735 82.9473 19.592 83.1438 19.475C83.2316 19.4248 83.2879 19.3831 83.313 19.3496C83.3297 19.3288 83.3402 19.3058 83.3444 19.2807C83.3653 19.1763 83.3841 18.8034 83.4008 18.1621C83.4174 17.5208 83.4259 16.751 83.4259 15.8528C83.4259 14.5326 83.4217 13.7178 83.4134 13.4086C83.3967 12.6232 83.3695 12.174 83.3319 12.0612C83.3152 12.011 83.2838 11.9735 83.2379 11.9484C83.1418 11.8857 82.8221 11.844 82.2791 11.823V11.2715C82.8095 11.2966 83.4154 11.3091 84.0964 11.3091C84.8568 11.3091 85.5775 11.2965 86.2586 11.2715V11.823C85.7864 11.844 85.4981 11.8816 85.3937 11.9358C85.3477 11.9609 85.3143 12.0016 85.2935 12.0581C85.2725 12.1144 85.2528 12.3724 85.234 12.832C85.2153 13.2916 85.2058 13.8723 85.2058 14.5742C85.2058 14.6495 85.2079 15.2532 85.2121 16.3853C85.2162 16.9828 85.2193 17.575 85.2214 18.162C85.2235 18.749 85.2266 19.1052 85.2307 19.2304C85.8074 19.2555 86.2001 19.268 86.409 19.268C87.044 19.268 87.5976 19.2305 88.0697 19.1553C88.241 19.1302 88.3433 19.1031 88.3768 19.0739C88.4102 19.0447 88.4457 18.9673 88.4833 18.842C88.5668 18.5245 88.6483 18.1611 88.7277 17.7515H89.2478C89.2353 17.8685 89.229 17.9375 89.229 17.9583L89.0723 19.2242C89.0388 19.6212 89.02 19.8592 89.0159 19.9386C88.8948 19.9721 88.7736 19.995 88.6526 20.0076C88.3977 20.0285 88.0029 20.0388 87.4681 20.0388C87.3929 20.0388 86.9019 20.0285 85.9954 20.0076C85.306 19.9909 84.8255 19.9825 84.554 19.9825C84.1443 19.9827 83.5219 20.0014 82.6864 20.039Z" fill="white"/>
<path d="M90.1529 19.472L90.3807 19.3757C90.4443 19.3488 90.5672 19.2885 90.7925 19.1542C90.8058 19.1468 90.817 19.1402 90.8265 19.1343C90.8361 19.0236 90.8514 18.7627 90.8673 18.1524C90.8839 17.5162 90.8923 16.7425 90.8923 15.8527C90.8923 14.5431 90.8881 13.7242 90.8799 13.4187C90.8646 12.6978 90.8428 12.389 90.8281 12.2576C90.7343 12.2397 90.5293 12.2127 90.1044 12.1963L89.7454 12.1824V10.8804L90.1363 10.8989C90.6579 10.9235 91.2634 10.9359 91.9361 10.9359C92.6891 10.9359 93.4119 10.9233 94.0844 10.8986L94.4715 10.8844V12.1804L94.1148 12.1963C93.7592 12.212 93.5736 12.2352 93.4807 12.2519C93.4722 12.3429 93.46 12.5174 93.4466 12.8477C93.4281 13.3007 93.4188 13.8816 93.4188 14.5745C93.4188 14.6496 93.4207 15.2529 93.4249 16.3843C93.429 16.981 93.4322 17.5735 93.4344 18.1609C93.4356 18.4601 93.4368 18.6964 93.4384 18.8724C93.8186 18.8874 94.0904 18.895 94.2486 18.895C94.8614 18.895 95.4004 18.8586 95.8506 18.7868C95.894 18.7804 95.928 18.7745 95.9544 18.7695C95.9572 18.7608 95.9602 18.7513 95.9635 18.7407C96.044 18.4339 96.1239 18.0773 96.2009 17.6806L96.2595 17.3784H97.5032L97.4588 17.7917C97.4438 17.9304 97.4421 17.9629 97.442 17.9662V17.9892L97.4393 18.0044L97.2835 19.2631C97.2429 19.7434 97.2311 19.9062 97.2285 19.9581L97.2146 20.2271L96.955 20.2988C96.8144 20.3376 96.6716 20.3646 96.5304 20.3791C96.2559 20.4018 95.8585 20.4124 95.3076 20.4124C95.2274 20.4124 94.7289 20.4019 93.8263 20.381C93.1282 20.3642 92.6596 20.356 92.3936 20.356C91.991 20.356 91.3682 20.3748 90.5429 20.4121L90.1527 20.4296V19.472H90.1529Z" fill="white"/>
<path d="M90.5261 20.039V19.7195C90.6348 19.6735 90.7872 19.592 90.9837 19.475C91.0714 19.4248 91.1278 19.3831 91.1529 19.3496C91.1695 19.3288 91.1801 19.3058 91.1843 19.2807C91.2051 19.1763 91.2239 18.8034 91.2405 18.1621C91.2572 17.5208 91.2657 16.751 91.2657 15.8528C91.2657 14.5326 91.2615 13.7178 91.2531 13.4086C91.2364 12.6232 91.2094 12.174 91.1718 12.0612C91.1551 12.011 91.1237 11.9735 91.0778 11.9484C90.9816 11.8857 90.6619 11.844 90.1188 11.823V11.2715C90.6493 11.2966 91.2552 11.3091 91.9363 11.3091C92.6966 11.3091 93.4174 11.2965 94.0983 11.2715V11.823C93.6262 11.844 93.3379 11.8816 93.2336 11.9358C93.1876 11.9609 93.1542 12.0016 93.1333 12.0581C93.1123 12.1144 93.0925 12.3724 93.0738 12.832C93.0551 13.2916 93.0456 13.8723 93.0456 14.5742C93.0456 14.6495 93.0476 15.2532 93.0518 16.3853C93.056 16.9828 93.0591 17.575 93.0613 18.162C93.0633 18.749 93.0664 19.1052 93.0706 19.2304C93.6472 19.2555 94.0398 19.268 94.2488 19.268C94.8839 19.268 95.4374 19.2305 95.9096 19.1553C96.0808 19.1302 96.1831 19.1031 96.2165 19.0739C96.25 19.0447 96.2855 18.9673 96.323 18.842C96.4066 18.5245 96.4881 18.1611 96.5675 17.7515H97.0877C97.0751 17.8685 97.0689 17.9375 97.0689 17.9583L96.9122 19.2242C96.8787 19.6212 96.8599 19.8592 96.8558 19.9386C96.7346 19.9721 96.6134 19.995 96.4923 20.0076C96.2374 20.0285 95.8426 20.0388 95.3078 20.0388C95.2326 20.0388 94.7417 20.0285 93.835 20.0076C93.1457 19.9909 92.6652 19.9825 92.3937 19.9825C91.9842 19.9827 91.3617 20.0014 90.5261 20.039Z" fill="white"/>
<path d="M97.9049 19.4629L98.1204 19.3622C98.2831 19.2864 98.4238 19.2089 98.5405 19.131C98.5563 18.9686 98.5701 18.7469 98.5821 18.4687C98.6151 17.7565 98.6318 17.2354 98.6318 16.918V14.0979C98.6318 13.9938 98.6256 13.5848 98.6132 12.8825C98.6035 12.5213 98.5848 12.3332 98.571 12.2393C98.4747 12.2222 98.2763 12.1973 97.8832 12.1771L97.529 12.159V10.8901L99.3642 10.9296C99.6481 10.9338 99.9219 10.9358 100.183 10.9358C100.749 10.9358 101.39 10.9295 102.088 10.9171C102.088 10.9171 103.36 10.8857 103.361 10.8857C103.523 10.8857 103.825 10.894 104.29 10.9109C104.365 10.912 104.456 10.9274 104.583 10.9604L104.74 11.0015L104.919 11.3325L104.785 12.3425C104.78 12.4261 104.699 13.5813 104.699 13.5813H103.495L103.489 13.2143C103.482 12.7916 103.467 12.582 103.457 12.4802C103.401 12.4704 103.316 12.4581 103.19 12.4449C102.79 12.4004 102.395 12.378 102.013 12.378C101.752 12.378 101.484 12.3856 101.211 12.4006C101.176 12.8034 101.159 13.2882 101.159 13.8471V14.7793C101.326 14.7862 101.499 14.7897 101.675 14.7897C101.766 14.7897 102.113 14.7814 102.705 14.7648C102.776 14.7634 102.83 14.7613 102.87 14.7589C102.89 14.6561 102.911 14.4731 102.919 14.1582L102.927 13.7933H104.18L104.148 15.5453L104.18 17.2912H102.884L102.887 16.9147C102.891 16.4868 102.864 16.305 102.849 16.2357C102.845 16.235 102.842 16.2342 102.837 16.2336C102.571 16.1911 102.217 16.1695 101.788 16.1695C101.554 16.1695 101.343 16.1738 101.159 16.1824V18.4909C101.159 18.6386 101.16 18.7762 101.163 18.9026C101.416 18.9139 101.698 18.9196 102.007 18.9196C102.447 18.9196 102.858 18.9052 103.229 18.8769C103.5 18.8562 103.644 18.8324 103.716 18.8165C103.762 18.6695 103.828 18.381 103.913 17.8153L103.96 17.4972H105.213L105.167 17.9118C105.077 18.7212 105.031 19.3946 105.031 19.9134V20.0678L104.748 20.3517L104.617 20.366C104.334 20.397 103.948 20.412 103.436 20.412L102.42 20.3931C101.434 20.3807 100.744 20.3744 100.372 20.3744C100.276 20.3744 99.574 20.3871 98.2857 20.4119L97.9052 20.4193V19.4629H97.9049Z" fill="white"/>
<path d="M98.2783 20.0392V19.7009C98.5289 19.584 98.7336 19.4628 98.8923 19.3373C98.9174 19.1618 98.9382 18.8778 98.955 18.4851C98.9884 17.7666 99.0051 17.2442 99.0051 16.9183V14.0983C99.0051 13.9897 98.9988 13.5823 98.9863 12.8762C98.9738 12.4041 98.9445 12.1159 98.8986 12.0114C98.8776 11.9697 98.8463 11.9384 98.8046 11.9174C98.6917 11.8673 98.391 11.8296 97.9022 11.8045V11.2719L99.3561 11.3032C99.6444 11.3074 99.9201 11.3095 100.183 11.3095C100.756 11.3095 101.393 11.3032 102.095 11.2906L103.367 11.2593C103.517 11.2593 103.822 11.2677 104.282 11.2844C104.324 11.2844 104.393 11.2969 104.489 11.322L104.533 11.4035L104.414 12.3059C104.409 12.3686 104.388 12.6694 104.351 13.2083H103.862C103.854 12.7154 103.835 12.4125 103.806 12.2997C103.789 12.2413 103.764 12.1994 103.73 12.1743C103.676 12.1367 103.509 12.1033 103.229 12.0741C102.815 12.0282 102.41 12.0051 102.013 12.0051C101.641 12.0051 101.261 12.0198 100.873 12.049C100.814 12.5212 100.785 13.1206 100.785 13.8476V15.1323C101.069 15.1533 101.366 15.1637 101.675 15.1637C101.771 15.1637 102.118 15.1554 102.715 15.1386C102.941 15.1345 103.073 15.1197 103.113 15.0947C103.153 15.0696 103.183 15.0257 103.204 14.9631C103.254 14.8043 103.283 14.5391 103.292 14.1672H103.799L103.774 15.5459L103.799 16.9183H103.26C103.264 16.4338 103.233 16.1349 103.166 16.0222C103.116 15.9386 103.026 15.8865 102.897 15.8655C102.608 15.8196 102.239 15.7965 101.788 15.7965C101.382 15.7965 101.048 15.809 100.785 15.8341V18.4912C100.785 18.7879 100.791 19.0427 100.804 19.2557C101.142 19.2808 101.543 19.2933 102.007 19.2933C102.458 19.2933 102.875 19.2787 103.257 19.2495C103.639 19.2204 103.874 19.1784 103.962 19.1241C103.991 19.1074 104.018 19.0699 104.044 19.0114C104.119 18.8109 104.198 18.4307 104.282 17.8708H104.796C104.704 18.698 104.658 19.379 104.658 19.9137L104.576 19.9952C104.309 20.0245 103.929 20.0391 103.436 20.0391L102.427 20.0203C101.432 20.0078 100.747 20.0015 100.371 20.0015C100.271 20.0016 99.5734 20.0141 98.2783 20.0392Z" fill="white"/>
<path d="M111.038 20.6319C110.107 20.6319 109.269 20.4812 108.546 20.1839C107.965 19.9392 107.468 19.6107 107.064 19.2064C106.662 18.8053 106.348 18.3621 106.13 17.8893C105.804 17.1878 105.638 16.4159 105.638 15.596C105.638 14.1779 106.133 13.0008 107.108 12.0977C108.076 11.2021 109.444 10.748 111.175 10.748C111.759 10.748 112.294 10.7924 112.763 10.8798C113.23 10.9667 113.776 11.1216 114.385 11.3404L114.546 11.3982L114.687 11.7656L114.644 11.8935C114.585 12.0653 114.538 12.2894 114.504 12.5598C114.443 13.0214 114.403 13.4508 114.387 13.838L114.372 14.1958H113.159L113.152 13.8294C113.145 13.4515 113.13 13.1365 113.106 12.8905C112.886 12.6802 112.641 12.5186 112.377 12.4096C112.075 12.285 111.673 12.2218 111.182 12.2218C110.299 12.2218 109.616 12.4881 109.096 13.0361C108.578 13.5821 108.315 14.3695 108.315 15.3767C108.315 15.9988 108.406 16.5451 108.587 17.0003C108.765 17.4511 109.003 17.8268 109.295 18.1168C109.592 18.4115 109.89 18.6275 110.182 18.7588C110.584 18.9362 111.091 19.0267 111.683 19.0267C112.077 19.0267 112.453 18.982 112.801 18.8939C113.151 18.8055 113.542 18.6493 113.96 18.43L114.193 18.3081L114.742 18.8134L114.289 19.8085L114.176 19.868C113.63 20.1567 113.128 20.3583 112.684 20.4675C112.241 20.5765 111.687 20.6319 111.038 20.6319Z" fill="white"/>
<path d="M114.29 18.9051L114.002 19.538C113.48 19.8137 113.011 20.0028 112.595 20.1051C112.179 20.2074 111.66 20.2586 111.038 20.2586C110.152 20.2586 109.369 20.1186 108.688 19.8387C108.153 19.6131 107.699 19.3144 107.328 18.9426C106.956 18.5707 106.67 18.1676 106.469 17.7331C106.164 17.0772 106.012 16.3649 106.012 15.5961C106.012 14.28 106.462 13.2052 107.362 12.3718C108.262 11.5383 109.534 11.1216 111.176 11.1216C111.74 11.1216 112.246 11.1634 112.695 11.2469C113.144 11.3305 113.666 11.4789 114.259 11.692L114.29 11.7734C114.223 11.9698 114.171 12.2163 114.134 12.5129C114.071 12.9851 114.031 13.4217 114.014 13.8228H113.526C113.517 13.3633 113.496 12.9955 113.463 12.7198C113.183 12.4274 112.869 12.209 112.52 12.0648C112.171 11.9207 111.725 11.8487 111.182 11.8487C110.2 11.8487 109.415 12.1589 108.826 12.7793C108.237 13.3997 107.942 14.2656 107.942 15.377C107.942 16.0497 108.041 16.6367 108.24 17.138C108.438 17.6393 108.702 18.054 109.032 18.382C109.362 18.71 109.695 18.9491 110.029 19.0996C110.484 19.3001 111.036 19.4003 111.683 19.4003C112.109 19.4003 112.512 19.3523 112.893 19.2562C113.273 19.1601 113.687 18.9952 114.134 18.7611L114.29 18.9051Z" fill="white"/>
<path d="M116.499 19.1641L116.86 19.1522C117.362 19.1356 117.538 19.1045 117.59 19.0919C117.591 19.0887 117.594 19.0837 117.596 19.0766C117.614 19.0003 117.652 18.7021 117.652 17.5512V13.7973C117.652 13.104 117.649 12.6948 117.645 12.4537H117.11C116.679 12.4537 116.295 12.4675 115.967 12.4947C115.92 12.7611 115.893 13.0594 115.885 13.3861L115.877 13.7509H114.626L114.619 13.3848C114.599 12.3544 114.591 12.0337 114.588 11.9496C114.576 11.7765 114.556 11.5866 114.528 11.385L114.505 11.2135L114.804 10.8804L114.994 10.9006C115.181 10.9206 115.383 10.9347 115.595 10.9426C115.948 10.9549 116.642 10.9611 117.655 10.9611H120.187C121.23 10.9611 121.936 10.9549 122.286 10.9426C122.467 10.9348 122.655 10.9206 122.842 10.9006L123.02 10.8817L123.341 11.2032L123.314 11.3888C123.278 11.6309 123.256 11.8436 123.249 12.0212L123.248 12.0363L123.247 12.0416C123.245 12.0927 123.238 12.3418 123.224 13.3827L123.219 13.7508H121.966L121.957 13.387C121.949 13.0782 121.923 12.78 121.88 12.5008C121.88 12.4995 121.88 12.4984 121.879 12.4971C121.554 12.468 121.171 12.4536 120.732 12.4536H120.197C120.194 12.705 120.191 13.1202 120.191 13.7972V17.5512C120.191 18.728 120.231 19.0188 120.248 19.0893C120.295 19.1014 120.466 19.1349 120.983 19.152L121.344 19.164V20.4302L120.953 20.4121C120.152 20.3749 119.469 20.356 118.921 20.356C118.336 20.356 117.652 20.3748 116.89 20.412L116.498 20.431V19.1641H116.499Z" fill="white"/>
<path d="M116.872 20.0393V19.5255C117.373 19.5089 117.671 19.4754 117.765 19.4252C117.859 19.375 117.923 19.2915 117.956 19.1745C118.002 18.9949 118.025 18.4538 118.025 17.5513V13.7975C118.025 12.774 118.019 12.2016 118.006 12.0804H117.11C116.659 12.0804 116.262 12.0951 115.92 12.1243C115.782 12.1368 115.702 12.1534 115.681 12.1744C115.652 12.1995 115.627 12.2726 115.606 12.3937C115.552 12.6862 115.52 13.0141 115.512 13.3777H114.992C114.975 12.5213 114.965 12.0388 114.961 11.93C114.948 11.7462 114.927 11.5477 114.898 11.3347L114.954 11.272C115.151 11.293 115.36 11.3076 115.581 11.3159C115.94 11.3284 116.632 11.3347 117.655 11.3347H120.187C121.24 11.3347 121.944 11.3285 122.299 11.3159C122.491 11.3076 122.686 11.2929 122.882 11.272L122.945 11.3347C122.907 11.5896 122.884 11.813 122.876 12.0052C122.871 12.0387 122.863 12.4962 122.851 13.3777H122.33C122.322 13.0517 122.295 12.7406 122.249 12.4439C122.224 12.2936 122.197 12.2038 122.168 12.1744C122.142 12.1535 122.076 12.139 121.967 12.1306C121.624 12.0973 121.213 12.0805 120.732 12.0805H119.836C119.824 12.2267 119.818 12.7992 119.818 13.7976V17.5515C119.818 18.4538 119.84 18.997 119.886 19.1808C119.916 19.2895 119.978 19.3699 120.074 19.4221C120.17 19.4744 120.469 19.5089 120.971 19.5255V20.0393C120.16 20.0017 119.477 19.983 118.921 19.983C118.328 19.983 117.645 20.0017 116.872 20.0393Z" fill="white"/>
<path d="M123.411 19.1284L123.77 19.1147C124.176 19.0991 124.349 19.0879 124.422 19.0816C124.429 19.0039 124.439 18.8752 124.452 18.6628C124.485 18.1692 124.501 17.7094 124.501 17.2944V14.6749C124.501 13.8517 124.497 13.3164 124.489 13.0837C124.469 12.5815 124.449 12.3436 124.435 12.2323C124.359 12.2248 124.178 12.2116 123.771 12.1965L123.411 12.1833V10.8804L123.802 10.8991C124.32 10.9237 124.923 10.9361 125.595 10.9361C126.353 10.9361 127.078 10.9235 127.75 10.8988L128.137 10.8846V12.1859L127.775 12.1965C127.301 12.2105 127.151 12.2259 127.108 12.2321C127.101 12.274 127.091 12.3486 127.083 12.4733C127.078 12.5481 127.07 12.7069 127.065 13.0693C127.044 14.4042 127.04 14.6796 127.04 14.7249V17.2505L127.059 18.3913C127.059 18.8208 127.081 19.0064 127.094 19.0809C127.096 19.0814 127.099 19.082 127.101 19.0826C127.118 19.0857 127.232 19.1037 127.771 19.1147L128.137 19.1221V20.4268L127.75 20.4125C127.076 20.3877 126.347 20.3752 125.583 20.3752C124.92 20.3752 124.321 20.3877 123.802 20.4123L123.411 20.431V19.1284H123.411Z" fill="white"/>
<path d="M127.764 11.272V11.8235C127.342 11.836 127.091 11.8517 127.012 11.8705C126.932 11.8893 126.876 11.9123 126.843 11.9394C126.809 11.9667 126.786 12.0011 126.774 12.0429C126.744 12.114 126.724 12.2497 126.711 12.4502C126.703 12.5589 126.696 12.7635 126.692 13.0643C126.675 14.0922 126.667 14.6457 126.667 14.7251V17.2507L126.686 18.3975C126.686 18.8278 126.707 19.1078 126.749 19.2373C126.765 19.2958 126.793 19.3407 126.833 19.3721C126.873 19.4033 126.935 19.4285 127.021 19.4473C127.107 19.4661 127.354 19.4797 127.764 19.4881V20.0395C127.083 20.0144 126.356 20.0019 125.583 20.0019C124.91 20.0019 124.311 20.0144 123.784 20.0395V19.4881C124.219 19.4714 124.469 19.4567 124.536 19.4442C124.624 19.4276 124.684 19.4045 124.715 19.3752C124.746 19.3461 124.766 19.3126 124.774 19.275C124.787 19.2249 124.804 19.0286 124.824 18.6859C124.858 18.1845 124.875 17.7208 124.875 17.2945V14.675C124.875 13.8437 124.87 13.3089 124.862 13.0708C124.841 12.5402 124.816 12.2082 124.787 12.0744C124.774 12.0201 124.754 11.9783 124.727 11.949C124.7 11.9199 124.65 11.8957 124.577 11.877C124.504 11.8581 124.24 11.8404 123.784 11.8237V11.2722C124.311 11.2973 124.914 11.3098 125.595 11.3098C126.36 11.3096 127.083 11.297 127.764 11.272Z" fill="white"/>
<path d="M132.576 20.4561L132.481 20.2229C132.125 19.3428 131.782 18.5023 131.461 17.7248L130.572 15.602C129.88 13.9498 129.45 12.9552 129.295 12.6458C129.163 12.3845 129.091 12.284 129.063 12.2497C129.015 12.2344 128.863 12.1984 128.476 12.19L128.111 12.1822V10.8872L128.495 10.8984C129.489 10.9274 130.101 10.9421 130.314 10.9421L132.938 10.8908V12.1856L132.569 12.1901C132.252 12.1938 132.066 12.2112 131.957 12.2287C131.998 12.3626 132.092 12.6343 132.314 13.1721C132.557 13.7607 132.569 13.796 132.577 13.8194C132.586 13.8474 132.597 13.8804 132.611 13.9191L133.846 16.9299L134.894 14.3341C134.914 14.2865 134.995 14.0781 135.335 13.1597C135.537 12.6202 135.622 12.3588 135.657 12.2321C135.391 12.2078 135.171 12.1938 134.994 12.1899L134.629 12.1818V10.8892L136.593 10.9355L138.321 10.8876V12.1569L137.982 12.1883C137.67 12.2173 137.525 12.2446 137.463 12.2597C137.404 12.3499 137.242 12.6365 136.876 13.5146L136.429 14.5579L135.584 16.5735C134.871 18.2822 134.382 19.5052 134.132 20.208L134.043 20.4559H132.576V20.4561Z" fill="white"/>
<path d="M132.827 20.0832C132.472 19.2059 132.132 18.3723 131.806 17.5827L130.916 15.4582C130.218 13.7912 129.789 12.7981 129.628 12.4784C129.467 12.1588 129.345 11.9761 129.262 11.93C129.136 11.8632 128.877 11.8256 128.485 11.8172V11.272C129.487 11.3013 130.097 11.3159 130.314 11.3159L132.564 11.272V11.8172C132.213 11.8214 131.959 11.8423 131.8 11.8799C131.708 11.9008 131.644 11.9311 131.609 11.9708C131.573 12.0106 131.555 12.0617 131.555 12.1244C131.555 12.2497 131.693 12.6467 131.969 13.315C132.128 13.6995 132.212 13.9073 132.223 13.9386C132.233 13.97 132.247 14.0086 132.263 14.0545L133.849 17.9212L135.24 14.4744C135.274 14.395 135.422 14.0002 135.685 13.2899C135.873 12.7886 135.988 12.4523 136.03 12.281C136.038 12.2308 136.042 12.1806 136.042 12.1305C136.042 12.0596 136.031 12.0063 136.008 11.9707C135.985 11.9353 135.955 11.9091 135.917 11.8924C135.888 11.8799 135.813 11.8694 135.691 11.861C135.42 11.8359 135.19 11.8214 135.002 11.8172V11.272L136.594 11.3096L137.948 11.272V11.8172C137.542 11.8548 137.306 11.8986 137.239 11.9488C137.126 12.0365 136.89 12.5108 136.531 13.3714L136.086 14.4118L135.24 16.4297C134.522 18.151 134.035 19.3689 133.78 20.0833L132.827 20.0832Z" fill="white"/>
<path d="M138.552 19.4629L138.767 19.3622C138.93 19.2865 139.071 19.2089 139.187 19.131C139.203 18.9685 139.217 18.7469 139.229 18.4687C139.262 17.7565 139.279 17.2354 139.279 16.918V14.0979C139.279 13.992 139.273 13.5831 139.26 12.8826C139.25 12.5214 139.232 12.3333 139.218 12.2393C139.122 12.2222 138.923 12.1973 138.53 12.1771L138.176 12.159V10.8901L140.011 10.9296C140.295 10.9338 140.569 10.9358 140.83 10.9358C141.396 10.9358 142.037 10.9295 142.735 10.9171C142.735 10.9171 144.007 10.8857 144.008 10.8857C144.17 10.8857 144.471 10.894 144.937 10.9109C145.012 10.912 145.103 10.9274 145.23 10.9604L145.387 11.0014L145.566 11.3322L145.432 12.3425C145.426 12.4261 145.346 13.5813 145.346 13.5813H144.142L144.136 13.2143C144.128 12.7915 144.114 12.5819 144.104 12.4802C144.048 12.4704 143.963 12.4581 143.837 12.4449C143.437 12.4004 143.042 12.378 142.66 12.378C142.399 12.378 142.131 12.3856 141.858 12.4006C141.823 12.8032 141.805 13.2881 141.805 13.8471V14.7793C141.973 14.7862 142.146 14.7897 142.322 14.7897C142.413 14.7897 142.76 14.7814 143.352 14.7648C143.423 14.7634 143.477 14.7613 143.517 14.7589C143.537 14.6562 143.558 14.4732 143.566 14.1581L143.574 13.7933H144.827L144.795 15.5453L144.827 17.2912H143.531L143.534 16.9147C143.538 16.4867 143.511 16.3049 143.496 16.2356C143.492 16.235 143.489 16.2342 143.484 16.2336C143.218 16.1911 142.864 16.1695 142.435 16.1695C142.201 16.1695 141.99 16.1738 141.805 16.1824V18.4909C141.805 18.6382 141.807 18.7758 141.81 18.9026C142.062 18.9139 142.345 18.9196 142.654 18.9196C143.094 18.9196 143.505 18.9052 143.876 18.8769C144.147 18.8562 144.291 18.8324 144.363 18.8165C144.409 18.6694 144.475 18.3809 144.56 17.8153L144.607 17.4972H145.86L145.814 17.9118C145.724 18.7212 145.678 19.3946 145.678 19.9134V20.0679L145.395 20.3517L145.264 20.366C144.981 20.397 144.595 20.412 144.083 20.412L143.067 20.3931C142.081 20.3807 141.391 20.3744 141.019 20.3744C140.923 20.3744 140.221 20.3871 138.933 20.4119L138.552 20.4193V19.4629H138.552Z" fill="white"/>
<path d="M138.925 20.0392V19.7009C139.176 19.584 139.38 19.4628 139.539 19.3373C139.564 19.1618 139.585 18.8778 139.602 18.4851C139.635 17.7666 139.652 17.2442 139.652 16.9183V14.0983C139.652 13.9897 139.646 13.5823 139.633 12.8762C139.621 12.4041 139.591 12.1159 139.545 12.0114C139.524 11.9697 139.493 11.9384 139.451 11.9174C139.339 11.8673 139.038 11.8296 138.549 11.8045V11.2719L140.003 11.3032C140.291 11.3074 140.567 11.3095 140.83 11.3095C141.402 11.3095 142.04 11.3032 142.742 11.2906L144.014 11.2593C144.164 11.2593 144.469 11.2677 144.929 11.2844C144.97 11.2844 145.039 11.2969 145.136 11.322L145.179 11.4035L145.06 12.3059C145.056 12.3686 145.035 12.6694 144.998 13.2083H144.509C144.5 12.7154 144.482 12.4125 144.452 12.2997C144.436 12.2413 144.411 12.1994 144.377 12.1743C144.323 12.1367 144.156 12.1033 143.876 12.0741C143.462 12.0282 143.057 12.0051 142.66 12.0051C142.288 12.0051 141.908 12.0198 141.52 12.049C141.461 12.5212 141.432 13.1206 141.432 13.8476V15.1323C141.716 15.1533 142.012 15.1637 142.322 15.1637C142.418 15.1637 142.764 15.1554 143.362 15.1386C143.588 15.1345 143.72 15.1197 143.76 15.0947C143.799 15.0696 143.83 15.0257 143.851 14.9631C143.901 14.8043 143.93 14.5391 143.938 14.1672H144.446L144.421 15.5459L144.446 16.9183H143.907C143.911 16.4338 143.88 16.1349 143.813 16.0222C143.763 15.9386 143.673 15.8865 143.544 15.8655C143.255 15.8196 142.886 15.7965 142.434 15.7965C142.029 15.7965 141.695 15.809 141.432 15.8341V18.4912C141.432 18.7879 141.438 19.0427 141.45 19.2557C141.789 19.2808 142.19 19.2933 142.654 19.2933C143.105 19.2933 143.522 19.2787 143.904 19.2495C144.286 19.2204 144.521 19.1784 144.609 19.1241C144.638 19.1074 144.665 19.0699 144.69 19.0114C144.766 18.8109 144.845 18.4307 144.929 17.8708H145.442C145.35 18.698 145.305 19.379 145.305 19.9137L145.223 19.9952C144.956 20.0245 144.575 20.0391 144.082 20.0391L143.073 20.0203C142.079 20.0078 141.394 20.0015 141.018 20.0015C140.918 20.0016 140.22 20.0141 138.925 20.0392Z" fill="white"/>
<path d="M34.701 20.0393V19.7447C34.9224 19.6153 35.1062 19.4858 35.2525 19.3562C35.2776 19.1515 35.2942 18.9009 35.3026 18.6042C35.3193 17.9942 35.3277 16.885 35.3277 15.2765C35.3277 14.8462 35.3173 14.1757 35.2964 13.2648C35.2839 12.5629 35.2608 12.1618 35.2274 12.0616C35.2064 11.9989 35.1751 11.955 35.1334 11.93C35.0457 11.8716 34.7323 11.8256 34.1934 11.792V11.2719C34.2853 11.2719 34.3814 11.274 34.4817 11.2781L35.3465 11.3032C35.6306 11.3074 35.9835 11.3095 36.4056 11.3095C36.8234 11.3095 37.1513 11.3054 37.3895 11.2969C37.9911 11.2718 38.3837 11.2593 38.5677 11.2593C39.2571 11.2593 39.7887 11.3304 40.1627 11.4723C40.5365 11.6144 40.8102 11.8201 40.9836 12.0896C41.1569 12.3591 41.2436 12.661 41.2436 12.9951C41.2436 13.3546 41.1444 13.6887 40.946 13.9979C40.7475 14.3071 40.4937 14.5474 40.1845 14.7186C40.0007 14.8231 39.5912 14.963 38.9562 15.1386C39.7166 15.2305 40.2461 15.3517 40.5448 15.502C40.8435 15.6524 41.0827 15.8874 41.2624 16.207C41.442 16.5266 41.5319 16.8828 41.5319 17.2755C41.5319 17.6892 41.4399 18.0642 41.2562 18.4004C41.0723 18.7368 40.8352 19.024 40.5448 19.2621C40.2544 19.5003 39.9212 19.6894 39.5454 19.8292C39.1693 19.9692 38.6993 20.0392 38.1353 20.0392L36.0295 20.0016C35.6912 20.0017 35.2482 20.0142 34.701 20.0393ZM37.0762 14.8879L37.4396 14.8942C37.7237 14.8942 37.9869 14.8713 38.2293 14.8253C38.4715 14.7794 38.6679 14.699 38.8184 14.584C38.9688 14.4692 39.095 14.2979 39.1975 14.0702C39.2998 13.8425 39.3511 13.5804 39.3511 13.2837C39.3511 12.9828 39.2926 12.727 39.1757 12.516C39.0586 12.305 38.9062 12.1547 38.7181 12.0648C38.5301 11.975 38.2482 11.9301 37.8721 11.9301C37.6005 11.9301 37.354 11.9468 37.1326 11.9802C37.1075 12.281 37.0929 12.6278 37.0887 13.0205L37.0763 13.9919L37.0762 14.8879ZM37.1012 19.3374C37.239 19.3667 37.498 19.3813 37.8783 19.3813C38.3962 19.3813 38.8152 19.211 39.1347 18.8705C39.4544 18.53 39.6141 18.0422 39.6141 17.4072C39.6141 16.956 39.5305 16.5905 39.3635 16.3105C39.1963 16.0306 38.9749 15.8333 38.6991 15.7183C38.4234 15.6035 38.0432 15.5459 37.5585 15.5459C37.3871 15.5459 37.2263 15.5543 37.076 15.571V18.4287L37.0885 19.1744C37.0886 19.1954 37.0928 19.2497 37.1012 19.3374Z" fill="#092264"/>
<path d="M43.0297 20.0392V19.7009C43.2803 19.584 43.4849 19.4628 43.6437 19.3373C43.6688 19.1618 43.6896 18.8778 43.7063 18.4851C43.7398 17.7666 43.7565 17.2442 43.7565 16.9183V14.0983C43.7565 13.9897 43.7502 13.5823 43.7377 12.8762C43.7252 12.4041 43.6959 12.1159 43.65 12.0114C43.629 11.9697 43.5977 11.9384 43.556 11.9174C43.4431 11.8673 43.1424 11.8296 42.6536 11.8045V11.2719L44.1075 11.3032C44.3958 11.3074 44.6715 11.3095 44.9347 11.3095C45.507 11.3095 46.1441 11.3032 46.8461 11.2906L48.1182 11.2593C48.2687 11.2593 48.5736 11.2677 49.0333 11.2844C49.075 11.2844 49.144 11.2969 49.2401 11.322L49.284 11.4035L49.1649 12.3059C49.1607 12.3686 49.1398 12.6694 49.1023 13.2083H48.6134C48.605 12.7154 48.5861 12.4125 48.557 12.2997C48.5403 12.2413 48.5152 12.1994 48.4818 12.1743C48.4274 12.1367 48.2603 12.1033 47.9804 12.0741C47.5668 12.0282 47.1615 12.0051 46.7646 12.0051C46.3927 12.0051 46.0125 12.0198 45.6241 12.049C45.5655 12.5212 45.5363 13.1206 45.5363 13.8476V15.1323C45.8203 15.1533 46.117 15.1637 46.4262 15.1637C46.5222 15.1637 46.869 15.1554 47.4664 15.1386C47.692 15.1345 47.8246 15.1197 47.8643 15.0947C47.904 15.0696 47.9343 15.0257 47.9552 14.9631C48.0054 14.8043 48.0346 14.5391 48.043 14.1672H48.5505L48.5254 15.5459L48.5505 16.9183H48.0116C48.0157 16.4338 47.9844 16.1349 47.9176 16.0222C47.8675 15.9386 47.7776 15.8865 47.6482 15.8655C47.3598 15.8196 46.99 15.7965 46.5389 15.7965C46.1336 15.7965 45.7994 15.809 45.5362 15.8341V18.4912C45.5362 18.7879 45.5425 19.0427 45.555 19.2557C45.8933 19.2808 46.2944 19.2933 46.7582 19.2933C47.2094 19.2933 47.626 19.2787 48.0083 19.2495C48.3907 19.2204 48.6257 19.1784 48.7134 19.1241C48.7426 19.1074 48.7698 19.0699 48.7949 19.0114C48.8701 18.8109 48.9495 18.4307 49.0331 17.8708H49.5469C49.455 18.698 49.4091 19.379 49.4091 19.9137L49.3277 19.9952C49.0603 20.0245 48.68 20.0391 48.187 20.0391L47.178 20.0203C46.1837 20.0078 45.4986 20.0015 45.1225 20.0015C45.0225 20.0016 44.3248 20.0141 43.0297 20.0392Z" fill="#092264"/>
<path d="M52.3547 20.0393V19.5255C52.8561 19.5089 53.1538 19.4754 53.2477 19.4252C53.3417 19.375 53.4054 19.2915 53.4388 19.1745C53.4847 18.9949 53.5078 18.4538 53.5078 17.5513V13.7975C53.5078 12.774 53.5015 12.2016 53.489 12.0804H52.5929C52.1416 12.0804 51.7446 12.0951 51.4022 12.1243C51.2643 12.1368 51.1849 12.1534 51.164 12.1744C51.1347 12.1995 51.1097 12.2726 51.0888 12.3937C51.0344 12.6862 51.0031 13.0141 50.9948 13.3777H50.4746C50.4579 12.5213 50.4473 12.0388 50.4432 11.93C50.4307 11.7462 50.4098 11.5477 50.3807 11.3347L50.437 11.272C50.6334 11.293 50.8422 11.3076 51.0637 11.3159C51.423 11.3284 52.1144 11.3347 53.1381 11.3347H55.6698C56.7227 11.3347 57.4266 11.3285 57.7819 11.3159C57.9739 11.3076 58.1682 11.2929 58.3647 11.272L58.4273 11.3347C58.3897 11.5896 58.3667 11.813 58.3583 12.0052C58.3541 12.0387 58.3458 12.4962 58.3332 13.3777H57.8131C57.8047 13.0517 57.7776 12.7406 57.7317 12.4439C57.7066 12.2936 57.6794 12.2038 57.6502 12.1744C57.6251 12.1535 57.5582 12.139 57.4496 12.1306C57.107 12.0973 56.6953 12.0805 56.215 12.0805H55.3189C55.3064 12.2267 55.3001 12.7992 55.3001 13.7976V17.5515C55.3001 18.4538 55.323 18.997 55.369 19.1808C55.3982 19.2895 55.4609 19.3699 55.557 19.4221C55.653 19.4744 55.9518 19.5089 56.4532 19.5255V20.0393C55.6426 20.0017 54.9595 19.983 54.4039 19.983C53.8108 19.983 53.1275 20.0017 52.3547 20.0393Z" fill="#092264"/>
<path d="M70.8106 18.9051L70.5223 19.538C70.0001 19.8137 69.5311 20.0028 69.1154 20.1051C68.6996 20.2074 68.1806 20.2586 67.5581 20.2586C66.6722 20.2586 65.8889 20.1186 65.208 19.8387C64.6731 19.6131 64.2199 19.3144 63.8481 18.9426C63.4762 18.5707 63.19 18.1676 62.9895 17.7331C62.6846 17.0772 62.5321 16.3649 62.5321 15.5961C62.5321 14.28 62.9822 13.2052 63.8826 12.3718C64.7828 11.5383 66.0541 11.1216 67.696 11.1216C68.26 11.1216 68.7665 11.1634 69.2158 11.2469C69.6647 11.3305 70.1861 11.4789 70.7793 11.692L70.8107 11.7734C70.7438 11.9698 70.6916 12.2163 70.654 12.5129C70.5914 12.9851 70.5516 13.4217 70.5349 13.8228H70.0462C70.0378 13.3633 70.0169 12.9955 69.9836 12.7198C69.7035 12.4274 69.3892 12.209 69.0404 12.0648C68.6915 11.9207 68.2454 11.8487 67.7025 11.8487C66.7206 11.8487 65.9351 12.1589 65.3461 12.7793C64.757 13.3997 64.4625 14.2656 64.4625 15.377C64.4625 16.0497 64.5617 16.6367 64.7601 17.138C64.9586 17.6393 65.2229 18.054 65.5529 18.382C65.883 18.71 66.2152 18.9491 66.5493 19.0996C67.0047 19.3001 67.5562 19.4003 68.2038 19.4003C68.63 19.4003 69.033 19.3523 69.4133 19.2562C69.7934 19.1601 70.2071 18.9952 70.6541 18.7611L70.8106 18.9051Z" fill="#092264"/>
<path d="M71.8134 15.7586C71.8134 14.9941 71.9294 14.3277 72.1611 13.7596C72.393 13.1914 72.724 12.7088 73.1544 12.3119C73.5847 11.915 74.0526 11.6289 74.5582 11.4533C75.2057 11.2319 75.9119 11.1211 76.6764 11.1211C77.4368 11.1211 78.1261 11.2277 78.7446 11.4407C79.2041 11.6036 79.6103 11.8387 79.9635 12.1458C80.3165 12.4528 80.5849 12.7673 80.7688 13.0888C80.9526 13.4107 81.0915 13.7635 81.1855 14.148C81.2795 14.5324 81.3265 14.9564 81.3265 15.4201C81.3265 16.2056 81.1908 16.9347 80.9191 17.6073C80.7186 18.1087 80.425 18.5535 80.0386 18.9422C79.6521 19.3307 79.2124 19.6294 78.7195 19.8383C78.0426 20.1182 77.2697 20.2582 76.4006 20.2582C75.4606 20.2582 74.6531 20.088 73.9785 19.7474C73.3038 19.407 72.7742 18.9046 72.3899 18.2403C72.0054 17.576 71.8134 16.7488 71.8134 15.7586ZM73.7436 15.3889C73.7436 16.3625 73.8772 17.1677 74.1445 17.8048C74.4119 18.442 74.7545 18.8921 75.1723 19.1553C75.5901 19.4185 76.0831 19.5501 76.6513 19.5501C77.1777 19.5501 77.6487 19.4247 78.0645 19.174C78.4801 18.9233 78.806 18.4993 79.0421 17.9018C79.2781 17.3044 79.3962 16.5796 79.3962 15.7273C79.3962 15.1424 79.3325 14.6077 79.2051 14.123C79.0776 13.6384 78.8948 13.2258 78.6567 12.8852C78.4185 12.5448 78.1376 12.2847 77.8138 12.1051C77.4899 11.9255 77.0607 11.8356 76.526 11.8356C75.916 11.8356 75.3969 11.9788 74.9686 12.2649C74.5404 12.5511 74.2292 12.9741 74.0349 13.534C73.8406 14.0939 73.7436 14.7121 73.7436 15.3889Z" fill="#092264"/>
<path d="M82.6864 20.039V19.7195C82.7948 19.6735 82.9473 19.592 83.1438 19.475C83.2316 19.4248 83.2879 19.3831 83.313 19.3496C83.3297 19.3288 83.3402 19.3058 83.3444 19.2807C83.3653 19.1763 83.3841 18.8034 83.4008 18.1621C83.4174 17.5208 83.4259 16.751 83.4259 15.8528C83.4259 14.5326 83.4217 13.7178 83.4134 13.4086C83.3967 12.6232 83.3695 12.174 83.3319 12.0612C83.3152 12.011 83.2838 11.9735 83.2379 11.9484C83.1418 11.8857 82.8221 11.844 82.2791 11.823V11.2715C82.8095 11.2966 83.4154 11.3091 84.0964 11.3091C84.8568 11.3091 85.5775 11.2965 86.2586 11.2715V11.823C85.7864 11.844 85.4981 11.8816 85.3937 11.9358C85.3477 11.9609 85.3143 12.0016 85.2935 12.0581C85.2725 12.1144 85.2528 12.3724 85.234 12.832C85.2153 13.2916 85.2058 13.8723 85.2058 14.5742C85.2058 14.6495 85.2079 15.2532 85.2121 16.3853C85.2162 16.9828 85.2193 17.575 85.2214 18.162C85.2235 18.749 85.2266 19.1052 85.2307 19.2304C85.8074 19.2555 86.2001 19.268 86.409 19.268C87.044 19.268 87.5976 19.2305 88.0697 19.1553C88.241 19.1302 88.3433 19.1031 88.3768 19.0739C88.4102 19.0447 88.4457 18.9673 88.4833 18.842C88.5668 18.5245 88.6483 18.1611 88.7277 17.7515H89.2478C89.2353 17.8685 89.229 17.9375 89.229 17.9583L89.0723 19.2242C89.0388 19.6212 89.02 19.8592 89.0159 19.9386C88.8948 19.9721 88.7736 19.995 88.6526 20.0076C88.3977 20.0285 88.0029 20.0388 87.4681 20.0388C87.3929 20.0388 86.9019 20.0285 85.9954 20.0076C85.306 19.9909 84.8255 19.9825 84.554 19.9825C84.1443 19.9827 83.5219 20.0014 82.6864 20.039Z" fill="#092264"/>
<path d="M90.5261 20.039V19.7195C90.6348 19.6735 90.7872 19.592 90.9837 19.475C91.0714 19.4248 91.1278 19.3831 91.1529 19.3496C91.1695 19.3288 91.1801 19.3058 91.1843 19.2807C91.2051 19.1763 91.2239 18.8034 91.2405 18.1621C91.2572 17.5208 91.2657 16.751 91.2657 15.8528C91.2657 14.5326 91.2615 13.7178 91.2531 13.4086C91.2364 12.6232 91.2094 12.174 91.1718 12.0612C91.1551 12.011 91.1237 11.9735 91.0778 11.9484C90.9816 11.8857 90.6619 11.844 90.1188 11.823V11.2715C90.6493 11.2966 91.2552 11.3091 91.9363 11.3091C92.6966 11.3091 93.4174 11.2965 94.0983 11.2715V11.823C93.6262 11.844 93.3379 11.8816 93.2336 11.9358C93.1876 11.9609 93.1542 12.0016 93.1333 12.0581C93.1123 12.1144 93.0925 12.3724 93.0738 12.832C93.0551 13.2916 93.0456 13.8723 93.0456 14.5742C93.0456 14.6495 93.0476 15.2532 93.0518 16.3853C93.056 16.9828 93.0591 17.575 93.0613 18.162C93.0633 18.749 93.0664 19.1052 93.0706 19.2304C93.6472 19.2555 94.0398 19.268 94.2488 19.268C94.8839 19.268 95.4374 19.2305 95.9096 19.1553C96.0808 19.1302 96.1831 19.1031 96.2165 19.0739C96.25 19.0447 96.2855 18.9673 96.323 18.842C96.4066 18.5245 96.4881 18.1611 96.5675 17.7515H97.0877C97.0751 17.8685 97.0689 17.9375 97.0689 17.9583L96.9122 19.2242C96.8787 19.6212 96.8599 19.8592 96.8558 19.9386C96.7346 19.9721 96.6134 19.995 96.4923 20.0076C96.2374 20.0285 95.8426 20.0388 95.3078 20.0388C95.2326 20.0388 94.7417 20.0285 93.835 20.0076C93.1457 19.9909 92.6652 19.9825 92.3937 19.9825C91.9842 19.9827 91.3617 20.0014 90.5261 20.039Z" fill="#092264"/>
<path d="M98.2783 20.0392V19.7009C98.5289 19.584 98.7336 19.4628 98.8923 19.3373C98.9174 19.1618 98.9382 18.8778 98.955 18.4851C98.9884 17.7666 99.0051 17.2442 99.0051 16.9183V14.0983C99.0051 13.9897 98.9988 13.5823 98.9863 12.8762C98.9738 12.4041 98.9445 12.1159 98.8986 12.0114C98.8776 11.9697 98.8463 11.9384 98.8046 11.9174C98.6917 11.8673 98.391 11.8296 97.9022 11.8045V11.2719L99.3561 11.3032C99.6444 11.3074 99.9201 11.3095 100.183 11.3095C100.756 11.3095 101.393 11.3032 102.095 11.2906L103.367 11.2593C103.517 11.2593 103.822 11.2677 104.282 11.2844C104.324 11.2844 104.393 11.2969 104.489 11.322L104.533 11.4035L104.414 12.3059C104.409 12.3686 104.388 12.6694 104.351 13.2083H103.862C103.854 12.7154 103.835 12.4125 103.806 12.2997C103.789 12.2413 103.764 12.1994 103.73 12.1743C103.676 12.1367 103.509 12.1033 103.229 12.0741C102.815 12.0282 102.41 12.0051 102.013 12.0051C101.641 12.0051 101.261 12.0198 100.873 12.049C100.814 12.5212 100.785 13.1206 100.785 13.8476V15.1323C101.069 15.1533 101.366 15.1637 101.675 15.1637C101.771 15.1637 102.118 15.1554 102.715 15.1386C102.941 15.1345 103.073 15.1197 103.113 15.0947C103.153 15.0696 103.183 15.0257 103.204 14.9631C103.254 14.8043 103.283 14.5391 103.292 14.1672H103.799L103.774 15.5459L103.799 16.9183H103.26C103.264 16.4338 103.233 16.1349 103.166 16.0222C103.116 15.9386 103.026 15.8865 102.897 15.8655C102.608 15.8196 102.239 15.7965 101.788 15.7965C101.382 15.7965 101.048 15.809 100.785 15.8341V18.4912C100.785 18.7879 100.791 19.0427 100.804 19.2557C101.142 19.2808 101.543 19.2933 102.007 19.2933C102.458 19.2933 102.875 19.2787 103.257 19.2495C103.639 19.2204 103.874 19.1784 103.962 19.1241C103.991 19.1074 104.018 19.0699 104.044 19.0114C104.119 18.8109 104.198 18.4307 104.282 17.8708H104.796C104.704 18.698 104.658 19.379 104.658 19.9137L104.576 19.9952C104.309 20.0245 103.929 20.0391 103.436 20.0391L102.427 20.0203C101.432 20.0078 100.747 20.0015 100.371 20.0015C100.271 20.0016 99.5734 20.0141 98.2783 20.0392Z" fill="#092264"/>
<path d="M114.29 18.9051L114.002 19.538C113.48 19.8137 113.011 20.0028 112.595 20.1051C112.179 20.2074 111.66 20.2586 111.038 20.2586C110.152 20.2586 109.369 20.1186 108.688 19.8387C108.153 19.6131 107.699 19.3144 107.328 18.9426C106.956 18.5707 106.67 18.1676 106.469 17.7331C106.164 17.0772 106.012 16.3649 106.012 15.5961C106.012 14.28 106.462 13.2052 107.362 12.3718C108.262 11.5383 109.534 11.1216 111.176 11.1216C111.74 11.1216 112.246 11.1634 112.695 11.2469C113.144 11.3305 113.666 11.4789 114.259 11.692L114.29 11.7734C114.223 11.9698 114.171 12.2163 114.134 12.5129C114.071 12.9851 114.031 13.4217 114.014 13.8228H113.526C113.517 13.3633 113.496 12.9955 113.463 12.7198C113.183 12.4274 112.869 12.209 112.52 12.0648C112.171 11.9207 111.725 11.8487 111.182 11.8487C110.2 11.8487 109.415 12.1589 108.826 12.7793C108.237 13.3997 107.942 14.2656 107.942 15.377C107.942 16.0497 108.041 16.6367 108.24 17.138C108.438 17.6393 108.702 18.054 109.032 18.382C109.362 18.71 109.695 18.9491 110.029 19.0996C110.484 19.3001 111.036 19.4003 111.683 19.4003C112.109 19.4003 112.512 19.3523 112.893 19.2562C113.273 19.1601 113.687 18.9952 114.134 18.7611L114.29 18.9051Z" fill="#092264"/>
<path d="M116.872 20.0393V19.5255C117.373 19.5089 117.671 19.4754 117.765 19.4252C117.859 19.375 117.923 19.2915 117.956 19.1745C118.002 18.9949 118.025 18.4538 118.025 17.5513V13.7975C118.025 12.774 118.019 12.2016 118.006 12.0804H117.11C116.659 12.0804 116.262 12.0951 115.92 12.1243C115.782 12.1368 115.702 12.1534 115.681 12.1744C115.652 12.1995 115.627 12.2726 115.606 12.3937C115.552 12.6862 115.52 13.0141 115.512 13.3777H114.992C114.975 12.5213 114.965 12.0388 114.961 11.93C114.948 11.7462 114.927 11.5477 114.898 11.3347L114.954 11.272C115.151 11.293 115.36 11.3076 115.581 11.3159C115.94 11.3284 116.632 11.3347 117.655 11.3347H120.187C121.24 11.3347 121.944 11.3285 122.299 11.3159C122.491 11.3076 122.686 11.2929 122.882 11.272L122.945 11.3347C122.907 11.5896 122.884 11.813 122.876 12.0052C122.871 12.0387 122.863 12.4962 122.851 13.3777H122.33C122.322 13.0517 122.295 12.7406 122.249 12.4439C122.224 12.2936 122.197 12.2038 122.168 12.1744C122.142 12.1535 122.076 12.139 121.967 12.1306C121.624 12.0973 121.213 12.0805 120.732 12.0805H119.836C119.824 12.2267 119.818 12.7992 119.818 13.7976V17.5515C119.818 18.4538 119.84 18.997 119.886 19.1808C119.916 19.2895 119.978 19.3699 120.074 19.4221C120.17 19.4744 120.469 19.5089 120.971 19.5255V20.0393C120.16 20.0017 119.477 19.983 118.921 19.983C118.328 19.983 117.645 20.0017 116.872 20.0393Z" fill="#092264"/>
<path d="M127.764 11.272V11.8235C127.342 11.836 127.091 11.8517 127.012 11.8705C126.932 11.8893 126.876 11.9123 126.843 11.9394C126.809 11.9667 126.786 12.0011 126.774 12.0429C126.744 12.114 126.724 12.2497 126.711 12.4502C126.703 12.5589 126.696 12.7635 126.692 13.0643C126.675 14.0922 126.667 14.6457 126.667 14.7251V17.2507L126.686 18.3975C126.686 18.8278 126.707 19.1078 126.749 19.2373C126.765 19.2958 126.793 19.3407 126.833 19.3721C126.873 19.4033 126.935 19.4285 127.021 19.4473C127.107 19.4661 127.354 19.4797 127.764 19.4881V20.0395C127.083 20.0144 126.356 20.0019 125.583 20.0019C124.91 20.0019 124.311 20.0144 123.784 20.0395V19.4881C124.219 19.4714 124.469 19.4567 124.536 19.4442C124.624 19.4276 124.684 19.4045 124.715 19.3752C124.746 19.3461 124.766 19.3126 124.774 19.275C124.787 19.2249 124.804 19.0286 124.824 18.6859C124.858 18.1845 124.875 17.7208 124.875 17.2945V14.675C124.875 13.8437 124.87 13.3089 124.862 13.0708C124.841 12.5402 124.816 12.2082 124.787 12.0744C124.774 12.0201 124.754 11.9783 124.727 11.949C124.7 11.9199 124.65 11.8957 124.577 11.877C124.504 11.8581 124.24 11.8404 123.784 11.8237V11.2722C124.311 11.2973 124.914 11.3098 125.595 11.3098C126.36 11.3096 127.083 11.297 127.764 11.272Z" fill="#092264"/>
<path d="M132.827 20.0832C132.472 19.2059 132.132 18.3723 131.806 17.5827L130.916 15.4582C130.218 13.7912 129.789 12.7981 129.628 12.4784C129.467 12.1588 129.345 11.9761 129.262 11.93C129.136 11.8632 128.877 11.8256 128.485 11.8172V11.272C129.487 11.3013 130.097 11.3159 130.314 11.3159L132.564 11.272V11.8172C132.213 11.8214 131.959 11.8423 131.8 11.8799C131.708 11.9008 131.644 11.9311 131.609 11.9708C131.573 12.0106 131.555 12.0617 131.555 12.1244C131.555 12.2497 131.693 12.6467 131.969 13.315C132.128 13.6995 132.212 13.9073 132.223 13.9386C132.233 13.97 132.247 14.0086 132.263 14.0545L133.849 17.9212L135.24 14.4744C135.274 14.395 135.422 14.0002 135.685 13.2899C135.873 12.7886 135.988 12.4523 136.03 12.281C136.038 12.2308 136.042 12.1806 136.042 12.1305C136.042 12.0596 136.031 12.0063 136.008 11.9707C135.985 11.9353 135.955 11.9091 135.917 11.8924C135.888 11.8799 135.813 11.8694 135.691 11.861C135.42 11.8359 135.19 11.8214 135.002 11.8172V11.272L136.594 11.3096L137.948 11.272V11.8172C137.542 11.8548 137.306 11.8986 137.239 11.9488C137.126 12.0365 136.89 12.5108 136.531 13.3714L136.086 14.4118L135.24 16.4297C134.522 18.151 134.035 19.3689 133.78 20.0833L132.827 20.0832Z" fill="#092264"/>
<path d="M138.925 20.0392V19.7009C139.176 19.584 139.38 19.4628 139.539 19.3373C139.564 19.1618 139.585 18.8778 139.602 18.4851C139.635 17.7666 139.652 17.2442 139.652 16.9183V14.0983C139.652 13.9897 139.646 13.5823 139.633 12.8762C139.621 12.4041 139.591 12.1159 139.545 12.0114C139.524 11.9697 139.493 11.9384 139.451 11.9174C139.339 11.8673 139.038 11.8296 138.549 11.8045V11.2719L140.003 11.3032C140.291 11.3074 140.567 11.3095 140.83 11.3095C141.402 11.3095 142.04 11.3032 142.742 11.2906L144.014 11.2593C144.164 11.2593 144.469 11.2677 144.929 11.2844C144.97 11.2844 145.039 11.2969 145.136 11.322L145.179 11.4035L145.06 12.3059C145.056 12.3686 145.035 12.6694 144.998 13.2083H144.509C144.5 12.7154 144.482 12.4125 144.452 12.2997C144.436 12.2413 144.411 12.1994 144.377 12.1743C144.323 12.1367 144.156 12.1033 143.876 12.0741C143.462 12.0282 143.057 12.0051 142.66 12.0051C142.288 12.0051 141.908 12.0198 141.52 12.049C141.461 12.5212 141.432 13.1206 141.432 13.8476V15.1323C141.716 15.1533 142.012 15.1637 142.322 15.1637C142.418 15.1637 142.764 15.1554 143.362 15.1386C143.588 15.1345 143.72 15.1197 143.76 15.0947C143.799 15.0696 143.83 15.0257 143.851 14.9631C143.901 14.8043 143.93 14.5391 143.938 14.1672H144.446L144.421 15.5459L144.446 16.9183H143.907C143.911 16.4338 143.88 16.1349 143.813 16.0222C143.763 15.9386 143.673 15.8865 143.544 15.8655C143.255 15.8196 142.886 15.7965 142.434 15.7965C142.029 15.7965 141.695 15.809 141.432 15.8341V18.4912C141.432 18.7879 141.438 19.0427 141.45 19.2557C141.789 19.2808 142.19 19.2933 142.654 19.2933C143.105 19.2933 143.522 19.2787 143.904 19.2495C144.286 19.2204 144.521 19.1784 144.609 19.1241C144.638 19.1074 144.665 19.0699 144.69 19.0114C144.766 18.8109 144.845 18.4307 144.929 17.8708H145.442C145.35 18.698 145.305 19.379 145.305 19.9137L145.223 19.9952C144.956 20.0245 144.575 20.0391 144.082 20.0391L143.073 20.0203C142.079 20.0078 141.394 20.0015 141.018 20.0015C140.918 20.0016 140.22 20.0141 138.925 20.0392Z" fill="#092264"/>
</svg>
