<svg width="151" height="33" viewBox="0 0 151 33" fill="none" xmlns="http://www.w3.org/2000/svg">
<rect width="150" height="32" transform="translate(0.820068 0.676758)" fill="white"/>
<path d="M29.4276 16.6764C29.4276 18.2966 29.1034 19.8684 28.4644 21.348C27.8464 22.7764 26.9628 24.0597 25.8366 25.162C24.7113 26.2634 23.4002 27.129 21.9398 27.733C20.4281 28.3594 18.8221 28.6767 17.1676 28.6767C15.513 28.6767 13.9071 28.3595 12.3955 27.733C10.9351 27.129 9.62391 26.2634 8.49862 25.162C7.37238 24.0597 6.48792 22.7764 5.8708 21.348C5.23168 19.8684 4.90756 18.2966 4.90756 16.6764C4.90756 15.057 5.23168 13.4852 5.8708 12.0056C6.48792 10.5762 7.37238 9.29382 8.49862 8.19152C9.62391 7.08922 10.9351 6.22446 12.3955 5.61953C13.9071 4.99409 15.5131 4.67676 17.1676 4.67676C18.8221 4.67676 20.4281 4.994 21.9398 5.61953C23.4002 6.22446 24.7113 7.08922 25.8366 8.19152C26.9627 9.29373 27.8464 10.5762 28.4644 12.0056C29.1034 13.4852 29.4276 15.0571 29.4276 16.6764Z" fill="#092264"/>
<path d="M28.7654 11.8812C28.1314 10.4141 27.2239 9.0966 26.068 7.96532C24.9122 6.83403 23.5661 5.94575 22.0671 5.32527C20.5149 4.68271 18.8664 4.35693 17.1675 4.35693C15.4684 4.35693 13.82 4.68271 12.2678 5.32527C10.7688 5.94575 9.42274 6.83403 8.26689 7.96532C7.11105 9.0966 6.20355 10.4141 5.56951 11.8812C4.913 13.4004 4.58014 15.0139 4.58014 16.6768C4.58014 18.3396 4.913 19.9531 5.56951 21.4723C6.20355 22.9394 7.11105 24.2568 8.26689 25.3882C9.42274 26.5195 10.7688 27.4077 12.2678 28.0282C13.82 28.6708 15.4684 28.9966 17.1675 28.9966C18.8665 28.9966 20.5149 28.6708 22.0671 28.0282C23.5661 27.4078 24.9122 26.5195 26.068 25.3882C27.2239 24.2569 28.1314 22.9394 28.7654 21.4723C29.4219 19.9531 29.7548 18.3396 29.7548 16.6768C29.7548 15.0139 29.4219 13.4004 28.7654 11.8812ZM25.4977 24.8299C23.2726 27.0076 20.3143 28.2071 17.1675 28.2071C14.0208 28.2071 11.0624 27.0077 8.83739 24.8299C6.61227 22.6521 5.38696 19.7566 5.38696 16.6768C5.38696 13.5969 6.61236 10.7013 8.83739 8.52359C11.0625 6.34575 14.0208 5.14638 17.1675 5.14638C20.3143 5.14638 23.2727 6.34575 25.4977 8.52359C27.7228 10.7013 28.9481 13.5969 28.9481 16.6768C28.9481 19.7566 27.7228 22.6521 25.4977 24.8299Z" fill="white"/>
<path d="M10.7978 16.7839C10.8505 16.7124 10.9045 16.6414 10.9605 16.5698C10.9038 16.6415 10.8498 16.713 10.7978 16.7839Z" fill="white"/>
<path d="M26.2231 12.1374C25.7001 12.1374 25.2402 12.4592 25.1289 12.9027L24.4115 15.7616C24.3924 15.7609 24.374 15.7616 24.3555 15.7616C24.1262 15.0833 23.6809 14.2032 22.9893 13.4431L22.984 13.4495L22.9886 13.4431C22.1072 12.463 20.9807 11.6957 19.7831 11.1155C20.3022 10.7345 20.8193 10.3096 21.2463 9.85242C21.7101 9.35468 22.6791 8.23339 21.9044 7.65699C21.1402 7.08895 19.527 8.31012 18.7944 8.59828C18.1772 7.811 17.7259 7.30811 17.197 7.30811C16.6627 7.30811 16.2003 7.83105 15.5448 8.59828C14.9624 8.21333 13.1265 7.20885 12.4783 7.66206C11.5982 8.2772 13.8024 10.4803 14.6232 11.1237C13.3063 11.7769 12.2003 12.6486 11.3841 13.5454C11.3624 13.5693 11.3412 13.5932 11.3195 13.617C11.2984 13.6409 11.2773 13.6648 11.2569 13.688C11.1739 13.7834 11.0935 13.8788 11.0171 13.9742C10.998 13.998 10.9788 14.0219 10.9604 14.0458C10.9044 14.1173 10.8504 14.1883 10.7977 14.2599C10.7806 14.2837 10.7635 14.3069 10.7463 14.3308C10.7292 14.3546 10.7127 14.3786 10.6963 14.4017C10.6798 14.4256 10.6634 14.4495 10.6475 14.4727C10.631 14.4965 10.6151 14.5198 10.5994 14.5436C10.5842 14.5668 10.5684 14.5906 10.5532 14.6139C10.5381 14.6377 10.5229 14.6609 10.5084 14.6842C10.4491 14.7777 10.3938 14.8705 10.3424 14.9628C10.3035 15.0318 10.2667 15.1001 10.2325 15.1684C10.2206 15.191 10.2094 15.2136 10.1988 15.2361C10.1639 15.3064 10.1316 15.3767 10.1013 15.4457C10.0934 15.465 10.0855 15.4838 10.0776 15.5031C10.0651 15.5315 10.054 15.5599 10.0434 15.5876C10.0368 15.603 10.0309 15.6178 10.0257 15.6334C10.0092 15.6765 9.99408 15.7191 9.97951 15.7617C9.96108 15.7617 9.94256 15.7611 9.92348 15.7617L9.20615 12.9029C9.09486 12.4592 8.635 12.1376 8.11197 12.1376C7.49476 12.1376 6.99213 12.5741 6.99213 13.1105V14.4981C7.18455 17.248 7.56855 18.2544 8.34989 20.0939C9.44539 22.6723 12.2728 24.5963 12.3011 24.6156L12.305 24.6182C13.6594 25.4196 15.4394 25.9864 16.7621 26.0405V26.0456H16.8398C16.8675 26.0456 16.8959 26.045 16.9242 26.045L16.9275 26.0443C17.0091 26.045 17.0895 26.0437 17.1673 26.0398L17.1679 26.0308V26.0398C17.2457 26.0437 17.326 26.045 17.4077 26.0443L17.411 26.045C17.4393 26.045 17.4677 26.0456 17.4953 26.0456H17.5731V26.0405C18.8959 25.9863 20.6758 25.4195 22.0302 24.6182L22.0341 24.6156C22.0624 24.5963 24.8898 22.6723 25.9853 20.0939C26.7665 18.2544 27.1506 17.248 27.343 14.4981V13.1105C27.343 12.5739 26.8404 12.1374 26.2231 12.1374ZM16.7621 25.2659C16.2345 25.2536 15.5447 25.1131 15.077 24.9738C13.8517 24.6095 12.7233 23.9822 11.8155 23.1601C10.7233 22.171 9.83004 21.0408 9.16141 19.8003C8.27281 18.1504 7.80242 16.3153 7.80242 14.4939V13.1206C7.80242 12.9935 7.89596 12.8827 8.02972 12.8511C8.05745 12.8447 8.08509 12.8414 8.11206 12.8414C8.16809 12.8414 8.2227 12.8543 8.27149 12.8801C8.34462 12.9187 8.39661 12.9814 8.41447 13.0528C8.84791 14.7801 9.18716 16.5107 10.0317 18.1026C10.4684 18.926 10.8189 19.4005 11.4776 20.0974C11.7674 20.4044 12.1719 20.8672 12.9209 21.5907C13.4262 22.0788 13.8992 21.5339 13.5593 21.1568C12.4486 19.9156 11.1166 18.7318 10.5303 17.1419C10.4637 16.9614 10.4348 16.6442 10.6343 16.5248C10.8761 16.3804 11.1429 16.6648 11.2918 16.8202C12.0697 17.6306 12.8062 18.5455 13.6752 19.2599C14.3992 19.855 15.1831 20.2335 15.7634 20.995C16.3964 21.8247 16.7621 22.8358 16.7621 23.8744V25.2659ZM17.3774 18.28H16.9571C16.8226 18.28 16.7206 18.162 16.7424 18.0324L16.826 17.5295C16.6264 17.5102 16.4196 17.474 16.2061 17.4193C15.992 17.3651 15.8576 17.3381 15.8016 17.3381C15.7648 17.3381 15.7311 17.3426 15.7002 17.3509C15.6277 17.3709 15.5539 17.3226 15.5473 17.2484C15.5113 16.8678 15.4744 16.4393 15.4364 15.9615C15.4329 15.9182 15.4901 15.8993 15.5143 15.9356C15.5634 16.0091 15.6255 16.0777 15.6989 16.1414C15.8345 16.2594 16.0085 16.3607 16.2061 16.4458C16.6007 16.616 16.9755 16.6831 17.3313 16.6476C17.6863 16.6121 17.8642 16.4935 17.8642 16.2904V16.2762C17.8642 16.1821 17.8049 16.1099 17.6863 16.0602C17.5677 16.0105 17.3438 15.9481 17.0138 15.8726C16.828 15.8301 16.6798 15.7946 16.5684 15.7663C16.4564 15.7379 16.3286 15.6979 16.185 15.6456C16.0407 15.594 15.9281 15.5386 15.8471 15.4793C15.7661 15.4206 15.6857 15.3477 15.6066 15.2601C15.5276 15.173 15.4709 15.0692 15.436 14.9486C15.4011 14.828 15.3839 14.6926 15.3839 14.5411V14.534C15.3839 14.171 15.5125 13.8712 15.7707 13.6352C16.0282 13.3993 16.38 13.2625 16.826 13.2245L16.7424 12.7216C16.7207 12.592 16.8227 12.474 16.9571 12.474H17.3793C17.513 12.474 17.6152 12.5915 17.594 12.721L17.5084 13.253C17.5967 13.2626 17.7073 13.2775 17.8397 13.2988C17.9721 13.3201 18.0822 13.3369 18.1704 13.3485C18.2587 13.3601 18.3286 13.3659 18.3793 13.3659C18.4168 13.3659 18.4505 13.3633 18.4794 13.3582C18.5499 13.3466 18.6158 13.3956 18.6211 13.4658C18.6329 13.6289 18.6514 13.8436 18.6758 14.1099C18.6943 14.3101 18.7086 14.4684 18.7186 14.5851C18.722 14.6262 18.6675 14.6472 18.6427 14.6138C18.6006 14.5573 18.5476 14.505 18.4854 14.4567C18.3616 14.3594 18.2008 14.2795 18.017 14.2156C17.65 14.0886 17.3009 14.0506 16.9689 14.1027C16.6369 14.1543 16.4702 14.2704 16.4702 14.4496V14.4567C16.4702 14.5463 16.5342 14.6191 16.6619 14.6759C16.7896 14.7327 17.0183 14.7965 17.3483 14.8674C17.6269 14.9235 17.8522 14.9803 18.0242 15.0369C18.1961 15.0937 18.3588 15.1703 18.5117 15.2671C18.6652 15.3638 18.7765 15.4864 18.8463 15.6352C18.9162 15.7842 18.951 15.9647 18.951 16.1769V16.191C18.951 16.5689 18.822 16.8757 18.5644 17.1117C18.3062 17.3477 17.9543 17.487 17.5084 17.5295L17.5927 18.0318C17.6144 18.1621 17.5117 18.28 17.3774 18.28ZM26.5327 14.494C26.5327 16.3154 26.0624 18.1504 25.1737 19.8004C24.505 21.0409 23.6117 22.1711 22.5195 23.1602C21.6118 23.9822 20.4834 24.6096 19.258 24.9739C18.7903 25.1131 18.1006 25.2537 17.573 25.266V23.8746C17.573 22.8359 17.9386 21.8249 18.5716 20.9951C19.152 20.2337 19.9359 19.8552 20.6599 19.2601C21.5288 18.5457 22.2653 17.6308 23.0432 16.8204C23.1921 16.665 23.4589 16.3806 23.7007 16.525C23.9003 16.6444 23.8713 16.9615 23.8047 17.1421C23.2184 18.732 21.8864 19.9158 20.7758 21.157C20.4359 21.5342 20.9089 22.0789 21.4142 21.5909C22.1632 20.8674 22.5677 20.4045 22.8575 20.0976C23.5162 19.4006 23.8667 18.9261 24.3034 18.1028C25.1479 16.5109 25.4872 14.7803 25.9207 13.053C25.9385 12.9814 25.9905 12.9189 26.0637 12.8803C26.1124 12.8545 26.1671 12.8416 26.2231 12.8416C26.2501 12.8416 26.2778 12.8448 26.3055 12.8513C26.4391 12.8828 26.5327 12.9937 26.5327 13.1208V14.494Z" fill="white"/>
<path d="M35.53 20.9636V20.6733C35.753 20.5458 35.9381 20.4181 36.0855 20.2903C36.1108 20.0886 36.1275 19.8415 36.136 19.549C36.1527 18.9477 36.1613 17.8545 36.1613 16.2689C36.1613 15.8447 36.1507 15.1838 36.1297 14.2859C36.1171 13.594 36.0939 13.1987 36.0602 13.0998C36.0391 13.0381 36.0076 12.9948 35.9656 12.97C35.8772 12.9125 35.5616 12.8672 35.0189 12.8342V12.3214C35.1114 12.3214 35.2082 12.3235 35.3092 12.3276L36.1802 12.3523C36.4663 12.3565 36.8217 12.3585 37.2468 12.3585C37.6675 12.3585 37.9978 12.3545 38.2377 12.3462C38.8436 12.3214 39.239 12.3091 39.4243 12.3091C40.1186 12.3091 40.654 12.3792 41.0307 12.5191C41.4071 12.6592 41.6827 12.8619 41.8574 13.1276C42.032 13.3932 42.1193 13.6908 42.1193 14.0202C42.1193 14.3745 42.0194 14.7039 41.8195 15.0086C41.6196 15.3134 41.364 15.5502 41.0526 15.719C40.8675 15.822 40.4551 15.9599 39.8156 16.1329C40.5813 16.2235 41.1146 16.3429 41.4155 16.4911C41.7163 16.6395 41.9572 16.8711 42.1382 17.1862C42.319 17.5012 42.4096 17.8523 42.4096 18.2394C42.4096 18.6472 42.317 19.0168 42.1319 19.3483C41.9467 19.6798 41.7079 19.9629 41.4155 20.1976C41.123 20.4323 40.7875 20.6188 40.4089 20.7566C40.0302 20.8946 39.5568 20.9636 38.9888 20.9636L36.8681 20.9266C36.5273 20.9266 36.0812 20.939 35.53 20.9636ZM37.9222 15.8858L38.2881 15.892C38.5743 15.892 38.8394 15.8694 39.0835 15.824C39.3274 15.7788 39.5252 15.6995 39.6767 15.5863C39.8283 15.4731 39.9554 15.3043 40.0586 15.0798C40.1616 14.8554 40.2133 14.597 40.2133 14.3045C40.2133 14.0079 40.1544 13.7557 40.0366 13.5477C39.9187 13.3398 39.7652 13.1916 39.5758 13.103C39.3865 13.0145 39.1025 12.9701 38.7238 12.9701C38.4502 12.9701 38.2019 12.9867 37.979 13.0196C37.9537 13.3162 37.939 13.658 37.9348 14.045L37.9223 15.0026L37.9222 15.8858ZM37.9473 20.2718C38.0861 20.3006 38.347 20.315 38.73 20.315C39.2516 20.315 39.6735 20.1472 39.9953 19.8116C40.3173 19.4759 40.4781 18.9951 40.4781 18.3691C40.4781 17.9244 40.394 17.5641 40.2257 17.2881C40.0574 17.0122 39.8344 16.8177 39.5566 16.7043C39.2789 16.5911 38.8961 16.5344 38.4079 16.5344C38.2353 16.5344 38.0734 16.5427 37.922 16.5592V19.376L37.9345 20.1111C37.9347 20.1319 37.9389 20.1853 37.9473 20.2718Z" fill="#092264"/>
<path d="M43.918 20.964V20.6304C44.1704 20.5152 44.3766 20.3956 44.5364 20.2721C44.5617 20.0991 44.5827 19.8192 44.5995 19.432C44.6332 18.7237 44.65 18.2089 44.65 17.8876V15.1079C44.65 15.0008 44.6437 14.5993 44.6311 13.9033C44.6185 13.4379 44.589 13.1538 44.5427 13.0508C44.5216 13.0096 44.4901 12.9787 44.4481 12.9581C44.3344 12.9087 44.0316 12.8717 43.5393 12.847V12.3219L45.0035 12.3528C45.2939 12.357 45.5715 12.359 45.8366 12.359C46.413 12.359 47.0547 12.3528 47.7616 12.3405L49.0428 12.3096C49.1943 12.3096 49.5014 12.3179 49.9644 12.3343C50.0064 12.3343 50.0759 12.3467 50.1727 12.3714L50.2169 12.4517L50.0969 13.3413C50.0927 13.4031 50.0716 13.6996 50.0339 14.2308H49.5415C49.533 13.745 49.514 13.4463 49.4847 13.3351C49.4679 13.2775 49.4426 13.2363 49.4089 13.2116C49.3542 13.1745 49.1859 13.1416 48.9041 13.1127C48.4874 13.0674 48.0793 13.0448 47.6796 13.0448C47.305 13.0448 46.9221 13.0592 46.5309 13.088C46.4719 13.5535 46.4425 14.1443 46.4425 14.8609V16.1273C46.7286 16.148 47.0273 16.1581 47.3387 16.1581C47.4355 16.1581 47.7847 16.1499 48.3864 16.1334C48.6136 16.1293 48.7471 16.1149 48.7871 16.0901C48.8271 16.0654 48.8576 16.0221 48.8787 15.9604C48.9292 15.8039 48.9586 15.5425 48.967 15.1759H49.4782L49.4529 16.5349L49.4782 17.8877H48.9354C48.9396 17.41 48.908 17.1155 48.8408 17.0044C48.7903 16.9221 48.6998 16.8706 48.5694 16.8499C48.279 16.8046 47.9066 16.782 47.4523 16.782C47.044 16.782 46.7075 16.7943 46.4424 16.8191V19.4382C46.4424 19.7307 46.4487 19.9819 46.4613 20.1919C46.8021 20.2166 47.206 20.2289 47.6731 20.2289C48.1275 20.2289 48.5471 20.2146 48.9322 20.1857C49.3172 20.1569 49.5539 20.1157 49.6422 20.0621C49.6717 20.0458 49.699 20.0087 49.7243 19.951C49.8001 19.7533 49.88 19.3786 49.9642 18.8267H50.4817C50.3891 19.642 50.3428 20.3134 50.3428 20.8405L50.2609 20.9208C49.9916 20.9497 49.6086 20.964 49.1121 20.964L48.0959 20.9455C47.0945 20.9332 46.4045 20.927 46.0258 20.927C45.925 20.9269 45.2224 20.9393 43.918 20.964Z" fill="#092264"/>
<path d="M53.3095 20.9638V20.4572C53.8144 20.4409 54.1142 20.4079 54.2089 20.3585C54.3035 20.309 54.3676 20.2267 54.4013 20.1113C54.4475 19.9344 54.4708 19.4009 54.4708 18.5114V14.8111C54.4708 13.8022 54.4645 13.238 54.4519 13.1185H53.5493C53.0948 13.1185 52.6951 13.133 52.3502 13.1618C52.2113 13.1741 52.1313 13.1906 52.1103 13.2112C52.0808 13.2359 52.0556 13.308 52.0345 13.4274C51.9798 13.7157 51.9482 14.039 51.9398 14.3973H51.416C51.3992 13.5531 51.3885 13.0775 51.3844 12.9703C51.3718 12.7891 51.3507 12.5935 51.3214 12.3835L51.3781 12.3218C51.5759 12.3425 51.7862 12.3568 52.0093 12.365C52.3711 12.3773 53.0675 12.3835 54.0984 12.3835H56.6482C57.7086 12.3835 58.4175 12.3773 58.7753 12.365C58.9686 12.3568 59.1644 12.3424 59.3622 12.3218L59.4253 12.3835C59.3874 12.6348 59.3643 12.8551 59.3558 13.0446C59.3516 13.0776 59.3432 13.5285 59.3306 14.3974H58.8067C58.7983 14.0761 58.771 13.7694 58.7247 13.477C58.6994 13.3287 58.6721 13.2403 58.6426 13.2114C58.6174 13.1908 58.5501 13.1764 58.4406 13.1681C58.0956 13.1352 57.681 13.1187 57.1973 13.1187H56.2948C56.2822 13.2629 56.2759 13.8271 56.2759 14.8113V18.5115C56.2759 19.4011 56.2989 19.9365 56.3452 20.1177C56.3747 20.2248 56.4377 20.3041 56.5346 20.3555C56.6313 20.4071 56.9322 20.441 57.4372 20.4574V20.964C56.6208 20.9269 55.9329 20.9085 55.3733 20.9085C54.7759 20.9083 54.0878 20.9267 53.3095 20.9638Z" fill="#092264"/>
<path d="M71.8968 19.8457L71.6064 20.4696C71.0805 20.7414 70.6082 20.9277 70.1896 21.0287C69.7708 21.1295 69.248 21.18 68.6211 21.18C67.729 21.18 66.9401 21.042 66.2544 20.7661C65.7156 20.5437 65.2592 20.2493 64.8848 19.8827C64.5102 19.5163 64.2219 19.1189 64.02 18.6906C63.7129 18.044 63.5593 17.3419 63.5593 16.584C63.5593 15.2868 64.0127 14.2273 64.9194 13.4057C65.8261 12.5842 67.1064 12.1733 68.7601 12.1733C69.328 12.1733 69.8382 12.2146 70.2906 12.2969C70.7428 12.3794 71.2678 12.5255 71.8653 12.7356L71.8969 12.8158C71.8295 13.0095 71.777 13.2525 71.7391 13.5448C71.676 14.0102 71.636 14.4405 71.6191 14.8358H71.1269C71.1185 14.3829 71.0974 14.0204 71.0639 13.7486C70.7819 13.4604 70.4653 13.2452 70.114 13.103C69.7626 12.961 69.3134 12.89 68.7666 12.89C67.7777 12.89 66.9866 13.1958 66.3934 13.8074C65.8001 14.4189 65.5035 15.2724 65.5035 16.3679C65.5035 17.031 65.6034 17.6096 65.8032 18.1038C66.0031 18.598 66.2693 19.0067 66.6017 19.33C66.9341 19.6533 67.2686 19.889 67.6052 20.0373C68.0638 20.235 68.6193 20.3339 69.2714 20.3339C69.7007 20.3339 70.1066 20.2866 70.4895 20.1918C70.8724 20.0971 71.289 19.9346 71.7392 19.7038L71.8968 19.8457Z" fill="#092264"/>
<path d="M72.9067 16.7447C72.9067 15.991 73.0235 15.3342 73.2569 14.774C73.4904 14.2141 73.8239 13.7385 74.2573 13.3472C74.6906 12.956 75.1619 12.6739 75.6711 12.5008C76.3232 12.2826 77.0344 12.1733 77.8044 12.1733C78.5702 12.1733 79.2644 12.2783 79.8872 12.4884C80.35 12.649 80.7591 12.8806 81.1148 13.1834C81.4703 13.4861 81.7407 13.796 81.9259 14.113C82.111 14.4302 82.2509 14.7781 82.3456 15.1571C82.4402 15.5359 82.4875 15.9539 82.4875 16.411C82.4875 17.1853 82.3509 17.9039 82.0773 18.5669C81.8753 19.0612 81.5797 19.4996 81.1905 19.8827C80.8012 20.2657 80.3584 20.5602 79.862 20.766C79.1803 21.0419 78.4018 21.1799 77.5266 21.1799C76.5799 21.1799 75.7667 21.012 75.0872 20.6764C74.4077 20.3408 73.8743 19.8456 73.4873 19.1908C73.1001 18.5362 72.9067 17.7207 72.9067 16.7447ZM74.8506 16.3802C74.8506 17.3399 74.9852 18.1337 75.2545 18.7616C75.5237 19.3897 75.8688 19.8334 76.2895 20.0928C76.7103 20.3523 77.2068 20.482 77.7791 20.482C78.3092 20.482 78.7836 20.3584 79.2024 20.1113C79.6209 19.8643 79.9491 19.4463 80.1869 18.8573C80.4246 18.2684 80.5435 17.5539 80.5435 16.7138C80.5435 16.1373 80.4794 15.6102 80.3511 15.1324C80.2226 14.6547 80.0386 14.2481 79.7988 13.9123C79.5589 13.5767 79.276 13.3204 78.9499 13.1432C78.6237 12.9662 78.1914 12.8777 77.6528 12.8777C77.0385 12.8777 76.5158 13.0188 76.0844 13.3009C75.653 13.583 75.3397 13.9999 75.144 14.5517C74.9484 15.1036 74.8506 15.713 74.8506 16.3802Z" fill="#092264"/>
<path d="M83.8571 20.964V20.649C83.9664 20.6037 84.12 20.5234 84.3178 20.408C84.4062 20.3586 84.463 20.3175 84.4883 20.2845C84.505 20.2639 84.5156 20.2412 84.5198 20.2164C84.5409 20.1136 84.5598 19.746 84.5766 19.1138C84.5933 18.4817 84.6019 17.723 84.6019 16.8374C84.6019 15.5361 84.5977 14.733 84.5893 14.4283C84.5725 13.6541 84.5451 13.2114 84.5072 13.1001C84.4904 13.0507 84.4588 13.0136 84.4126 12.989C84.3158 12.9273 83.9938 12.8861 83.4469 12.8654V12.3218C83.9811 12.3465 84.5914 12.3588 85.2772 12.3588C86.043 12.3588 86.7688 12.3465 87.4548 12.3218V12.8654C86.9792 12.8861 86.6888 12.9231 86.5837 12.9765C86.5374 13.0013 86.5037 13.0414 86.4828 13.0971C86.4616 13.1526 86.4418 13.4069 86.4229 13.86C86.404 14.313 86.3945 14.8855 86.3945 15.5773C86.3945 15.6515 86.3966 16.2466 86.4008 17.3626C86.4049 17.9516 86.408 18.5354 86.4102 19.1139C86.4123 19.6926 86.4155 20.0436 86.4196 20.1672C87.0004 20.1919 87.3958 20.2042 87.6063 20.2042C88.2458 20.2042 88.8033 20.1671 89.2788 20.0931C89.4513 20.0683 89.5543 20.0417 89.588 20.0128C89.6217 19.9841 89.6575 19.9077 89.6953 19.7842C89.7794 19.4713 89.8615 19.1131 89.9415 18.7093H90.4653C90.4527 18.8246 90.4464 18.8926 90.4464 18.9131L90.2885 20.161C90.2548 20.5523 90.2359 20.787 90.2318 20.8652C90.1097 20.8981 89.9877 20.9207 89.8658 20.9331C89.6091 20.9538 89.2115 20.964 88.6729 20.964C88.5972 20.964 88.1027 20.9538 87.1897 20.9331C86.4954 20.9167 86.0115 20.9083 85.738 20.9083C85.3254 20.9084 84.6986 20.9269 83.8571 20.964Z" fill="#092264"/>
<path d="M91.7527 20.964V20.649C91.8621 20.6037 92.0156 20.5234 92.2135 20.408C92.3019 20.3586 92.3586 20.3175 92.3839 20.2845C92.4007 20.2639 92.4113 20.2412 92.4155 20.2164C92.4365 20.1136 92.4555 19.746 92.4722 19.1138C92.4889 18.4817 92.4975 17.723 92.4975 16.8374C92.4975 15.5361 92.4933 14.733 92.4849 14.4283C92.4681 13.6541 92.4408 13.2114 92.4029 13.1001C92.3861 13.0507 92.3545 13.0136 92.3083 12.989C92.2114 12.9273 91.8895 12.8861 91.3425 12.8654V12.3218C91.8768 12.3465 92.487 12.3588 93.1729 12.3588C93.9386 12.3588 94.6645 12.3465 95.3503 12.3218V12.8654C94.8749 12.8861 94.5845 12.9231 94.4794 12.9765C94.4331 13.0013 94.3994 13.0414 94.3785 13.0971C94.3573 13.1526 94.3374 13.4069 94.3185 13.86C94.2997 14.313 94.2901 14.8855 94.2901 15.5773C94.2901 15.6515 94.2922 16.2466 94.2964 17.3626C94.3005 17.9516 94.3037 18.5354 94.3059 19.1139C94.308 19.6926 94.3111 20.0436 94.3153 20.1672C94.896 20.1919 95.2914 20.2042 95.5019 20.2042C96.1415 20.2042 96.6989 20.1671 97.1745 20.0931C97.3469 20.0683 97.45 20.0417 97.4836 20.0128C97.5173 19.9841 97.5531 19.9077 97.5909 19.7842C97.675 19.4713 97.7571 19.1131 97.8371 18.7093H98.3609C98.3483 18.8246 98.342 18.8926 98.342 18.9131L98.1842 20.161C98.1505 20.5523 98.1316 20.787 98.1274 20.8652C98.0053 20.8981 97.8833 20.9207 97.7613 20.9331C97.5046 20.9538 97.1071 20.964 96.5684 20.964C96.4927 20.964 95.9983 20.9538 95.0852 20.9331C94.391 20.9167 93.907 20.9083 93.6336 20.9083C93.2211 20.9084 92.5942 20.9269 91.7527 20.964Z" fill="#092264"/>
<path d="M99.56 20.964V20.6304C99.8124 20.5152 100.019 20.3956 100.178 20.2721C100.204 20.0991 100.225 19.8192 100.242 19.432C100.275 18.7237 100.292 18.2089 100.292 17.8876V15.1079C100.292 15.0008 100.286 14.5993 100.273 13.9033C100.261 13.4379 100.231 13.1538 100.185 13.0508C100.164 13.0096 100.132 12.9787 100.09 12.9581C99.9765 12.9087 99.6736 12.8717 99.1813 12.847V12.3219L100.646 12.3528C100.936 12.357 101.214 12.359 101.479 12.359C102.055 12.359 102.697 12.3528 103.404 12.3405L104.685 12.3096C104.836 12.3096 105.143 12.3179 105.606 12.3343C105.648 12.3343 105.718 12.3467 105.815 12.3714L105.859 12.4517L105.739 13.3413C105.735 13.4031 105.714 13.6996 105.676 14.2308H105.183C105.175 13.745 105.156 13.4463 105.127 13.3351C105.11 13.2775 105.085 13.2363 105.051 13.2116C104.996 13.1745 104.828 13.1416 104.546 13.1127C104.129 13.0674 103.721 13.0448 103.322 13.0448C102.947 13.0448 102.564 13.0592 102.173 13.088C102.114 13.5535 102.085 14.1443 102.085 14.8609V16.1273C102.371 16.148 102.669 16.1581 102.981 16.1581C103.077 16.1581 103.427 16.1499 104.028 16.1334C104.256 16.1293 104.389 16.1149 104.429 16.0901C104.469 16.0654 104.5 16.0221 104.521 15.9604C104.571 15.8039 104.601 15.5425 104.609 15.1759H105.12L105.095 16.5349L105.12 17.8877H104.577C104.582 17.41 104.55 17.1155 104.483 17.0044C104.432 16.9221 104.342 16.8706 104.211 16.8499C103.921 16.8046 103.549 16.782 103.094 16.782C102.686 16.782 102.35 16.7943 102.084 16.8191V19.4382C102.084 19.7307 102.091 19.9819 102.103 20.1919C102.444 20.2166 102.848 20.2289 103.315 20.2289C103.769 20.2289 104.189 20.2146 104.574 20.1857C104.959 20.1569 105.196 20.1157 105.284 20.0621C105.314 20.0458 105.341 20.0087 105.366 19.951C105.442 19.7533 105.522 19.3786 105.606 18.8267H106.124C106.031 19.642 105.985 20.3134 105.985 20.8405L105.903 20.9208C105.634 20.9497 105.251 20.964 104.754 20.964L103.738 20.9455C102.737 20.9332 102.047 20.927 101.668 20.927C101.567 20.9269 100.864 20.9393 99.56 20.964Z" fill="#092264"/>
<path d="M115.686 19.8457L115.396 20.4696C114.87 20.7414 114.397 20.9277 113.979 21.0287C113.56 21.1295 113.037 21.18 112.41 21.18C111.518 21.18 110.729 21.042 110.043 20.7661C109.505 20.5437 109.048 20.2493 108.674 19.8827C108.299 19.5163 108.011 19.1189 107.809 18.6906C107.502 18.044 107.348 17.3419 107.348 16.584C107.348 15.2868 107.802 14.2273 108.709 13.4057C109.615 12.5842 110.896 12.1733 112.549 12.1733C113.117 12.1733 113.627 12.2146 114.08 12.2969C114.532 12.3794 115.057 12.5255 115.654 12.7356L115.686 12.8158C115.619 13.0095 115.566 13.2525 115.528 13.5448C115.465 14.0102 115.425 14.4405 115.408 14.8358H114.916C114.908 14.3829 114.887 14.0204 114.853 13.7486C114.571 13.4604 114.254 13.2452 113.903 13.103C113.552 12.961 113.102 12.89 112.556 12.89C111.567 12.89 110.776 13.1958 110.182 13.8074C109.589 14.4189 109.293 15.2724 109.293 16.3679C109.293 17.031 109.392 17.6096 109.592 18.1038C109.792 18.598 110.058 19.0067 110.391 19.33C110.723 19.6533 111.058 19.889 111.394 20.0373C111.853 20.235 112.408 20.3339 113.06 20.3339C113.49 20.3339 113.896 20.2866 114.279 20.1918C114.661 20.0971 115.078 19.9346 115.528 19.7038L115.686 19.8457Z" fill="#092264"/>
<path d="M118.286 20.9638V20.4572C118.791 20.4409 119.091 20.4079 119.186 20.3585C119.28 20.309 119.344 20.2267 119.378 20.1113C119.424 19.9344 119.448 19.4009 119.448 18.5114V14.8111C119.448 13.8022 119.441 13.238 119.429 13.1185H118.526C118.072 13.1185 117.672 13.133 117.327 13.1618C117.188 13.1741 117.108 13.1906 117.087 13.2112C117.058 13.2359 117.032 13.308 117.011 13.4274C116.957 13.7157 116.925 14.039 116.917 14.3973H116.393C116.376 13.5531 116.365 13.0775 116.361 12.9703C116.349 12.7891 116.328 12.5935 116.298 12.3835L116.355 12.3218C116.553 12.3425 116.763 12.3568 116.986 12.365C117.348 12.3773 118.044 12.3835 119.075 12.3835H121.625C122.685 12.3835 123.394 12.3773 123.752 12.365C123.945 12.3568 124.141 12.3424 124.339 12.3218L124.402 12.3835C124.364 12.6348 124.341 12.8551 124.333 13.0446C124.328 13.0776 124.32 13.5285 124.307 14.3974H123.783C123.775 14.0761 123.748 13.7694 123.701 13.477C123.676 13.3287 123.649 13.2403 123.619 13.2114C123.594 13.1908 123.527 13.1764 123.417 13.1681C123.072 13.1352 122.658 13.1187 122.174 13.1187H121.272C121.259 13.2629 121.253 13.8271 121.253 14.8113V18.5115C121.253 19.4011 121.276 19.9365 121.322 20.1177C121.351 20.2248 121.415 20.3041 121.511 20.3555C121.608 20.4071 121.909 20.441 122.414 20.4574V20.964C121.598 20.9269 120.91 20.9085 120.35 20.9085C119.753 20.9083 119.065 20.9267 118.286 20.9638Z" fill="#092264"/>
<path d="M129.256 12.3218V12.8654C128.83 12.8777 128.578 12.8932 128.498 12.9117C128.418 12.9303 128.361 12.9529 128.328 12.9797C128.294 13.0066 128.271 13.0405 128.258 13.0816C128.229 13.1517 128.208 13.2855 128.195 13.4832C128.187 13.5903 128.18 13.792 128.176 14.0885C128.159 15.1017 128.151 15.6474 128.151 15.7256V18.2151L128.17 19.3456C128.17 19.7698 128.191 20.0457 128.233 20.1733C128.25 20.231 128.278 20.2752 128.318 20.3061C128.358 20.337 128.421 20.3617 128.508 20.3802C128.594 20.3988 128.843 20.4123 129.255 20.4204V20.9641C128.57 20.9394 127.837 20.927 127.059 20.927C126.381 20.927 125.778 20.9394 125.248 20.9641V20.4204C125.685 20.4041 125.938 20.3896 126.005 20.3772C126.093 20.3607 126.153 20.3381 126.185 20.3092C126.216 20.2805 126.236 20.2475 126.245 20.2104C126.257 20.161 126.274 19.9675 126.295 19.6297C126.329 19.1355 126.346 18.6783 126.346 18.2583V15.6762C126.346 14.8567 126.342 14.3295 126.333 14.0948C126.312 13.5718 126.287 13.2445 126.257 13.1125C126.245 13.0591 126.225 13.0179 126.198 12.989C126.17 12.9603 126.12 12.9365 126.046 12.918C125.972 12.8994 125.706 12.8819 125.248 12.8654V12.3218C125.778 12.3465 126.386 12.3588 127.072 12.3588C127.842 12.3588 128.57 12.3465 129.256 12.3218Z" fill="#092264"/>
<path d="M134.355 21.0071C133.998 20.1422 133.655 19.3206 133.326 18.5423L132.43 16.4482C131.728 14.805 131.295 13.8259 131.133 13.5108C130.971 13.1958 130.848 13.0157 130.764 12.9703C130.638 12.9045 130.377 12.8674 129.981 12.8592V12.3218C130.991 12.3507 131.606 12.365 131.824 12.365L134.09 12.3218V12.8592C133.737 12.8633 133.48 12.8839 133.32 12.9209C133.228 12.9416 133.163 12.9714 133.128 13.0105C133.092 13.0497 133.074 13.1001 133.074 13.1619C133.074 13.2855 133.213 13.6768 133.491 14.3356C133.651 14.7146 133.736 14.9194 133.746 14.9503C133.757 14.9811 133.77 15.0193 133.787 15.0646L135.384 18.876L136.785 15.4785C136.819 15.4002 136.968 15.0112 137.233 14.311C137.423 13.8168 137.538 13.4854 137.58 13.3164C137.589 13.267 137.593 13.2176 137.593 13.1682C137.593 13.0982 137.581 13.0456 137.558 13.0107C137.535 12.9758 137.505 12.95 137.467 12.9335C137.437 12.9212 137.362 12.911 137.24 12.9027C136.966 12.8779 136.735 12.8636 136.545 12.8594V12.322L138.148 12.3591L139.512 12.322V12.8594C139.103 12.8965 138.866 12.9398 138.798 12.9892C138.685 13.0757 138.447 13.5431 138.085 14.3914L137.637 15.4169L136.785 17.406C136.061 19.1027 135.571 20.3031 135.315 21.0074H134.355V21.0071Z" fill="#092264"/>
<path d="M140.496 20.964V20.6304C140.749 20.5152 140.955 20.3956 141.115 20.2721C141.14 20.0991 141.161 19.8192 141.178 19.432C141.211 18.7237 141.228 18.2089 141.228 17.8876V15.1079C141.228 15.0008 141.222 14.5993 141.209 13.9033C141.197 13.4379 141.167 13.1538 141.121 13.0508C141.1 13.0096 141.068 12.9787 141.026 12.9581C140.913 12.9087 140.61 12.8717 140.118 12.847V12.3219L141.582 12.3528C141.872 12.357 142.15 12.359 142.415 12.359C142.991 12.359 143.633 12.3528 144.34 12.3405L145.621 12.3096C145.773 12.3096 146.08 12.3179 146.543 12.3343C146.585 12.3343 146.654 12.3467 146.751 12.3714L146.795 12.4517L146.675 13.3413C146.671 13.4031 146.65 13.6996 146.612 14.2308H146.12C146.111 13.745 146.092 13.4463 146.063 13.3351C146.046 13.2775 146.021 13.2363 145.987 13.2116C145.933 13.1745 145.764 13.1416 145.482 13.1127C145.066 13.0674 144.658 13.0448 144.258 13.0448C143.883 13.0448 143.5 13.0592 143.109 13.088C143.05 13.5535 143.021 14.1443 143.021 14.8609V16.1273C143.307 16.148 143.606 16.1581 143.917 16.1581C144.014 16.1581 144.363 16.1499 144.965 16.1334C145.192 16.1293 145.325 16.1149 145.365 16.0901C145.405 16.0654 145.436 16.0221 145.457 15.9604C145.507 15.8039 145.537 15.5425 145.545 15.1759H146.057L146.031 16.5349L146.057 17.8877H145.514C145.518 17.41 145.486 17.1155 145.419 17.0044C145.369 16.9221 145.278 16.8706 145.148 16.8499C144.857 16.8046 144.485 16.782 144.031 16.782C143.622 16.782 143.286 16.7943 143.021 16.8191V19.4382C143.021 19.7307 143.027 19.9819 143.04 20.1919C143.38 20.2166 143.784 20.2289 144.251 20.2289C144.706 20.2289 145.125 20.2146 145.51 20.1857C145.895 20.1569 146.132 20.1157 146.221 20.0621C146.25 20.0458 146.277 20.0087 146.303 19.951C146.378 19.7533 146.458 19.3786 146.543 18.8267H147.06C146.967 19.642 146.921 20.3134 146.921 20.8405L146.839 20.9208C146.57 20.9497 146.187 20.964 145.69 20.964L144.674 20.9455C143.673 20.9332 142.983 20.927 142.604 20.927C142.503 20.9269 141.801 20.9393 140.496 20.964Z" fill="#092264"/>
</svg>
