<svg width="150" height="32" viewBox="0 0 150 32" fill="none" xmlns="http://www.w3.org/2000/svg">
<rect width="150" height="32" fill="#D7F0FA"/>
<path d="M28.6075 15.9996C28.6075 17.6198 28.2834 19.1917 27.6443 20.6712C27.0263 22.0997 26.1428 23.3829 25.0165 24.4852C23.8912 25.5866 22.5801 26.4523 21.1197 27.0563C19.608 27.6827 18.002 28 16.3475 28C14.693 28 13.087 27.6827 11.5754 27.0563C10.115 26.4523 8.80385 25.5866 7.67855 24.4852C6.55231 23.3829 5.66785 22.0997 5.05073 20.6712C4.41161 19.1917 4.08749 17.6198 4.08749 15.9996C4.08749 14.3802 4.41161 12.8084 5.05073 11.3288C5.66785 9.89943 6.55231 8.61707 7.67855 7.51476C8.80385 6.41246 10.115 5.5477 11.5754 4.94277C13.087 4.31733 14.6931 4 16.3475 4C18.002 4 19.608 4.31724 21.1197 4.94277C22.5801 5.5477 23.8912 6.41246 25.0165 7.51476C26.1427 8.61697 27.0263 9.89943 27.6443 11.3288C28.2834 12.8084 28.6075 14.3803 28.6075 15.9996Z" fill="#092264"/>
<path d="M27.9453 11.2044C27.3113 9.73735 26.4038 8.41984 25.2479 7.28856C24.0921 6.15727 22.746 5.26899 21.247 4.64851C19.6949 4.00595 18.0464 3.68018 16.3474 3.68018C14.6483 3.68018 12.9999 4.00595 11.4477 4.64851C9.94877 5.26899 8.60267 6.15727 7.44682 7.28856C6.29098 8.41984 5.38348 9.73735 4.74944 11.2044C4.09293 12.7236 3.76007 14.3371 3.76007 16C3.76007 17.6629 4.09293 19.2764 4.74944 20.7955C5.38348 22.2626 6.29098 23.58 7.44682 24.7114C8.60267 25.8427 9.94877 26.7309 11.4477 27.3515C12.9999 27.994 14.6483 28.3198 16.3474 28.3198C18.0465 28.3198 19.6949 27.994 21.247 27.3515C22.746 26.731 24.0921 25.8427 25.2479 24.7114C26.4038 23.5801 27.3113 22.2626 27.9453 20.7955C28.6018 19.2764 28.9347 17.6629 28.9347 16C28.9347 14.3371 28.6018 12.7236 27.9453 11.2044ZM24.6776 24.1531C22.4525 26.3309 19.4942 27.5303 16.3475 27.5303C13.2008 27.5303 10.2423 26.331 8.01732 24.1531C5.7922 21.9753 4.56689 19.0798 4.56689 16C4.56689 12.9201 5.7923 10.0246 8.01732 7.84683C10.2424 5.669 13.2008 4.46962 16.3475 4.46962C19.4942 4.46962 22.4526 5.669 24.6776 7.84683C26.9028 10.0246 28.1281 12.9201 28.1281 16C28.1281 19.0798 26.9028 21.9754 24.6776 24.1531Z" fill="white"/>
<path d="M9.97772 16.1072C10.0305 16.0356 10.0844 15.9646 10.1404 15.8931C10.0838 15.9647 10.0297 16.0362 9.97772 16.1072Z" fill="white"/>
<path d="M25.403 11.4607C24.88 11.4607 24.4202 11.7824 24.3089 12.226L23.5914 15.0848C23.5724 15.0842 23.5539 15.0848 23.5354 15.0848C23.3061 14.4065 22.8609 13.5264 22.1692 12.7663L22.1639 12.7727L22.1685 12.7663C21.2872 11.7863 20.1607 11.019 18.9631 10.4388C19.4821 10.0577 19.9993 9.63283 20.4262 9.17566C20.89 8.67792 21.859 7.55663 21.0843 6.98023C20.3202 6.41219 18.7069 7.63336 17.9744 7.92152C17.3571 7.13424 16.9058 6.63135 16.3769 6.63135C15.8427 6.63135 15.3802 7.1543 14.7247 7.92152C14.1424 7.53657 12.3064 6.53209 11.6582 6.9853C10.7781 7.60044 12.9823 9.80358 13.8031 10.447C12.4863 11.1001 11.3802 11.9718 10.564 12.8687C10.5423 12.8925 10.5211 12.9165 10.4994 12.9403C10.4784 12.9641 10.4572 12.988 10.4368 13.0112C10.3538 13.1066 10.2734 13.202 10.197 13.2974C10.1779 13.3213 10.1588 13.3452 10.1403 13.369C10.0843 13.4406 10.0304 13.5115 9.97763 13.5831C9.96052 13.6069 9.94341 13.6301 9.92621 13.654C9.9091 13.6779 9.89265 13.7018 9.8762 13.725C9.85975 13.7488 9.8433 13.7727 9.82741 13.7959C9.81096 13.8197 9.79508 13.843 9.77929 13.8668C9.76415 13.89 9.74836 13.9139 9.73313 13.9371C9.71799 13.961 9.70286 13.9842 9.68838 14.0074C9.62907 14.1009 9.5737 14.1937 9.52238 14.286C9.48346 14.355 9.44661 14.4234 9.41239 14.4917C9.40055 14.5142 9.38937 14.5368 9.37874 14.5594C9.34387 14.6297 9.31153 14.6999 9.28126 14.7689C9.27336 14.7883 9.26547 14.807 9.25758 14.8264C9.24507 14.8547 9.23389 14.8831 9.22336 14.9108C9.21678 14.9263 9.21085 14.9411 9.20559 14.9566C9.18914 14.9998 9.17401 15.0424 9.15944 15.085C9.14101 15.085 9.12249 15.0843 9.10341 15.085L8.38609 12.2261C8.27479 11.7825 7.81493 11.4609 7.2919 11.4609C6.67469 11.4609 6.17206 11.8973 6.17206 12.4338V13.8213C6.36448 16.5712 6.74848 17.5776 7.52982 19.4172C8.62532 21.9955 11.4527 23.9195 11.481 23.9388L11.4849 23.9414C12.8393 24.7429 14.6193 25.3096 15.942 25.3637V25.3689H16.0198C16.0474 25.3689 16.0758 25.3682 16.1041 25.3682L16.1074 25.3676C16.1891 25.3682 16.2695 25.3669 16.3472 25.3631L16.3478 25.354V25.3631C16.4256 25.3669 16.506 25.3682 16.5876 25.3676L16.5909 25.3682C16.6192 25.3682 16.6476 25.3689 16.6753 25.3689H16.753V25.3637C18.0758 25.3095 19.8557 24.7428 21.2101 23.9414L21.214 23.9388C21.2423 23.9195 24.0697 21.9955 25.1652 19.4172C25.9465 17.5776 26.3306 16.5712 26.5229 13.8213V12.4338C26.523 11.8971 26.0203 11.4607 25.403 11.4607ZM15.942 24.5891C15.4144 24.5769 14.7246 24.4363 14.257 24.297C13.0317 23.9328 11.9033 23.3054 10.9955 22.4833C9.90327 21.4943 9.00997 20.364 8.34134 19.1235C7.45274 17.4736 6.98235 15.6386 6.98235 13.8172V12.4438C6.98235 12.3168 7.07589 12.2059 7.20965 12.1743C7.23738 12.1679 7.26502 12.1647 7.292 12.1647C7.34802 12.1647 7.40263 12.1776 7.45142 12.2033C7.52455 12.242 7.57654 12.3046 7.5944 12.3761C8.02784 14.1034 8.3671 15.8339 9.21161 17.4259C9.64834 18.2492 9.99887 18.7238 10.6575 19.4207C10.9473 19.7276 11.3518 20.1905 12.1008 20.9139C12.6061 21.402 13.0791 20.8571 12.7392 20.48C11.6285 19.2389 10.2966 18.0551 9.7102 16.4651C9.64364 16.2846 9.61469 15.9674 9.81425 15.8481C10.056 15.7036 10.3228 15.988 10.4717 16.1434C11.2497 16.9539 11.9862 17.8688 12.8551 18.5832C13.5791 19.1783 14.363 19.5568 14.9434 20.3182C15.5764 21.148 15.942 22.159 15.942 23.1976V24.5891ZM16.5573 17.6032H16.137C16.0026 17.6032 15.9005 17.4853 15.9223 17.3556L16.006 16.8528C15.8063 16.8334 15.5995 16.7973 15.386 16.7425C15.1719 16.6884 15.0376 16.6613 14.9815 16.6613C14.9447 16.6613 14.911 16.6658 14.8801 16.6742C14.8076 16.6941 14.7338 16.6458 14.7273 16.5717C14.6913 16.1911 14.6543 15.7625 14.6163 15.2847C14.6129 15.2414 14.67 15.2225 14.6943 15.2589C14.7433 15.3323 14.8055 15.4009 14.8788 15.4647C15.0144 15.5826 15.1884 15.6839 15.386 15.769C15.7806 15.9392 16.1554 16.0063 16.5112 15.9708C16.8663 15.9354 17.0441 15.8167 17.0441 15.6136V15.5995C17.0441 15.5054 16.9848 15.4331 16.8663 15.3835C16.7476 15.3338 16.5237 15.2713 16.1937 15.1959C16.0079 15.1534 15.8597 15.1178 15.7483 15.0895C15.6363 15.0612 15.5085 15.0211 15.365 14.9689C15.2207 14.9173 15.1081 14.8619 15.027 14.8025C14.946 14.7438 14.8656 14.671 14.7866 14.5833C14.7075 14.4963 14.6508 14.3925 14.616 14.2719C14.581 14.1512 14.5639 14.0159 14.5639 13.8644V13.8573C14.5639 13.4942 14.6924 13.1945 14.9506 12.9585C15.2082 12.7225 15.5599 12.5858 16.006 12.5478L15.9223 12.0449C15.9006 11.9152 16.0027 11.7973 16.137 11.7973H16.5593C16.6929 11.7973 16.7951 11.9147 16.774 12.0442L16.6883 12.5762C16.7766 12.5859 16.8872 12.6007 17.0197 12.622C17.152 12.6433 17.2621 12.6601 17.3504 12.6717C17.4386 12.6833 17.5085 12.6891 17.5592 12.6891C17.5968 12.6891 17.6304 12.6865 17.6594 12.6814C17.7299 12.6698 17.7958 12.7188 17.801 12.789C17.8129 12.9522 17.8313 13.1669 17.8557 13.4332C17.8742 13.6334 17.8885 13.7917 17.8985 13.9083C17.902 13.9495 17.8475 13.9704 17.8226 13.937C17.7805 13.8806 17.7275 13.8283 17.6654 13.78C17.5416 13.6826 17.3807 13.6027 17.197 13.5389C16.83 13.4118 16.4809 13.3738 16.1488 13.426C15.8168 13.4776 15.6502 13.5936 15.6502 13.7728V13.7799C15.6502 13.8695 15.7141 13.9424 15.8418 13.9991C15.9696 14.0559 16.1982 14.1198 16.5282 14.1906C16.8069 14.2467 17.0322 14.3035 17.2041 14.3602C17.376 14.4169 17.5388 14.4936 17.6916 14.5904C17.8451 14.6871 17.9564 14.8096 18.0262 14.9585C18.0961 15.1074 18.131 15.2879 18.131 15.5001V15.5143C18.131 15.8921 18.0019 16.199 17.7443 16.435C17.4861 16.671 17.1343 16.8103 16.6883 16.8528L16.7726 17.355C16.7944 17.4853 16.6916 17.6032 16.5573 17.6032ZM25.7127 13.8173C25.7127 15.6387 25.2423 17.4737 24.3536 19.1236C23.685 20.3641 22.7917 21.4944 21.6995 22.4834C20.7917 23.3055 19.6633 23.9329 18.438 24.2971C17.9702 24.4364 17.2805 24.577 16.7529 24.5892V23.1978C16.7529 22.1591 17.1186 21.1482 17.7516 20.3184C18.3319 19.557 19.1158 19.1784 19.8398 18.5833C20.7087 17.8689 21.4452 16.9541 22.2231 16.1436C22.372 15.9882 22.6388 15.7038 22.8806 15.8483C23.0803 15.9676 23.0512 16.2847 22.9847 16.4653C22.3984 18.0552 21.0664 19.2391 19.9557 20.4802C19.6158 20.8574 20.0888 21.4022 20.5941 20.9141C21.3431 20.1907 21.7476 19.7277 22.0374 19.4209C22.6962 18.7238 23.0466 18.2494 23.4833 17.426C24.3278 15.8342 24.6671 14.1036 25.1006 12.3763C25.1184 12.3047 25.1705 12.2421 25.2436 12.2035C25.2923 12.1777 25.347 12.1649 25.403 12.1649C25.43 12.1649 25.4578 12.1681 25.4854 12.1745C25.6191 12.2061 25.7127 12.317 25.7127 12.444V13.8173Z" fill="white"/>
<path d="M34.71 20.2869V19.9965C34.9329 19.869 35.118 19.7413 35.2654 19.6135C35.2907 19.4118 35.3074 19.1647 35.3159 18.8722C35.3326 18.271 35.3412 17.1777 35.3412 15.5921C35.3412 15.168 35.3307 14.507 35.3096 13.6092C35.297 12.9173 35.2738 12.5219 35.2401 12.423C35.219 12.3613 35.1875 12.318 35.1455 12.2933C35.0571 12.2357 34.7416 12.1904 34.1988 12.1574V11.6447C34.2913 11.6447 34.3881 11.6468 34.4892 11.6508L35.3601 11.6756C35.6462 11.6797 36.0017 11.6817 36.4267 11.6817C36.8475 11.6817 37.1777 11.6777 37.4176 11.6694C38.0235 11.6447 38.4189 11.6323 38.6042 11.6323C39.2985 11.6323 39.8339 11.7025 40.2106 11.8424C40.5871 11.9824 40.8627 12.1852 41.0373 12.4508C41.2119 12.7164 41.2992 13.0141 41.2992 13.3434C41.2992 13.6977 41.1993 14.0271 40.9994 14.3319C40.7995 14.6367 40.5439 14.8735 40.2326 15.0423C40.0474 15.1452 39.635 15.2832 38.9955 15.4561C39.7613 15.5467 40.2945 15.6662 40.5954 15.8144C40.8962 15.9627 41.1372 16.1944 41.3181 16.5094C41.499 16.8244 41.5895 17.1756 41.5895 17.5626C41.5895 17.9704 41.4969 18.34 41.3118 18.6715C41.1266 19.0031 40.8879 19.2862 40.5954 19.5209C40.3029 19.7556 39.9674 19.9421 39.5889 20.0799C39.2101 20.2179 38.7367 20.2869 38.1688 20.2869L36.048 20.2498C35.7072 20.2498 35.2611 20.2622 34.71 20.2869ZM37.1021 15.2091L37.4681 15.2152C37.7542 15.2152 38.0193 15.1926 38.2634 15.1473C38.5074 15.102 38.7051 15.0228 38.8567 14.9095C39.0082 14.7964 39.1353 14.6275 39.2385 14.4031C39.3415 14.1787 39.3932 13.9202 39.3932 13.6277C39.3932 13.3312 39.3343 13.079 39.2165 12.871C39.0986 12.663 38.9451 12.5148 38.7557 12.4262C38.5664 12.3377 38.2824 12.2934 37.9037 12.2934C37.6301 12.2934 37.3819 12.3099 37.1589 12.3429C37.1336 12.6394 37.119 12.9812 37.1147 13.3683L37.1022 14.3258L37.1021 15.2091ZM37.1272 19.595C37.2661 19.6238 37.5269 19.6383 37.9099 19.6383C38.4315 19.6383 38.8535 19.4704 39.1752 19.1348C39.4972 18.7992 39.658 18.3184 39.658 17.6924C39.658 17.2476 39.5739 16.8874 39.4056 16.6113C39.2373 16.3354 39.0143 16.1409 38.7365 16.0276C38.4589 15.9143 38.076 15.8576 37.5878 15.8576C37.4153 15.8576 37.2533 15.8659 37.1019 15.8824V18.6993L37.1144 19.4343C37.1146 19.4551 37.1189 19.5085 37.1272 19.595Z" fill="#092264"/>
<path d="M43.0979 20.2872V19.9537C43.3503 19.8384 43.5565 19.7189 43.7164 19.5953C43.7417 19.4223 43.7626 19.1424 43.7795 18.7552C43.8131 18.0469 43.8299 17.5321 43.8299 17.2108V14.4311C43.8299 14.324 43.8236 13.9225 43.811 13.2265C43.7984 12.7612 43.7689 12.4771 43.7227 12.374C43.7015 12.3329 43.67 12.302 43.628 12.2814C43.5144 12.232 43.2115 12.1949 42.7192 12.1702V11.6452L44.1835 11.6761C44.4738 11.6802 44.7514 11.6822 45.0165 11.6822C45.5929 11.6822 46.2346 11.676 46.9416 11.6637L48.2227 11.6328C48.3743 11.6328 48.6814 11.6411 49.1443 11.6576C49.1863 11.6576 49.2558 11.6699 49.3526 11.6947L49.3968 11.775L49.2769 12.6646C49.2726 12.7263 49.2516 13.0228 49.2138 13.5541H48.7214C48.713 13.0682 48.694 12.7695 48.6646 12.6584C48.6478 12.6008 48.6225 12.5596 48.5889 12.5348C48.5342 12.4978 48.3658 12.4648 48.084 12.4359C47.6674 12.3907 47.2592 12.368 46.8595 12.368C46.4849 12.368 46.1021 12.3825 45.7108 12.4113C45.6519 12.8767 45.6225 13.4676 45.6225 14.1842V15.4505C45.9085 15.4712 46.2072 15.4814 46.5187 15.4814C46.6154 15.4814 46.9646 15.4732 47.5663 15.4566C47.7935 15.4526 47.927 15.4381 47.967 15.4134C48.007 15.3886 48.0375 15.3454 48.0586 15.2836C48.1091 15.1272 48.1385 14.8658 48.147 14.4991H48.6581L48.6329 15.8581L48.6581 17.211H48.1154C48.1195 16.7333 48.0879 16.4388 48.0207 16.3276C47.9702 16.2453 47.8797 16.1938 47.7493 16.1731C47.459 16.1279 47.0865 16.1053 46.6322 16.1053C46.224 16.1053 45.8874 16.1176 45.6224 16.1423V18.7615C45.6224 19.054 45.6287 19.3052 45.6413 19.5151C45.982 19.5399 46.3859 19.5522 46.853 19.5522C47.3074 19.5522 47.7271 19.5378 48.1121 19.5089C48.4971 19.4801 48.7338 19.4389 48.8222 19.3854C48.8516 19.369 48.879 19.3319 48.9042 19.2742C48.98 19.0765 49.0599 18.7019 49.1441 18.1499H49.6616C49.569 18.9653 49.5228 19.6366 49.5228 20.1637L49.4408 20.2441C49.1715 20.273 48.7885 20.2873 48.292 20.2873L47.2759 20.2687C46.2744 20.2564 45.5845 20.2502 45.2057 20.2502C45.105 20.2501 44.4023 20.2625 43.0979 20.2872Z" fill="#092264"/>
<path d="M52.4894 20.287V19.7805C52.9944 19.7641 53.2941 19.7311 53.3888 19.6817C53.4835 19.6323 53.5476 19.5499 53.5812 19.4346C53.6275 19.2576 53.6507 18.7242 53.6507 17.8346V14.1343C53.6507 13.1254 53.6444 12.5613 53.6318 12.4417H52.7293C52.2748 12.4417 51.875 12.4562 51.5301 12.485C51.3913 12.4973 51.3113 12.5138 51.2902 12.5344C51.2607 12.5592 51.2355 12.6312 51.2144 12.7506C51.1597 13.039 51.1281 13.3622 51.1198 13.7206H50.5959C50.5791 12.8763 50.5685 12.4007 50.5643 12.2935C50.5517 12.1124 50.5307 11.9168 50.5013 11.7067L50.558 11.645C50.7558 11.6657 50.9661 11.68 51.1892 11.6882C51.5511 11.7006 52.2474 11.7067 53.2783 11.7067H55.8281C56.8885 11.7067 57.5974 11.7006 57.9552 11.6882C58.1486 11.68 58.3443 11.6656 58.5422 11.645L58.6052 11.7067C58.5674 11.958 58.5442 12.1784 58.5358 12.3678C58.5315 12.4008 58.5232 12.8518 58.5105 13.7206H57.9866C57.9782 13.3994 57.9509 13.0927 57.9046 12.8002C57.8794 12.652 57.852 12.5635 57.8226 12.5346C57.7973 12.514 57.73 12.4996 57.6206 12.4913C57.2755 12.4584 56.8609 12.442 56.3772 12.442H55.4747C55.4621 12.5861 55.4558 13.1503 55.4558 14.1346V17.8348C55.4558 18.7244 55.4788 19.2597 55.5252 19.4409C55.5546 19.5481 55.6177 19.6273 55.7145 19.6787C55.8112 19.7303 56.1121 19.7643 56.6171 19.7807V20.2873C55.8007 20.2502 55.1128 20.2317 54.5532 20.2317C53.9558 20.2315 53.2677 20.25 52.4894 20.287Z" fill="#092264"/>
<path d="M71.0767 19.1689L70.7864 19.7928C70.2604 20.0646 69.7882 20.251 69.3695 20.3519C68.9507 20.4527 68.428 20.5033 67.8011 20.5033C66.9089 20.5033 66.12 20.3652 65.4343 20.0893C64.8956 19.867 64.4391 19.5725 64.0647 19.206C63.6901 18.8395 63.4019 18.4422 63.2 18.0138C62.8929 17.3673 62.7393 16.6651 62.7393 15.9073C62.7393 14.61 63.1926 13.5506 64.0994 12.729C65.006 11.9075 66.2863 11.4966 67.94 11.4966C68.508 11.4966 69.0181 11.5378 69.4705 11.6202C69.9227 11.7026 70.4478 11.8487 71.0453 12.0589L71.0768 12.1391C71.0094 12.3328 70.9569 12.5757 70.919 12.868C70.8559 13.3335 70.8159 13.7637 70.7991 14.1591H70.3069C70.2984 13.7062 70.2774 13.3437 70.2438 13.0719C69.9618 12.7836 69.6452 12.5684 69.2939 12.4263C68.9425 12.2842 68.4933 12.2132 67.9465 12.2132C66.9576 12.2132 66.1666 12.519 65.5733 13.1306C64.9801 13.7422 64.6834 14.5957 64.6834 15.6912C64.6834 16.3543 64.7833 16.9328 64.9832 17.427C65.183 17.9212 65.4492 18.3299 65.7816 18.6532C66.114 18.9765 66.4486 19.2123 66.7851 19.3606C67.2437 19.5582 67.7992 19.6571 68.4514 19.6571C68.8806 19.6571 69.2865 19.6098 69.6694 19.5151C70.0523 19.4204 70.4689 19.2578 70.9191 19.0271L71.0767 19.1689Z" fill="#092264"/>
<path d="M72.0866 16.0679C72.0866 15.3142 72.2035 14.6574 72.4369 14.0973C72.6704 13.5373 73.0038 13.0617 73.4372 12.6704C73.8706 12.2792 74.3418 11.9971 74.851 11.824C75.5031 11.6058 76.2143 11.4966 76.9843 11.4966C77.7501 11.4966 78.4443 11.6016 79.0672 11.8116C79.53 11.9723 79.939 12.2038 80.2948 12.5066C80.6503 12.8093 80.9206 13.1193 81.1058 13.4362C81.2909 13.7535 81.4309 14.1013 81.5255 14.4803C81.6202 14.8592 81.6675 15.2771 81.6675 15.7342C81.6675 16.5085 81.5308 17.2272 81.2572 17.8902C81.0552 18.3844 80.7596 18.8229 80.3704 19.2059C79.9812 19.5889 79.5383 19.8834 79.0419 20.0892C78.3602 20.3652 77.5818 20.5032 76.7065 20.5032C75.7598 20.5032 74.9466 20.3352 74.2672 19.9996C73.5876 19.6641 73.0543 19.1688 72.6673 18.514C72.2801 17.8594 72.0866 17.0439 72.0866 16.0679ZM74.0306 15.7035C74.0306 16.6631 74.1652 17.4569 74.4344 18.0849C74.7036 18.713 75.0487 19.1566 75.4695 19.416C75.8902 19.6755 76.3867 19.8052 76.959 19.8052C77.4892 19.8052 77.9635 19.6817 78.3823 19.4346C78.8009 19.1875 79.129 18.7695 79.3669 18.1805C79.6045 17.5917 79.7234 16.8771 79.7234 16.037C79.7234 15.4605 79.6593 14.9334 79.531 14.4556C79.4026 13.9779 79.2185 13.5713 78.9787 13.2356C78.7388 12.9 78.4559 12.6436 78.1298 12.4665C77.8036 12.2895 77.3713 12.2009 76.8328 12.2009C76.2185 12.2009 75.6957 12.342 75.2643 12.6241C74.833 12.9062 74.5197 13.3232 74.3239 13.875C74.1283 14.4268 74.0306 15.0363 74.0306 15.7035Z" fill="#092264"/>
<path d="M83.0371 20.2872V19.9722C83.1463 19.927 83.2999 19.8466 83.4978 19.7312C83.5861 19.6818 83.6429 19.6407 83.6682 19.6077C83.6849 19.5871 83.6955 19.5644 83.6998 19.5397C83.7208 19.4368 83.7397 19.0693 83.7565 18.437C83.7733 17.805 83.7818 17.0462 83.7818 16.1607C83.7818 14.8594 83.7776 14.0563 83.7692 13.7515C83.7524 12.9773 83.7251 12.5346 83.6872 12.4234C83.6703 12.374 83.6388 12.3369 83.5925 12.3122C83.4957 12.2505 83.1737 12.2093 82.6268 12.1886V11.645C83.161 11.6698 83.7713 11.6821 84.4571 11.6821C85.223 11.6821 85.9488 11.6698 86.6347 11.645V12.1886C86.1591 12.2093 85.8688 12.2463 85.7637 12.2998C85.7173 12.3245 85.6837 12.3647 85.6627 12.4203C85.6416 12.4759 85.6217 12.7302 85.6028 13.1832C85.5839 13.6362 85.5744 14.2087 85.5744 14.9006C85.5744 14.9747 85.5765 15.5698 85.5807 16.6858C85.5849 17.2749 85.588 17.8586 85.5901 18.4371C85.5922 19.0158 85.5954 19.3668 85.5995 19.4904C86.1803 19.5152 86.5758 19.5275 86.7862 19.5275C87.4257 19.5275 87.9832 19.4904 88.4587 19.4163C88.6312 19.3916 88.7342 19.3649 88.768 19.336C88.8016 19.3073 88.8374 19.2309 88.8752 19.1075C88.9594 18.7946 89.0414 18.4363 89.1214 18.0326H89.6452C89.6326 18.1479 89.6263 18.2158 89.6263 18.2364L89.4685 19.4842C89.4347 19.8755 89.4158 20.1102 89.4117 20.1884C89.2897 20.2214 89.1677 20.244 89.0457 20.2563C88.789 20.277 88.3914 20.2872 87.8529 20.2872C87.7771 20.2872 87.2826 20.277 86.3696 20.2563C85.6753 20.2399 85.1914 20.2316 84.9179 20.2316C84.5054 20.2317 83.8786 20.2501 83.0371 20.2872Z" fill="#092264"/>
<path d="M90.9326 20.2872V19.9722C91.0421 19.927 91.1956 19.8466 91.3934 19.7312C91.4818 19.6818 91.5386 19.6407 91.5639 19.6077C91.5806 19.5871 91.5912 19.5644 91.5954 19.5397C91.6164 19.4368 91.6354 19.0693 91.6521 18.437C91.6689 17.805 91.6774 17.0462 91.6774 16.1607C91.6774 14.8594 91.6732 14.0563 91.6648 13.7515C91.648 12.9773 91.6207 12.5346 91.5828 12.4234C91.566 12.374 91.5344 12.3369 91.4882 12.3122C91.3914 12.2505 91.0694 12.2093 90.5224 12.1886V11.645C91.0567 11.6698 91.6669 11.6821 92.3528 11.6821C93.1186 11.6821 93.8444 11.6698 94.5303 11.645V12.1886C94.0548 12.2093 93.7644 12.2463 93.6594 12.2998C93.613 12.3245 93.5794 12.3647 93.5584 12.4203C93.5372 12.4759 93.5173 12.7302 93.4984 13.1832C93.4796 13.6362 93.47 14.2087 93.47 14.9006C93.47 14.9747 93.4721 15.5698 93.4763 16.6858C93.4805 17.2749 93.4837 17.8586 93.4858 18.4371C93.4879 19.0158 93.491 19.3668 93.4952 19.4904C94.076 19.5152 94.4713 19.5275 94.6818 19.5275C95.3214 19.5275 95.8788 19.4904 96.3544 19.4163C96.5269 19.3916 96.6299 19.3649 96.6636 19.336C96.6972 19.3073 96.733 19.2309 96.7708 19.1075C96.8549 18.7946 96.937 18.4363 97.017 18.0326H97.5409C97.5283 18.1479 97.522 18.2158 97.522 18.2364L97.3641 19.4842C97.3304 19.8755 97.3115 20.1102 97.3074 20.1884C97.1853 20.2214 97.0633 20.244 96.9412 20.2563C96.6845 20.277 96.287 20.2872 95.7484 20.2872C95.6726 20.2872 95.1782 20.277 94.2651 20.2563C93.5709 20.2399 93.0869 20.2316 92.8135 20.2316C92.401 20.2317 91.7741 20.2501 90.9326 20.2872Z" fill="#092264"/>
<path d="M98.74 20.2872V19.9537C98.9923 19.8384 99.1985 19.7189 99.3584 19.5953C99.3837 19.4223 99.4046 19.1424 99.4215 18.7552C99.4551 18.0469 99.472 17.5321 99.472 17.2108V14.4311C99.472 14.324 99.4656 13.9225 99.4531 13.2265C99.4405 12.7612 99.4109 12.4771 99.3647 12.374C99.3435 12.3329 99.3121 12.302 99.27 12.2814C99.1564 12.232 98.8535 12.1949 98.3612 12.1702V11.6452L99.8255 11.6761C100.116 11.6802 100.393 11.6822 100.659 11.6822C101.235 11.6822 101.877 11.676 102.584 11.6637L103.865 11.6328C104.016 11.6328 104.323 11.6411 104.786 11.6576C104.828 11.6576 104.898 11.6699 104.995 11.6947L105.039 11.775L104.919 12.6646C104.915 12.7263 104.894 13.0228 104.856 13.5541H104.363C104.355 13.0682 104.336 12.7695 104.307 12.6584C104.29 12.6008 104.265 12.5596 104.231 12.5348C104.176 12.4978 104.008 12.4648 103.726 12.4359C103.309 12.3907 102.901 12.368 102.502 12.368C102.127 12.368 101.744 12.3825 101.353 12.4113C101.294 12.8767 101.264 13.4676 101.264 14.1842V15.4505C101.551 15.4712 101.849 15.4814 102.161 15.4814C102.257 15.4814 102.607 15.4732 103.208 15.4566C103.436 15.4526 103.569 15.4381 103.609 15.4134C103.649 15.3886 103.68 15.3454 103.701 15.2836C103.751 15.1272 103.781 14.8658 103.789 14.4991H104.3L104.275 15.8581L104.3 17.211H103.757C103.762 16.7333 103.73 16.4388 103.663 16.3276C103.612 16.2453 103.522 16.1938 103.391 16.1731C103.101 16.1279 102.729 16.1053 102.274 16.1053C101.866 16.1053 101.529 16.1176 101.264 16.1423V18.7615C101.264 19.054 101.271 19.3052 101.283 19.5151C101.624 19.5399 102.028 19.5522 102.495 19.5522C102.949 19.5522 103.369 19.5378 103.754 19.5089C104.139 19.4801 104.376 19.4389 104.464 19.3854C104.494 19.369 104.521 19.3319 104.546 19.2742C104.622 19.0765 104.702 18.7019 104.786 18.1499H105.304C105.211 18.9653 105.165 19.6366 105.165 20.1637L105.083 20.2441C104.814 20.273 104.431 20.2873 103.934 20.2873L102.918 20.2687C101.916 20.2564 101.226 20.2502 100.848 20.2502C100.747 20.2501 100.044 20.2625 98.74 20.2872Z" fill="#092264"/>
<path d="M114.866 19.1689L114.576 19.7928C114.05 20.0646 113.577 20.251 113.159 20.3519C112.74 20.4527 112.217 20.5033 111.59 20.5033C110.698 20.5033 109.909 20.3652 109.223 20.0893C108.685 19.867 108.228 19.5725 107.854 19.206C107.479 18.8395 107.191 18.4422 106.989 18.0138C106.682 17.3673 106.528 16.6651 106.528 15.9073C106.528 14.61 106.982 13.5506 107.888 12.729C108.795 11.9075 110.075 11.4966 111.729 11.4966C112.297 11.4966 112.807 11.5378 113.26 11.6202C113.712 11.7026 114.237 11.8487 114.834 12.0589L114.866 12.1391C114.799 12.3328 114.746 12.5757 114.708 12.868C114.645 13.3335 114.605 13.7637 114.588 14.1591H114.096C114.088 13.7062 114.066 13.3437 114.033 13.0719C113.751 12.7836 113.434 12.5684 113.083 12.4263C112.732 12.2842 112.282 12.2132 111.736 12.2132C110.747 12.2132 109.956 12.519 109.362 13.1306C108.769 13.7422 108.472 14.5957 108.472 15.6912C108.472 16.3543 108.572 16.9328 108.772 17.427C108.972 17.9212 109.238 18.3299 109.571 18.6532C109.903 18.9765 110.238 19.2123 110.574 19.3606C111.033 19.5582 111.588 19.6571 112.24 19.6571C112.67 19.6571 113.076 19.6098 113.458 19.5151C113.841 19.4204 114.258 19.2578 114.708 19.0271L114.866 19.1689Z" fill="#092264"/>
<path d="M117.466 20.287V19.7805C117.971 19.7641 118.271 19.7311 118.366 19.6817C118.46 19.6323 118.524 19.5499 118.558 19.4346C118.604 19.2576 118.627 18.7242 118.627 17.8346V14.1343C118.627 13.1254 118.621 12.5613 118.609 12.4417H117.706C117.252 12.4417 116.852 12.4562 116.507 12.485C116.368 12.4973 116.288 12.5138 116.267 12.5344C116.237 12.5592 116.212 12.6312 116.191 12.7506C116.136 13.039 116.105 13.3622 116.097 13.7206H115.573C115.556 12.8763 115.545 12.4007 115.541 12.2935C115.528 12.1124 115.507 11.9168 115.478 11.7067L115.535 11.645C115.733 11.6657 115.943 11.68 116.166 11.6882C116.528 11.7006 117.224 11.7067 118.255 11.7067H120.805C121.865 11.7067 122.574 11.7006 122.932 11.6882C123.125 11.68 123.321 11.6656 123.519 11.645L123.582 11.7067C123.544 11.958 123.521 12.1784 123.513 12.3678C123.508 12.4008 123.5 12.8518 123.487 13.7206H122.963C122.955 13.3994 122.928 13.0927 122.881 12.8002C122.856 12.652 122.829 12.5635 122.799 12.5346C122.774 12.514 122.707 12.4996 122.597 12.4913C122.252 12.4584 121.838 12.442 121.354 12.442H120.451C120.439 12.5861 120.433 13.1503 120.433 14.1346V17.8348C120.433 18.7244 120.456 19.2597 120.502 19.4409C120.531 19.5481 120.594 19.6273 120.691 19.6787C120.788 19.7303 121.089 19.7643 121.594 19.7807V20.2873C120.777 20.2502 120.09 20.2317 119.53 20.2317C118.932 20.2315 118.244 20.25 117.466 20.287Z" fill="#092264"/>
<path d="M128.436 11.645V12.1886C128.01 12.201 127.758 12.2164 127.678 12.2349C127.598 12.2535 127.541 12.2762 127.508 12.3029C127.474 12.3298 127.451 12.3637 127.438 12.4049C127.409 12.475 127.388 12.6088 127.375 12.8064C127.367 12.9136 127.36 13.1152 127.356 13.4117C127.339 14.4249 127.331 14.9706 127.331 15.0488V17.5383L127.35 18.6688C127.35 19.093 127.371 19.369 127.413 19.4966C127.43 19.5542 127.458 19.5985 127.498 19.6293C127.538 19.6602 127.601 19.6849 127.687 19.7035C127.774 19.7221 128.023 19.7355 128.435 19.7437V20.2874C127.749 20.2626 127.017 20.2503 126.239 20.2503C125.561 20.2503 124.958 20.2626 124.428 20.2874V19.7437C124.865 19.7273 125.118 19.7128 125.185 19.7004C125.273 19.684 125.333 19.6613 125.365 19.6325C125.396 19.6038 125.416 19.5707 125.425 19.5336C125.437 19.4842 125.454 19.2907 125.475 18.9529C125.509 18.4587 125.526 18.0016 125.526 17.5815V14.9994C125.526 14.1799 125.521 13.6527 125.513 13.418C125.492 12.8951 125.467 12.5677 125.437 12.4358C125.425 12.3823 125.405 12.3411 125.377 12.3122C125.35 12.2835 125.3 12.2597 125.226 12.2412C125.152 12.2226 124.886 12.2051 124.427 12.1886V11.645C124.958 11.6698 125.566 11.6821 126.252 11.6821C127.022 11.6821 127.75 11.6698 128.436 11.645Z" fill="#092264"/>
<path d="M133.535 20.3303C133.178 19.4655 132.835 18.6439 132.506 17.8655L131.61 15.7714C130.907 14.1282 130.475 13.1492 130.313 12.8341C130.151 12.519 130.028 12.3389 129.944 12.2935C129.818 12.2278 129.557 12.1907 129.161 12.1824V11.645C130.171 11.6739 130.785 11.6882 131.004 11.6882L133.27 11.645V12.1824C132.917 12.1865 132.66 12.2071 132.5 12.2441C132.408 12.2648 132.343 12.2946 132.308 12.3337C132.272 12.3729 132.254 12.4234 132.254 12.4852C132.254 12.6087 132.393 13 132.671 13.6589C132.83 14.0378 132.916 14.2427 132.926 14.2736C132.937 14.3044 132.95 14.3426 132.967 14.3879L134.564 18.1992L135.965 14.8017C135.999 14.7235 136.148 14.3344 136.413 13.6343C136.603 13.14 136.718 12.8086 136.76 12.6397C136.769 12.5903 136.773 12.5408 136.773 12.4914C136.773 12.4214 136.761 12.3689 136.738 12.3339C136.715 12.2991 136.685 12.2732 136.647 12.2567C136.617 12.2444 136.542 12.2342 136.42 12.2259C136.146 12.2012 135.915 12.1868 135.725 12.1827V11.6453L137.328 11.6824L138.692 11.6453V12.1827C138.283 12.2197 138.046 12.263 137.978 12.3124C137.865 12.3989 137.627 12.8664 137.265 13.7147L136.817 14.7401L135.965 16.7292C135.241 18.426 134.751 19.6264 134.494 20.3307H133.535V20.3303Z" fill="#092264"/>
<path d="M139.676 20.2872V19.9537C139.929 19.8384 140.135 19.7189 140.295 19.5953C140.32 19.4223 140.341 19.1424 140.358 18.7552C140.391 18.0469 140.408 17.5321 140.408 17.2108V14.4311C140.408 14.324 140.402 13.9225 140.389 13.2265C140.377 12.7612 140.347 12.4771 140.301 12.374C140.28 12.3329 140.248 12.302 140.206 12.2814C140.093 12.232 139.79 12.1949 139.298 12.1702V11.6452L140.762 11.6761C141.052 11.6802 141.33 11.6822 141.595 11.6822C142.171 11.6822 142.813 11.676 143.52 11.6637L144.801 11.6328C144.952 11.6328 145.26 11.6411 145.723 11.6576C145.765 11.6576 145.834 11.6699 145.931 11.6947L145.975 11.775L145.855 12.6646C145.851 12.7263 145.83 13.0228 145.792 13.5541H145.3C145.291 13.0682 145.272 12.7695 145.243 12.6584C145.226 12.6008 145.201 12.5596 145.167 12.5348C145.112 12.4978 144.944 12.4648 144.662 12.4359C144.246 12.3907 143.838 12.368 143.438 12.368C143.063 12.368 142.68 12.3825 142.289 12.4113C142.23 12.8767 142.201 13.4676 142.201 14.1842V15.4505C142.487 15.4712 142.786 15.4814 143.097 15.4814C143.194 15.4814 143.543 15.4732 144.145 15.4566C144.372 15.4526 144.505 15.4381 144.545 15.4134C144.585 15.3886 144.616 15.3454 144.637 15.2836C144.687 15.1272 144.717 14.8658 144.725 14.4991H145.236L145.211 15.8581L145.236 17.211H144.694C144.698 16.7333 144.666 16.4388 144.599 16.3276C144.549 16.2453 144.458 16.1938 144.328 16.1731C144.037 16.1279 143.665 16.1053 143.211 16.1053C142.802 16.1053 142.466 16.1176 142.201 16.1423V18.7615C142.201 19.054 142.207 19.3052 142.22 19.5151C142.56 19.5399 142.964 19.5522 143.431 19.5522C143.886 19.5522 144.305 19.5378 144.69 19.5089C145.075 19.4801 145.312 19.4389 145.4 19.3854C145.43 19.369 145.457 19.3319 145.483 19.2742C145.558 19.0765 145.638 18.7019 145.722 18.1499H146.24C146.147 18.9653 146.101 19.6366 146.101 20.1637L146.019 20.2441C145.75 20.273 145.367 20.2873 144.87 20.2873L143.854 20.2687C142.853 20.2564 142.163 20.2502 141.784 20.2502C141.683 20.2501 140.981 20.2625 139.676 20.2872Z" fill="#092264"/>
</svg>
