<svg width="101" height="100" viewBox="0 0 101 100" fill="none" xmlns="http://www.w3.org/2000/svg">
<path d="M97.5701 6.71133H87.3235C87.3746 5.45566 87.4016 4.19473 87.4016 2.92969C87.4016 1.31172 86.0899 0 84.4719 0H16.5287C14.9108 0 13.599 1.31172 13.599 2.92969C13.599 4.19473 13.6258 5.45586 13.6772 6.71133H3.4303C1.81233 6.71133 0.50061 8.02305 0.50061 9.64102V15.9381C0.50061 33.1953 12.9698 47.5939 29.3715 50.6006C30.7764 52.1357 32.2524 53.5199 33.7914 54.7385C38.8471 58.7414 41.7467 64.6426 41.7467 70.9287V82.4219H30.6135C28.9955 82.4219 27.6838 83.7336 27.6838 85.3516V94.1406H24.7541C23.1362 94.1406 21.8244 95.4523 21.8244 97.0703C21.8244 98.6883 23.1362 100 24.7541 100H76.2469C77.8649 100 79.1766 98.6883 79.1766 97.0703C79.1766 95.4523 77.8649 94.1406 76.2469 94.1406H73.3172V85.3516C73.3172 83.7336 72.0055 82.4219 70.3875 82.4219H59.2541V70.9287C59.2541 64.6424 62.1537 58.7414 67.2094 54.7383C68.7483 53.5197 70.2242 52.1355 71.6291 50.6006C88.0309 47.5939 100.5 33.1953 100.5 15.9381V9.64102C100.5 8.02305 99.1883 6.71133 97.5701 6.71133ZM6.35999 15.9381V12.5707H14.1047C14.8897 20.0076 16.5795 27.1367 19.1061 33.5619C20.3932 36.8352 21.878 39.8791 23.5326 42.66C13.409 38.0162 6.35999 27.7854 6.35999 15.9381ZM94.6404 15.9381C94.6404 27.7855 87.5914 38.0164 77.4678 42.6602C79.1227 39.8793 80.6074 36.8354 81.8946 33.5621C84.4209 27.1369 86.1108 20.0078 86.8957 12.5709H94.6403L94.6404 15.9381Z" fill="#1FA5DA"/>
</svg>
