<svg width="89" height="80" viewBox="0 0 89 80" fill="none" xmlns="http://www.w3.org/2000/svg">
<path d="M44.5 38.3876C55.078 38.3876 63.6531 29.8124 63.6531 19.2344C63.6531 8.65644 55.078 0.0812988 44.5 0.0812988C33.922 0.0812988 25.3469 8.65644 25.3469 19.2344C25.3469 29.8124 33.922 38.3876 44.5 38.3876Z" fill="#1FA5DA"/>
<path d="M67.0375 7.34375C66.775 7.34375 66.5313 7.40625 66.275 7.42187C68.2508 11.0463 69.2835 15.1095 69.2781 19.2375C69.2799 22.4904 68.6392 25.7117 67.3929 28.7164C66.1466 31.7211 64.3192 34.4502 62.0156 36.7469C63.625 37.3369 65.3234 37.6477 67.0375 37.6656C71.0584 37.6656 74.9147 36.0683 77.7579 33.2251C80.6011 30.3819 82.1984 26.5256 82.1984 22.5047C82.1984 18.4838 80.6011 14.6275 77.7579 11.7843C74.9147 8.94106 71.0584 7.34375 67.0375 7.34375Z" fill="#1FA5DA"/>
<path d="M44.5 38.3876C55.078 38.3876 63.6531 29.8124 63.6531 19.2344C63.6531 8.65644 55.078 0.0812988 44.5 0.0812988C33.922 0.0812988 25.3469 8.65644 25.3469 19.2344C25.3469 29.8124 33.922 38.3876 44.5 38.3876Z" fill="#1FA5DA"/>
<path d="M12.075 59.8219C12.075 53.4844 14.3094 47.5875 18.1 42.8844C15.2071 42.3433 12.4627 41.1917 10.05 39.5062C7.2534 40.9207 4.90369 43.0828 3.26193 45.7523C1.62018 48.4218 0.750666 51.4942 0.75 54.6281V57.0531C0.75 58.8594 2.01875 60.4187 3.79375 60.7594C6.3 61.2406 9.07188 61.6656 12.075 61.9719V59.8219ZM19.7219 19.2344C19.7219 14.9594 20.8094 10.9344 22.725 7.41875C22.4687 7.40625 22.225 7.34375 21.9625 7.34375C17.942 7.34375 14.0861 8.94089 11.2432 11.7838C8.40027 14.6268 6.80312 18.4826 6.80312 22.5031C6.80312 26.5236 8.40027 30.3795 11.2432 33.2224C14.0861 36.0654 17.942 37.6625 21.9625 37.6625C23.7313 37.6625 25.4063 37.3 26.9844 36.7437C24.6803 34.4473 22.8527 31.7184 21.6064 28.7136C20.36 25.7088 19.7196 22.4874 19.7219 19.2344ZM74.4312 46.6594C79.5444 46.6578 84.4509 48.6774 88.0812 52.2781C87.7 49.5717 86.6707 46.9975 85.0809 44.7744C83.4911 42.5512 81.3878 40.745 78.95 39.5094C76.5363 41.1929 73.7923 42.3444 70.9 42.8875C71.8688 44.0875 72.7312 45.3656 73.4844 46.7094C73.8 46.6906 74.1125 46.6594 74.4312 46.6594ZM54.9875 66.1031C54.9875 57.7656 60.2719 50.6562 67.6594 47.9C65.2886 44.365 61.9227 41.6125 57.9875 39.9906C53.9782 42.6166 49.2896 44.0154 44.4969 44.0154C39.7041 44.0154 35.0156 42.6166 31.0063 39.9906C27.0703 41.6026 23.7028 44.3491 21.3322 47.8805C18.9617 51.4118 17.6951 55.5686 17.6938 59.8219V62.8844C17.6938 65.1687 19.2969 67.1344 21.5375 67.5656C27.9375 68.7906 35.6875 69.7437 44.4938 69.7437C48.088 69.7357 51.6801 69.5678 55.2594 69.2406C55.0865 68.2035 54.9956 67.1545 54.9875 66.1031ZM74.4375 52.2812C66.8125 52.2812 60.625 58.4687 60.625 66.0937C60.625 73.7187 66.8125 79.9062 74.4375 79.9062C82.0625 79.9062 88.25 73.7187 88.25 66.0937C88.25 58.4687 82.0625 52.2812 74.4375 52.2812ZM79.1625 68.9156H77.2438V70.8312C77.2438 71.5772 76.9474 72.2925 76.42 72.82C75.8925 73.3474 75.1772 73.6437 74.4312 73.6437C73.6853 73.6437 72.97 73.3474 72.4425 72.82C71.9151 72.2925 71.6188 71.5772 71.6188 70.8312V68.9156H69.7C68.9541 68.9156 68.2387 68.6193 67.7113 68.0919C67.1838 67.5644 66.8875 66.849 66.8875 66.1031C66.8875 65.3572 67.1838 64.6418 67.7113 64.1144C68.2387 63.5869 68.9541 63.2906 69.7 63.2906H71.6188V61.375C71.6188 60.6291 71.9151 59.9137 72.4425 59.3863C72.97 58.8588 73.6853 58.5625 74.4312 58.5625C75.1772 58.5625 75.8925 58.8588 76.42 59.3863C76.9474 59.9137 77.2438 60.6291 77.2438 61.375V63.2906H79.1625C79.9084 63.2906 80.6238 63.5869 81.1512 64.1144C81.6787 64.6418 81.975 65.3572 81.975 66.1031C81.975 66.849 81.6787 67.5644 81.1512 68.0919C80.6238 68.6193 79.9084 68.9156 79.1625 68.9156Z" fill="#1FA5DA"/>
</svg>
