<svg width="54" height="54" viewBox="0 0 54 54" fill="none" xmlns="http://www.w3.org/2000/svg">
<rect x="1.25" y="1.25" width="51.5" height="51.5" rx="25.75" fill="white"/>
<rect x="1.25" y="1.25" width="51.5" height="51.5" rx="25.75" stroke="black" stroke-width="1.5"/>
<path d="M41.9693 19.2727C41.4897 19.2713 41.0254 19.4408 40.6595 19.7508C40.2936 20.0608 40.05 20.4909 39.9725 20.9642L38.6589 28.829L35.7836 30.4718L36.9125 28.2147C37.2101 27.621 37.27 26.9362 37.08 26.3C36.8901 25.6637 36.4645 25.1238 35.8902 24.7905C35.3159 24.4571 34.6361 24.3554 33.9893 24.5061C33.3426 24.6568 32.7777 25.0485 32.4099 25.6013L28.6722 31.2075C28.5888 31.3349 28.5448 31.484 28.5455 31.6363V43.2272C28.5455 43.4322 28.6269 43.6287 28.7718 43.7736C28.9167 43.9185 29.1132 44 29.3182 44H38.5909C38.7958 44 38.9924 43.9185 39.1373 43.7736C39.2822 43.6287 39.3636 43.4322 39.3636 43.2272V40.1363C39.3636 39.9314 39.2822 39.7348 39.1373 39.5899C38.9924 39.445 38.7958 39.3636 38.5909 39.3636H37.8182V38.8621L43.8308 31.3465C43.9404 31.2095 44.0001 31.0391 44 30.8636V21.2972C43.999 20.7595 43.7845 20.2442 43.4037 19.8646C43.0229 19.485 42.507 19.2721 41.9693 19.2727ZM37.8182 42.4545H30.0909V40.909H37.8182V42.4545ZM42.4545 30.5924L36.442 38.1079C36.3323 38.245 36.2726 38.4153 36.2727 38.5909V39.3636H30.0909V31.8681L33.6988 26.459C33.8486 26.2336 34.0787 26.0739 34.3423 26.0124C34.6059 25.9509 34.883 25.9923 35.1171 26.1282C35.3512 26.2641 35.5246 26.4841 35.6019 26.7435C35.6792 27.0029 35.6547 27.282 35.5332 27.5239L33.2591 32.0636C33.183 32.2127 33.1575 32.3825 33.1862 32.5474C33.2149 32.7123 33.2964 32.8634 33.4184 32.9779C33.5404 33.0925 33.6963 33.1644 33.8627 33.1828C34.029 33.2011 34.1969 33.165 34.3409 33.0798L39.75 29.9889C39.8491 29.9323 39.9345 29.8544 40 29.7609C40.0655 29.6674 40.1094 29.5605 40.1286 29.448L41.5002 21.2207C41.5206 21.102 41.5846 20.9952 41.6798 20.9214C41.7749 20.8475 41.8942 20.8119 42.0143 20.8216C42.1343 20.8313 42.2464 20.8855 42.3284 20.9737C42.4105 21.0619 42.4566 21.1776 42.4576 21.298L42.4545 30.5924ZM21.5909 25.6013C21.2231 25.0485 20.6582 24.6568 20.0114 24.5061C19.3647 24.3554 18.6849 24.4571 18.1105 24.7905C17.5362 25.1238 17.1107 25.6637 16.9207 26.3C16.7308 26.9362 16.7907 27.621 17.0882 28.2147L18.2172 30.4718L15.338 28.829L14.0244 20.9642C13.9366 20.4663 13.666 20.0193 13.2656 19.7106C12.8653 19.4019 12.3641 19.2539 11.8603 19.2956C11.3565 19.3373 10.8865 19.5657 10.5423 19.936C10.1982 20.3063 10.0048 20.7917 10 21.2972V30.8636C9.99992 31.0391 10.0596 31.2095 10.1692 31.3465L16.1818 38.8621V39.3636H15.4091C15.2042 39.3636 15.0076 39.445 14.8627 39.5899C14.7178 39.7348 14.6364 39.9314 14.6364 40.1363V43.2272C14.6364 43.4322 14.7178 43.6287 14.8627 43.7736C15.0076 43.9185 15.2042 44 15.4091 44H24.6818C24.8868 44 25.0833 43.9185 25.2282 43.7736C25.3731 43.6287 25.4545 43.4322 25.4545 43.2272V31.6363C25.4543 31.4837 25.4092 31.3346 25.3247 31.2075L21.5909 25.6013ZM17.558 38.1079L11.5455 30.5924V21.2972C11.5465 21.1768 11.5926 21.0611 11.6746 20.9729C11.7567 20.8848 11.8688 20.8305 11.9888 20.8208C12.1089 20.8111 12.2282 20.8467 12.3233 20.9206C12.4185 20.9944 12.4825 21.1012 12.5029 21.2199L13.8745 29.4456C13.8937 29.5582 13.9376 29.665 14.0031 29.7586C14.0686 29.8521 14.1539 29.9299 14.2531 29.9865L19.6622 33.0775C19.806 33.1608 19.9728 33.1955 20.138 33.1765C20.3031 33.1575 20.4577 33.0858 20.5788 32.9719C20.6999 32.8581 20.7811 32.7083 20.8103 32.5446C20.8395 32.381 20.8152 32.2123 20.7409 32.0636L18.4706 27.5231C18.3568 27.2824 18.3375 27.0078 18.4165 26.7536C18.4955 26.4993 18.667 26.284 18.8972 26.1502C19.1274 26.0165 19.3994 25.974 19.6594 26.0311C19.9194 26.0883 20.1484 26.241 20.3012 26.459L23.9091 31.8681V39.3636H17.7273V38.5909C17.7274 38.4153 17.6677 38.245 17.558 38.1079ZM23.9091 42.4545H16.1818V40.909H23.9091V42.4545Z" fill="black"/>
<path d="M35.5 18.5C35.5 16.8189 35.0015 15.1755 34.0675 13.7777C33.1335 12.3798 31.806 11.2904 30.2528 10.647C28.6996 10.0037 26.9906 9.83535 25.3417 10.1633C23.6929 10.4913 22.1783 11.3009 20.9896 12.4896C19.8008 13.6783 18.9913 15.1929 18.6633 16.8417C18.3354 18.4906 18.5037 20.1996 19.147 21.7528C19.7904 23.306 20.8798 24.6335 22.2777 25.5675C23.6755 26.5015 25.3189 27 27 27C29.2535 26.9973 31.414 26.101 33.0075 24.5075C34.601 22.914 35.4973 20.7535 35.5 18.5ZM27 25.4546C25.6245 25.4546 24.2799 25.0467 23.1363 24.2825C21.9926 23.5183 21.1012 22.4322 20.5748 21.1614C20.0485 19.8906 19.9107 18.4923 20.1791 17.1432C20.4474 15.7942 21.1098 14.555 22.0824 13.5824C23.055 12.6098 24.2942 11.9474 25.6432 11.6791C26.9923 11.4107 28.3906 11.5485 29.6614 12.0748C30.9322 12.6012 32.0183 13.4926 32.7825 14.6363C33.5467 15.7799 33.9545 17.1245 33.9545 18.5C33.9525 20.3438 33.2191 22.1116 31.9153 23.4154C30.6116 24.7191 28.8438 25.4525 27 25.4546Z" fill="black"/>
<path d="M27.0001 15.9352C27.5621 15.9352 28.0173 16.3904 28.0173 16.9524H29.1413C29.1413 15.9689 28.4669 15.1428 27.5621 14.8955V14.2099H26.4381V14.8955C25.5333 15.1428 24.8589 15.9689 24.8589 16.9524C24.8589 18.1325 25.8199 19.0935 27.0001 19.0935C27.2013 19.0935 27.3979 19.1532 27.5652 19.2649C27.7325 19.3767 27.8629 19.5356 27.9399 19.7214C28.0169 19.9073 28.037 20.1118 27.9978 20.3092C27.9585 20.5065 27.8616 20.6877 27.7194 20.83C27.5771 20.9722 27.3959 21.0691 27.1985 21.1084C27.0012 21.1476 26.7967 21.1275 26.6108 21.0505C26.425 20.9735 26.2661 20.8431 26.1543 20.6758C26.0426 20.5086 25.9829 20.3119 25.9829 20.1107H24.8589C24.8589 21.0942 25.5333 21.9203 26.4381 22.1676V22.8532H27.5621V22.1676C28.4669 21.9203 29.1413 21.0942 29.1413 20.1107C29.1413 18.9305 28.1803 17.9696 27.0001 17.9696C26.7303 17.9696 26.4716 17.8624 26.2808 17.6716C26.0901 17.4809 25.9829 17.2221 25.9829 16.9524C25.9829 16.6826 26.0901 16.4239 26.2808 16.2331C26.4716 16.0423 26.7303 15.9352 27.0001 15.9352Z" fill="black"/>
</svg>
