<svg width="1524" height="268" viewBox="0 0 1524 268" fill="none" xmlns="http://www.w3.org/2000/svg">
<path d="M328.613 175.145L330.595 173.987C332.169 173.067 333.55 172.147 334.716 171.239C334.879 169.482 334.994 167.428 335.06 165.108C335.237 158.632 335.327 146.674 335.327 129.569C335.327 125.039 335.215 117.818 334.993 108.107C334.868 101.131 334.667 98.2177 334.533 97.0137C333.516 96.8127 331.359 96.5057 326.927 96.2297L323.175 95.9968V82.6658H327.175C328.211 82.6658 329.296 82.6887 330.427 82.7347L339.646 83.0027C342.577 83.0467 346.268 83.0677 350.876 83.0677C355.302 83.0677 358.801 83.0238 361.276 82.9368C367.821 82.6638 372.005 82.5308 374.04 82.5308C381.986 82.5308 388.04 83.3628 392.548 85.0748C397.354 86.9018 400.967 89.6558 403.287 93.2628C405.558 96.7948 406.71 100.787 406.71 105.13C406.71 109.739 405.424 114.081 402.887 118.033C400.445 121.837 397.279 124.851 393.474 126.996C394.839 127.436 396.019 127.908 397.022 128.413C400.93 130.382 404.084 133.465 406.398 137.579C408.656 141.598 409.799 146.108 409.799 150.987C409.799 156.077 408.64 160.777 406.354 164.959C404.144 168.999 401.253 172.5 397.76 175.364C394.318 178.187 390.33 180.452 385.91 182.097C381.455 183.756 375.902 184.597 369.407 184.597L346.775 184.193C343.305 184.194 338.579 184.329 332.796 184.593L328.613 184.784V175.145ZM362.163 169.458C363.267 169.511 364.727 169.547 366.654 169.547C371.092 169.547 374.542 168.17 377.199 165.337C379.888 162.473 381.252 158.119 381.252 152.397C381.252 148.317 380.539 145.054 379.133 142.698C377.781 140.435 376.073 138.896 373.91 137.994C371.46 136.973 367.865 136.456 363.23 136.456C362.835 136.456 362.445 136.461 362.06 136.47V163.343L362.163 169.458ZM362.427 97.8588C362.302 100.168 362.224 102.705 362.195 105.44L362.061 115.856V121.473C364.763 121.47 367.346 121.245 369.669 120.804C371.637 120.431 373.193 119.814 374.297 118.971C375.367 118.154 376.322 116.819 377.139 115.003C377.998 113.092 378.434 110.809 378.434 108.217C378.434 105.697 377.97 103.582 377.054 101.931C376.206 100.403 375.183 99.3678 373.927 98.7668C372.922 98.2868 370.831 97.7137 366.587 97.7137C365.128 97.7147 363.738 97.7638 362.427 97.8588Z" fill="#092264"/>
<path d="M332.613 180.597V177.441C334.985 176.055 336.954 174.666 338.522 173.278C338.791 171.085 338.969 168.4 339.059 165.221C339.237 158.686 339.328 146.802 339.328 129.569C339.328 124.959 339.216 117.775 338.992 108.016C338.858 100.496 338.611 96.1988 338.253 95.1248C338.028 94.4538 337.693 93.9828 337.246 93.7148C336.306 93.0888 332.949 92.5967 327.175 92.2377V86.6647C328.159 86.6647 329.189 86.6878 330.264 86.7318L339.529 87.0007C342.573 87.0457 346.354 87.0677 350.876 87.0677C355.352 87.0677 358.866 87.0238 361.417 86.9338C367.863 86.6648 372.069 86.5308 374.04 86.5308C381.426 86.5308 387.122 87.2928 391.129 88.8138C395.134 90.3358 398.066 92.5397 399.924 95.4277C401.781 98.3147 402.71 101.549 402.71 105.13C402.71 108.981 401.647 112.561 399.521 115.873C397.394 119.186 394.675 121.759 391.363 123.594C389.393 124.713 385.006 126.212 378.203 128.092C386.349 129.077 392.022 130.375 395.223 131.986C398.423 133.598 400.986 136.116 402.911 139.54C404.835 142.965 405.798 146.781 405.798 150.988C405.798 155.42 404.813 159.438 402.843 163.04C400.873 166.643 398.333 169.721 395.222 172.272C392.11 174.824 388.541 176.85 384.514 178.348C380.485 179.848 375.449 180.597 369.407 180.597L346.846 180.194C343.222 180.194 338.477 180.328 332.613 180.597ZM358.061 125.406L361.954 125.473C364.998 125.473 367.818 125.228 370.415 124.734C373.01 124.242 375.114 123.381 376.726 122.149C378.338 120.918 379.69 119.083 380.788 116.643C381.884 114.204 382.434 111.395 382.434 108.216C382.434 104.993 381.807 102.252 380.554 99.9908C379.3 97.7308 377.667 96.1197 375.652 95.1567C373.638 94.1947 370.617 93.7128 366.588 93.7128C363.678 93.7128 361.037 93.8918 358.665 94.2498C358.396 97.4728 358.24 101.189 358.195 105.395L358.062 115.802V125.406H358.061ZM358.328 173.077C359.805 173.391 362.58 173.547 366.654 173.547C372.203 173.547 376.692 171.724 380.115 168.075C383.54 164.427 385.251 159.202 385.251 152.397C385.251 147.563 384.356 143.647 382.566 140.647C380.775 137.648 378.403 135.534 375.448 134.302C372.493 133.071 368.421 132.455 363.228 132.455C361.392 132.455 359.669 132.545 358.059 132.724V163.341L358.192 171.331C358.194 171.555 358.239 172.137 358.328 173.077Z" fill="#092264"/>
<path d="M417.846 174.425L420.155 173.347C421.898 172.534 423.405 171.704 424.656 170.87C424.825 169.13 424.973 166.754 425.101 163.774C425.455 156.144 425.634 150.56 425.634 147.16V116.946C425.634 115.83 425.567 111.448 425.434 103.924C425.33 100.054 425.13 98.0388 424.982 97.0328C423.949 96.8498 421.824 96.5828 417.612 96.3668L413.817 96.1718V82.5778L433.48 83.0007C436.522 83.0457 439.456 83.0668 442.256 83.0668C448.318 83.0668 455.184 82.9998 462.664 82.8668C462.664 82.8668 476.289 82.5308 476.301 82.5308C478.04 82.5308 481.268 82.6187 486.259 82.7997C487.059 82.8117 488.031 82.9767 489.393 83.3307L491.081 83.7708L492.989 87.3168L491.561 98.1407C491.499 99.0297 490.637 111.412 490.637 111.412H477.738L477.671 107.48C477.593 102.95 477.442 100.704 477.328 99.6147C476.726 99.5097 475.818 99.3778 474.473 99.2368C470.183 98.7598 465.949 98.5198 461.864 98.5198C459.066 98.5198 456.187 98.6008 453.271 98.7618C452.894 103.075 452.704 108.27 452.704 114.259V124.247C454.503 124.321 456.353 124.359 458.238 124.359C459.214 124.359 462.926 124.269 469.272 124.092C470.033 124.077 470.61 124.054 471.043 124.028C471.251 122.928 471.484 120.966 471.562 117.592L471.651 113.683H485.072L484.731 132.454L485.072 151.159H471.19L471.224 147.125C471.263 142.543 470.981 140.594 470.814 139.85C470.777 139.843 470.736 139.835 470.69 139.828C467.834 139.373 464.046 139.141 459.446 139.141C456.937 139.141 454.682 139.187 452.703 139.279V164.012C452.703 165.593 452.721 167.067 452.755 168.423C455.457 168.544 458.484 168.606 461.796 168.606C466.51 168.606 470.914 168.452 474.885 168.148C477.794 167.926 479.33 167.671 480.103 167.501C480.593 165.926 481.308 162.835 482.213 156.775L482.723 153.366H496.144L495.65 157.808C494.686 166.48 494.197 173.695 494.197 179.253V180.908L491.16 183.949L489.76 184.102C486.726 184.434 482.586 184.595 477.105 184.595L466.221 184.393C455.658 184.26 448.266 184.192 444.273 184.192C443.246 184.192 435.727 184.328 421.925 184.594L417.848 184.673V174.425H417.846Z" fill="#092264"/>
<path d="M421.846 180.597V176.972C424.531 175.719 426.724 174.42 428.425 173.077C428.694 171.197 428.917 168.154 429.096 163.946C429.454 156.248 429.633 150.652 429.633 147.16V116.946C429.633 115.782 429.566 111.418 429.432 103.853C429.298 98.7948 428.984 95.7067 428.492 94.5867C428.267 94.1397 427.932 93.8038 427.485 93.5798C426.276 93.0428 423.054 92.6397 417.817 92.3707V86.6638L433.394 86.9998C436.483 87.0448 439.436 87.0668 442.256 87.0668C448.388 87.0668 455.214 86.9998 462.735 86.8658L476.364 86.5298C477.976 86.5298 481.243 86.6198 486.168 86.7988C486.615 86.7988 487.354 86.9328 488.384 87.2018L488.854 88.0748L487.578 97.7438C487.533 98.4148 487.309 101.638 486.906 107.412H481.669C481.579 102.131 481.377 98.8848 481.065 97.6768C480.886 97.0508 480.617 96.6027 480.259 96.3337C479.677 95.9307 477.886 95.5728 474.888 95.2598C470.456 94.7678 466.114 94.5208 461.862 94.5208C457.877 94.5208 453.804 94.6778 449.642 94.9908C449.015 100.05 448.702 106.472 448.702 114.261V128.025C451.745 128.25 454.923 128.361 458.236 128.361C459.265 128.361 462.98 128.272 469.381 128.092C471.798 128.048 473.218 127.891 473.644 127.622C474.069 127.353 474.394 126.883 474.618 126.212C475.155 124.511 475.468 121.67 475.558 117.685H480.996L480.727 132.456L480.996 147.16H475.222C475.266 141.968 474.93 138.767 474.215 137.559C473.678 136.664 472.715 136.105 471.328 135.88C468.239 135.388 464.277 135.141 459.444 135.141C455.101 135.141 451.521 135.275 448.701 135.544V164.012C448.701 167.191 448.768 169.92 448.902 172.203C452.527 172.472 456.824 172.606 461.793 172.606C466.626 172.606 471.091 172.45 475.187 172.136C479.283 171.823 481.801 171.375 482.741 170.793C483.054 170.615 483.345 170.212 483.614 169.585C484.42 167.436 485.27 163.364 486.166 157.365H491.671C490.686 166.227 490.194 173.524 490.194 179.253L489.322 180.126C486.457 180.44 482.383 180.596 477.101 180.596L466.291 180.395C455.638 180.261 448.298 180.194 444.269 180.194C443.196 180.194 435.721 180.328 421.846 180.597Z" fill="#092264"/>
<path d="M517.753 171.221L521.621 171.093C527 170.915 528.887 170.581 529.446 170.447C529.461 170.413 529.483 170.358 529.507 170.282C529.698 169.464 530.107 166.267 530.107 153.941V113.722C530.107 106.336 530.077 101.936 530.038 99.3257H524.306C519.689 99.3257 515.569 99.4737 512.059 99.7657C511.555 102.626 511.263 105.822 511.183 109.315L511.094 113.224H497.688L497.612 109.302C497.395 98.2378 497.311 94.8137 497.28 93.9227C497.153 92.0747 496.938 90.0408 496.642 87.8768L496.39 86.0408L499.598 82.4697L501.632 82.6868C503.631 82.9008 505.798 83.0518 508.072 83.1368C511.856 83.2688 519.287 83.3348 530.146 83.3348H557.272C568.443 83.3348 576.009 83.2688 579.759 83.1368C581.697 83.0528 583.712 82.9008 585.718 82.6868L587.617 82.4847L591.065 85.9277L590.771 87.9188C590.39 90.4998 590.155 92.7787 590.071 94.6937L590.064 94.8558L590.057 94.9097C590.031 95.4517 589.965 98.1128 589.806 109.28L589.749 113.223H576.333L576.233 109.325C576.149 106.019 575.872 102.825 575.408 99.8307C575.406 99.8167 575.404 99.8047 575.402 99.7917C571.921 99.4797 567.813 99.3248 563.112 99.3248H557.383C557.341 102.02 557.31 106.468 557.31 113.721V153.94C557.31 166.547 557.74 169.664 557.927 170.42C558.427 170.55 560.268 170.908 565.796 171.091L569.664 171.219V184.785L565.478 184.591C556.901 184.193 549.577 183.99 543.707 183.99C537.437 183.99 530.116 184.192 521.946 184.59L517.752 184.794V171.221H517.753Z" fill="#092264"/>
<path d="M521.753 180.597V175.091C527.125 174.913 530.314 174.554 531.321 174.017C532.328 173.48 533.01 172.585 533.368 171.331C533.86 169.407 534.107 163.61 534.107 153.941V113.723C534.107 102.757 534.04 96.6246 533.906 95.3256H524.305C519.47 95.3256 515.217 95.4826 511.548 95.7956C510.071 95.9296 509.22 96.1096 508.996 96.3326C508.682 96.6016 508.414 97.3846 508.19 98.6826C507.608 101.817 507.272 105.33 507.183 109.225H501.61C501.431 100.049 501.318 94.8796 501.274 93.7146C501.14 91.7456 500.916 89.6195 500.604 87.3365L501.207 86.6646C503.311 86.8896 505.548 87.0456 507.922 87.1346C511.771 87.2686 519.179 87.3356 530.146 87.3356H557.271C568.551 87.3356 576.093 87.2686 579.899 87.1346C581.956 87.0456 584.038 86.8896 586.143 86.6646L586.815 87.3365C586.412 90.0675 586.166 92.4626 586.076 94.5206C586.031 94.8796 585.942 99.7805 585.807 109.225H580.234C580.145 105.733 579.854 102.4 579.362 99.2206C579.093 97.6096 578.802 96.6476 578.489 96.3336C578.22 96.1106 577.504 95.9536 576.34 95.8636C572.669 95.5056 568.259 95.3266 563.113 95.3266H553.512C553.378 96.8946 553.311 103.026 553.311 113.724V153.942C553.311 163.611 553.556 169.43 554.049 171.399C554.362 172.564 555.033 173.425 556.063 173.984C557.092 174.544 560.293 174.914 565.665 175.092V180.598C556.98 180.195 549.662 179.994 543.709 179.994C537.352 179.992 530.033 180.194 521.753 180.597Z" fill="#092264"/>
<path d="M684.64 186.947C674.673 186.947 665.691 185.333 657.942 182.148C651.724 179.525 646.393 176.006 642.063 171.674C637.763 167.375 634.398 162.627 632.061 157.564C628.567 150.047 626.792 141.777 626.792 132.993C626.792 117.798 632.092 105.188 642.544 95.5128C652.906 85.9178 667.567 81.0527 686.117 81.0527C692.374 81.0527 698.097 81.5277 703.13 82.4637C708.133 83.3957 713.978 85.0557 720.502 87.3987L722.226 88.0178L723.741 91.9537L723.273 93.3268C722.647 95.1668 722.143 97.5667 721.777 100.462C721.12 105.406 720.701 110.006 720.528 114.158L720.369 117.992H707.368L707.297 114.065C707.223 110.025 707.057 106.651 706.801 104.007C704.438 101.753 701.816 100.023 698.991 98.8547C695.758 97.5197 691.449 96.8417 686.185 96.8417C676.723 96.8417 669.414 99.6957 663.838 105.568C658.286 111.416 655.471 119.853 655.471 130.644C655.471 137.31 656.45 143.162 658.38 148.039C660.29 152.868 662.845 156.893 665.973 160.002C669.151 163.159 672.346 165.473 675.471 166.879C679.786 168.779 685.207 169.749 691.555 169.749C695.772 169.749 699.802 169.27 703.534 168.327C707.287 167.379 711.466 165.706 715.953 163.356L718.446 162.051L724.329 167.464L719.473 178.126L718.266 178.763C712.408 181.856 707.03 184.017 702.282 185.186C697.534 186.355 691.597 186.947 684.64 186.947Z" fill="#092264"/>
<path d="M719.486 168.444L716.397 175.225C710.802 178.179 705.778 180.205 701.324 181.301C696.869 182.397 691.308 182.946 684.639 182.946C675.148 182.946 666.756 181.446 659.461 178.447C653.73 176.03 648.874 172.83 644.891 168.846C640.906 164.862 637.841 160.543 635.692 155.888C632.425 148.861 630.791 141.229 630.791 132.992C630.791 118.892 635.614 107.377 645.26 98.4468C654.905 89.5168 668.525 85.0518 686.117 85.0518C692.159 85.0518 697.586 85.4998 702.399 86.3948C707.209 87.2908 712.795 88.8787 719.151 91.1617L719.487 92.0338C718.77 94.1388 718.211 96.7787 717.808 99.9567C717.136 105.016 716.71 109.693 716.532 113.99H711.296C711.206 109.067 710.982 105.127 710.624 102.173C707.624 99.0397 704.256 96.7007 700.519 95.1567C696.781 93.6127 692.002 92.8398 686.185 92.8398C675.665 92.8398 667.25 96.1637 660.939 102.811C654.628 109.458 651.472 118.735 651.472 130.642C651.472 137.849 652.535 144.138 654.661 149.509C656.787 154.88 659.619 159.323 663.155 162.837C666.691 166.351 670.249 168.913 673.83 170.525C678.709 172.673 684.618 173.748 691.556 173.748C696.122 173.748 700.44 173.234 704.514 172.204C708.587 171.175 713.019 169.407 717.808 166.9L719.486 168.444Z" fill="#092264"/>
<path d="M779.377 186.947C768.722 186.947 759.385 184.962 751.625 181.046C743.723 177.059 737.437 171.098 732.944 163.33C728.488 155.631 726.228 146.012 726.228 134.738C726.228 126.067 727.582 118.353 730.25 111.809C732.947 105.202 736.861 99.5018 741.885 94.8698C746.88 90.2628 752.411 86.8858 758.325 84.8328C765.667 82.3218 773.737 81.0527 782.33 81.0527C790.883 81.0527 798.776 82.2788 805.791 84.6968C811.199 86.6148 816.025 89.4088 820.171 93.0128C824.275 96.5828 827.463 100.33 829.647 104.152C831.793 107.907 833.434 112.073 834.525 116.534C835.603 120.94 836.15 125.846 836.15 131.113C836.15 140.006 834.585 148.393 831.496 156.044C829.161 161.881 825.691 167.141 821.189 171.668C816.698 176.183 811.514 179.703 805.78 182.133C798.04 185.331 789.167 186.947 779.377 186.947ZM780.72 96.7067C775.022 96.7067 770.157 98.0268 766.258 100.633C762.378 103.226 759.614 107.015 757.811 112.215C755.885 117.761 754.91 124.007 754.91 130.777C754.91 140.625 756.251 148.812 758.894 155.113C761.42 161.134 764.601 165.384 768.349 167.744C772.156 170.143 776.77 171.359 782.063 171.359C787.006 171.359 791.284 170.229 795.139 167.905C798.803 165.695 801.771 161.767 803.958 156.231C806.289 150.33 807.471 142.986 807.471 134.403C807.471 128.509 806.826 123.069 805.555 118.231C804.317 113.524 802.538 109.491 800.271 106.245C798.083 103.118 795.495 100.711 792.578 99.0928C789.723 97.5098 785.733 96.7067 780.72 96.7067Z" fill="#092264"/>
<path d="M730.229 134.739C730.229 126.548 731.472 119.408 733.955 113.32C736.439 107.233 739.986 102.063 744.597 97.8107C749.207 93.5587 754.22 90.4918 759.637 88.6118C766.574 86.2398 774.14 85.0527 782.331 85.0527C790.478 85.0527 797.863 86.1937 804.489 88.4767C809.412 90.2227 813.764 92.7398 817.548 96.0308C821.33 99.3208 824.205 102.69 826.176 106.136C828.145 109.584 829.634 113.365 830.641 117.483C831.648 121.602 832.151 126.144 832.151 131.112C832.151 139.528 830.697 147.339 827.788 154.545C825.639 159.916 822.494 164.683 818.354 168.846C814.213 173.009 809.501 176.21 804.221 178.447C796.969 181.446 788.688 182.946 779.377 182.946C769.306 182.946 760.655 181.121 753.427 177.473C746.198 173.826 740.524 168.443 736.407 161.326C732.287 154.21 730.229 145.347 730.229 134.739ZM750.909 130.777C750.909 141.207 752.341 149.835 755.205 156.66C758.069 163.487 761.74 168.309 766.216 171.129C770.692 173.949 775.974 175.359 782.062 175.359C787.702 175.359 792.748 174.016 797.203 171.33C801.656 168.645 805.147 164.102 807.677 157.7C810.205 151.3 811.47 143.533 811.47 134.402C811.47 128.136 810.788 122.407 809.423 117.214C808.057 112.022 806.099 107.602 803.548 103.953C800.996 100.305 797.986 97.5187 794.517 95.5938C791.047 93.6697 786.448 92.7067 780.719 92.7067C774.184 92.7067 768.622 94.2408 764.034 97.3068C759.446 100.373 756.112 104.905 754.03 110.903C751.949 116.902 750.909 123.526 750.909 130.777Z" fill="#092264"/>
<path d="M842.722 174.523L845.162 173.489C845.843 173.201 847.161 172.555 849.574 171.117C849.716 171.037 849.836 170.966 849.938 170.903C850.041 169.717 850.205 166.923 850.376 160.382C850.554 153.567 850.644 145.278 850.644 135.745C850.644 121.714 850.599 112.94 850.511 109.667C850.347 101.945 850.114 98.6347 849.956 97.2277C848.95 97.0357 846.755 96.7457 842.202 96.5697L838.356 96.4217V82.4717L842.544 82.6697C848.132 82.9337 854.619 83.0667 861.826 83.0667C869.894 83.0667 877.638 82.9317 884.844 82.6677L888.991 82.5147V96.3997L885.169 96.5697C881.357 96.7387 879.368 96.9877 878.373 97.1657C878.283 98.1437 878.154 100.01 878.01 103.549C877.812 108.379 877.712 114.604 877.712 122.05C877.712 122.855 877.733 129.319 877.778 141.44C877.822 147.833 877.855 154.181 877.879 160.474C877.891 163.919 877.905 166.365 877.921 168.097C881.996 168.258 884.908 168.339 886.603 168.339C893.168 168.339 898.943 167.949 903.765 167.18C904.231 167.112 904.596 167.049 904.879 166.995C904.909 166.902 904.941 166.8 904.976 166.687C905.839 163.4 906.695 159.579 907.519 155.329L908.147 152.091H921.471L920.995 156.519C920.835 158.005 920.816 158.353 920.815 158.388V158.635L920.786 158.798L919.117 172.283C918.682 177.429 918.556 179.174 918.528 179.73L918.379 182.611L915.598 183.379C914.093 183.795 912.563 184.085 911.05 184.24C908.109 184.483 903.851 184.597 897.949 184.597C897.087 184.597 891.747 184.484 882.078 184.26C874.598 184.08 869.577 183.992 866.728 183.992C862.414 183.992 855.743 184.194 846.9 184.593L842.72 184.781V174.523H842.722Z" fill="#092264"/>
<path d="M846.721 180.597V177.173C847.883 176.681 849.517 175.808 851.622 174.554C852.562 174.017 853.166 173.57 853.435 173.211C853.613 172.988 853.726 172.741 853.771 172.472C853.995 171.354 854.196 167.359 854.375 160.487C854.553 153.616 854.644 145.369 854.644 135.745C854.644 121.601 854.599 112.872 854.51 109.56C854.331 101.145 854.04 96.3326 853.637 95.1236C853.458 94.5866 853.122 94.1836 852.63 93.9146C851.6 93.2436 848.175 92.7966 842.358 92.5716V86.6636C848.041 86.9326 854.533 87.0666 861.829 87.0666C869.976 87.0666 877.697 86.9326 884.994 86.6636V92.5716C879.935 92.7966 876.846 93.1986 875.728 93.7806C875.235 94.0496 874.877 94.4856 874.654 95.0896C874.429 95.6936 874.218 98.4576 874.017 103.382C873.816 108.306 873.715 114.527 873.715 122.047C873.715 122.853 873.737 129.321 873.782 141.451C873.826 147.853 873.859 154.198 873.882 160.486C873.904 166.775 873.938 170.591 873.982 171.934C880.16 172.203 884.367 172.337 886.606 172.337C893.409 172.337 899.34 171.934 904.398 171.128C906.233 170.859 907.329 170.569 907.688 170.256C908.046 169.943 908.427 169.115 908.829 167.772C909.724 164.371 910.597 160.477 911.448 156.089H917.02C916.886 157.342 916.819 158.081 916.819 158.304L915.14 171.867C914.781 176.12 914.58 178.672 914.536 179.521C913.238 179.88 911.94 180.125 910.642 180.26C907.911 180.485 903.681 180.596 897.952 180.596C897.146 180.596 891.886 180.485 882.173 180.26C874.787 180.082 869.639 179.991 866.73 179.991C862.342 179.992 855.673 180.194 846.721 180.597Z" fill="#092264"/>
<path d="M926.716 174.523L929.157 173.49C929.838 173.202 931.155 172.556 933.569 171.118C933.711 171.038 933.831 170.967 933.933 170.904C934.036 169.718 934.2 166.923 934.37 160.384C934.548 153.568 934.638 145.279 934.638 135.746C934.638 121.715 934.593 112.941 934.505 109.668C934.341 101.945 934.108 98.6356 933.95 97.2286C932.945 97.0366 930.749 96.7466 926.196 96.5706L922.35 96.4226V82.4727L926.538 82.6707C932.127 82.9347 938.614 83.0676 945.821 83.0676C953.889 83.0676 961.633 82.9326 968.838 82.6686L972.985 82.5156V96.4006L969.163 96.5706C965.353 96.7396 963.365 96.9886 962.37 97.1666C962.279 98.1416 962.148 100.012 962.004 103.55C961.806 108.404 961.706 114.628 961.706 122.051C961.706 122.856 961.727 129.32 961.772 141.441C961.816 147.834 961.85 154.182 961.874 160.475C961.886 163.681 961.899 166.213 961.916 168.098C965.99 168.259 968.902 168.34 970.597 168.34C977.162 168.34 982.937 167.95 987.76 167.181C988.225 167.113 988.59 167.05 988.873 166.996C988.903 166.903 988.935 166.801 988.97 166.688C989.833 163.401 990.689 159.58 991.513 155.33L992.141 152.092H1005.47L1004.99 156.52C1004.83 158.006 1004.81 158.354 1004.81 158.389V158.636L1004.78 158.799L1003.11 172.284C1002.68 177.43 1002.55 179.175 1002.52 179.731L1002.37 182.612L999.593 183.38C998.086 183.796 996.556 184.086 995.044 184.241C992.103 184.484 987.845 184.598 981.943 184.598C981.083 184.598 975.743 184.485 966.072 184.261C958.593 184.081 953.573 183.993 950.723 183.993C946.409 183.993 939.737 184.195 930.894 184.594L926.714 184.782V174.523H926.716Z" fill="#092264"/>
<path d="M930.716 180.597V177.173C931.879 176.681 933.513 175.808 935.618 174.554C936.558 174.017 937.162 173.57 937.431 173.211C937.609 172.988 937.722 172.741 937.767 172.472C937.991 171.354 938.192 167.359 938.37 160.487C938.548 153.616 938.639 145.369 938.639 135.745C938.639 121.601 938.594 112.872 938.505 109.56C938.326 101.145 938.036 96.3326 937.633 95.1236C937.454 94.5866 937.118 94.1836 936.626 93.9146C935.596 93.2436 932.171 92.7966 926.352 92.5716V86.6636C932.036 86.9326 938.527 87.0666 945.824 87.0666C953.97 87.0666 961.692 86.9326 968.988 86.6636V92.5716C963.93 92.7966 960.841 93.1986 959.723 93.7806C959.23 94.0496 958.872 94.4856 958.649 95.0896C958.425 95.6936 958.212 98.4576 958.011 103.382C957.811 108.306 957.709 114.527 957.709 122.047C957.709 122.853 957.731 129.321 957.776 141.451C957.82 147.853 957.854 154.198 957.877 160.486C957.899 166.775 957.932 170.591 957.977 171.934C964.155 172.203 968.361 172.337 970.6 172.337C977.404 172.337 983.334 171.934 988.393 171.128C990.228 170.859 991.324 170.569 991.682 170.256C992.04 169.943 992.421 169.115 992.823 167.772C993.718 164.371 994.591 160.477 995.442 156.089H1001.02C1000.88 157.342 1000.81 158.081 1000.81 158.304L999.135 171.867C998.776 176.12 998.575 178.672 998.531 179.521C997.232 179.88 995.934 180.125 994.636 180.26C991.905 180.485 987.676 180.596 981.946 180.596C981.14 180.596 975.881 180.485 966.167 180.26C958.782 180.082 953.633 179.991 950.725 179.991C946.337 179.992 939.667 180.194 930.716 180.597Z" fill="#092264"/>
<path d="M1009.77 174.425L1012.08 173.347C1013.82 172.534 1015.33 171.704 1016.58 170.87C1016.75 169.13 1016.9 166.754 1017.03 163.774C1017.38 156.144 1017.56 150.56 1017.56 147.16V116.946C1017.56 115.83 1017.49 111.448 1017.36 103.924C1017.26 100.054 1017.06 98.0388 1016.91 97.0328C1015.88 96.8498 1013.75 96.5828 1009.54 96.3668L1005.74 96.1718V82.5778L1025.41 83.0007C1028.45 83.0457 1031.38 83.0668 1034.18 83.0668C1040.24 83.0668 1047.11 82.9998 1054.59 82.8668C1054.59 82.8668 1068.21 82.5308 1068.23 82.5308C1069.97 82.5308 1073.19 82.6187 1078.18 82.7997C1078.98 82.8117 1079.96 82.9767 1081.32 83.3307L1083.01 83.7708L1084.91 87.3168L1083.49 98.1387C1083.43 99.0337 1082.56 111.411 1082.56 111.411H1069.66L1069.6 107.479C1069.52 102.95 1069.37 100.704 1069.25 99.6138C1068.65 99.5088 1067.74 99.3768 1066.4 99.2358C1062.11 98.7588 1057.87 98.5187 1053.79 98.5187C1050.99 98.5187 1048.11 98.5997 1045.2 98.7607C1044.82 103.076 1044.63 108.271 1044.63 114.258V124.246C1046.43 124.32 1048.28 124.358 1050.16 124.358C1051.14 124.358 1054.85 124.268 1061.2 124.091C1061.96 124.076 1062.54 124.053 1062.97 124.027C1063.18 122.926 1063.41 120.965 1063.49 117.592L1063.58 113.682H1077L1076.66 132.453L1077 151.158H1063.12L1063.15 147.124C1063.19 142.54 1062.91 140.592 1062.74 139.85C1062.7 139.842 1062.66 139.834 1062.62 139.827C1059.76 139.372 1055.97 139.14 1051.37 139.14C1048.86 139.14 1046.61 139.186 1044.63 139.278V164.011C1044.63 165.594 1044.65 167.068 1044.68 168.422C1047.38 168.543 1050.41 168.605 1053.72 168.605C1058.44 168.605 1062.84 168.451 1066.81 168.147C1069.72 167.925 1071.26 167.67 1072.03 167.5C1072.52 165.925 1073.23 162.834 1074.14 156.774L1074.65 153.365H1088.07L1087.58 157.807C1086.61 166.479 1086.12 173.694 1086.12 179.252V180.906L1083.09 183.948L1081.69 184.101C1078.65 184.433 1074.51 184.594 1069.03 184.594L1058.15 184.392C1047.58 184.259 1040.19 184.191 1036.2 184.191C1035.17 184.191 1027.65 184.327 1013.85 184.593L1009.77 184.672V174.425H1009.77Z" fill="#092264"/>
<path d="M1013.77 180.597V176.972C1016.46 175.719 1018.65 174.42 1020.35 173.077C1020.62 171.197 1020.84 168.154 1021.02 163.946C1021.38 156.248 1021.56 150.652 1021.56 147.16V116.946C1021.56 115.782 1021.49 111.418 1021.36 103.853C1021.22 98.7948 1020.91 95.7067 1020.42 94.5867C1020.19 94.1397 1019.86 93.8038 1019.41 93.5798C1018.2 93.0428 1014.98 92.6397 1009.74 92.3707V86.6638L1025.32 86.9998C1028.41 87.0448 1031.36 87.0668 1034.18 87.0668C1040.31 87.0668 1047.14 86.9998 1054.66 86.8658L1068.29 86.5298C1069.9 86.5298 1073.17 86.6198 1078.09 86.7988C1078.54 86.7988 1079.28 86.9328 1080.31 87.2018L1080.78 88.0748L1079.5 97.7438C1079.46 98.4148 1079.23 101.638 1078.83 107.412H1073.59C1073.5 102.131 1073.3 98.8848 1072.99 97.6768C1072.81 97.0508 1072.54 96.6027 1072.18 96.3337C1071.6 95.9307 1069.81 95.5728 1066.81 95.2598C1062.38 94.7678 1058.04 94.5208 1053.79 94.5208C1049.8 94.5208 1045.73 94.6778 1041.57 94.9908C1040.94 100.05 1040.63 106.472 1040.63 114.261V128.025C1043.67 128.25 1046.85 128.361 1050.16 128.361C1051.19 128.361 1054.91 128.272 1061.31 128.092C1063.72 128.048 1065.14 127.891 1065.57 127.622C1065.99 127.353 1066.32 126.883 1066.54 126.212C1067.08 124.511 1067.39 121.67 1067.48 117.685H1072.92L1072.65 132.456L1072.92 147.16H1067.15C1067.19 141.968 1066.86 138.767 1066.14 137.559C1065.6 136.664 1064.64 136.105 1063.25 135.88C1060.16 135.388 1056.2 135.141 1051.37 135.141C1047.03 135.141 1043.45 135.275 1040.63 135.544V164.012C1040.63 167.191 1040.69 169.92 1040.83 172.203C1044.45 172.472 1048.75 172.606 1053.72 172.606C1058.55 172.606 1063.02 172.45 1067.11 172.136C1071.21 171.823 1073.73 171.375 1074.67 170.793C1074.98 170.615 1075.27 170.212 1075.54 169.585C1076.34 167.436 1077.19 163.364 1078.09 157.365H1083.6C1082.61 166.227 1082.12 173.524 1082.12 179.253L1081.25 180.126C1078.38 180.44 1074.31 180.596 1069.03 180.596L1058.22 180.395C1047.56 180.261 1040.22 180.194 1036.19 180.194C1035.12 180.194 1027.65 180.328 1013.77 180.597Z" fill="#092264"/>
<path d="M1150.47 186.947C1140.51 186.947 1131.52 185.333 1123.77 182.148C1117.56 179.526 1112.23 176.006 1107.9 171.674C1103.6 167.377 1100.23 162.629 1097.89 157.564C1094.4 150.048 1092.62 141.778 1092.62 132.993C1092.62 117.8 1097.92 105.189 1108.38 95.5128C1118.74 85.9178 1133.4 81.0527 1151.95 81.0527C1158.21 81.0527 1163.93 81.5277 1168.96 82.4637C1173.96 83.3947 1179.81 85.0547 1186.33 87.3987L1188.06 88.0187L1189.57 91.9548L1189.11 93.3248C1188.48 95.1658 1187.98 97.5667 1187.61 100.464C1186.95 105.409 1186.53 110.01 1186.36 114.158L1186.2 117.992H1173.2L1173.13 114.066C1173.06 110.017 1172.89 106.642 1172.63 104.007C1170.27 101.754 1167.65 100.023 1164.82 98.8547C1161.59 97.5197 1157.28 96.8417 1152.02 96.8417C1142.55 96.8417 1135.25 99.6958 1129.67 105.567C1124.12 111.416 1121.3 119.853 1121.3 130.644C1121.3 137.309 1122.28 143.162 1124.21 148.039C1126.12 152.869 1128.68 156.894 1131.81 160.001C1134.98 163.158 1138.18 165.472 1141.3 166.879C1145.62 168.779 1151.04 169.749 1157.39 169.749C1161.6 169.749 1165.63 169.27 1169.37 168.327C1173.12 167.379 1177.3 165.706 1181.79 163.356L1184.28 162.05L1190.16 167.464L1185.31 178.126L1184.1 178.763C1178.24 181.856 1172.86 184.016 1168.11 185.186C1163.36 186.355 1157.43 186.947 1150.47 186.947Z" fill="#092264"/>
<path d="M1185.32 168.444L1182.23 175.225C1176.63 178.179 1171.61 180.205 1167.16 181.301C1162.7 182.397 1157.14 182.946 1150.47 182.946C1140.98 182.946 1132.59 181.446 1125.29 178.447C1119.56 176.03 1114.71 172.83 1110.72 168.846C1106.74 164.862 1103.67 160.543 1101.53 155.888C1098.26 148.861 1096.62 141.229 1096.62 132.992C1096.62 118.892 1101.45 107.377 1111.09 98.4468C1120.74 89.5168 1134.36 85.0518 1151.95 85.0518C1157.99 85.0518 1163.42 85.4998 1168.23 86.3948C1173.04 87.2908 1178.63 88.8787 1184.98 91.1617L1185.32 92.0338C1184.6 94.1388 1184.04 96.7787 1183.64 99.9567C1182.97 105.016 1182.54 109.693 1182.36 113.99H1177.13C1177.04 109.067 1176.82 105.127 1176.46 102.173C1173.46 99.0397 1170.09 96.7007 1166.35 95.1567C1162.61 93.6127 1157.83 92.8398 1152.02 92.8398C1141.5 92.8398 1133.08 96.1637 1126.77 102.811C1120.46 109.458 1117.31 118.735 1117.31 130.642C1117.31 137.849 1118.37 144.138 1120.49 149.509C1122.62 154.88 1125.45 159.323 1128.99 162.837C1132.52 166.351 1136.08 168.913 1139.66 170.525C1144.54 172.673 1150.45 173.748 1157.39 173.748C1161.96 173.748 1166.27 173.234 1170.35 172.204C1174.42 171.175 1178.85 169.407 1183.64 166.9L1185.32 168.444Z" fill="#092264"/>
<path d="M1208.98 171.221L1212.85 171.093C1218.23 170.915 1220.12 170.582 1220.68 170.447C1220.69 170.413 1220.71 170.359 1220.74 170.283C1220.93 169.466 1221.34 166.271 1221.34 153.941V113.722C1221.34 106.294 1221.31 101.91 1221.27 99.3257H1215.54C1210.92 99.3257 1206.8 99.4737 1203.29 99.7657C1202.79 102.62 1202.49 105.816 1202.41 109.316L1202.32 113.224H1188.92L1188.84 109.302C1188.63 98.2618 1188.54 94.8267 1188.51 93.9247C1188.38 92.0707 1188.17 90.0368 1187.87 87.8768L1187.62 86.0388L1190.83 82.4697L1192.86 82.6868C1194.86 82.9008 1197.03 83.0518 1199.3 83.1368C1203.09 83.2688 1210.52 83.3348 1221.38 83.3348H1248.5C1259.67 83.3348 1267.24 83.2688 1270.99 83.1368C1272.92 83.0528 1274.94 82.9008 1276.95 82.6868L1278.85 82.4838L1282.29 85.9288L1282 87.9178C1281.62 90.5108 1281.38 92.7898 1281.3 94.6918L1281.29 94.8547L1281.29 94.9108C1281.26 95.4588 1281.19 98.1268 1281.04 109.28L1280.98 113.223H1267.56L1267.46 109.326C1267.38 106.017 1267.1 102.822 1266.64 99.8307C1266.63 99.8167 1266.63 99.8047 1266.63 99.7917C1263.15 99.4797 1259.04 99.3248 1254.34 99.3248H1248.61C1248.57 102.019 1248.54 106.467 1248.54 113.721V153.94C1248.54 166.549 1248.97 169.664 1249.15 170.419C1249.65 170.549 1251.49 170.908 1257.02 171.091L1260.89 171.219V184.785L1256.71 184.591C1248.13 184.193 1240.81 183.99 1234.93 183.99C1228.67 183.99 1221.34 184.192 1213.17 184.59L1208.98 184.794V171.221H1208.98Z" fill="#092264"/>
<path d="M1212.98 180.597V175.091C1218.35 174.913 1221.54 174.554 1222.55 174.017C1223.56 173.48 1224.24 172.585 1224.6 171.331C1225.09 169.407 1225.34 163.61 1225.34 153.941V113.723C1225.34 102.757 1225.27 96.6246 1225.14 95.3256H1215.53C1210.7 95.3256 1206.45 95.4826 1202.78 95.7956C1201.3 95.9296 1200.45 96.1096 1200.22 96.3326C1199.91 96.6016 1199.64 97.3846 1199.42 98.6826C1198.84 101.817 1198.5 105.33 1198.41 109.225H1192.84C1192.66 100.049 1192.55 94.8796 1192.5 93.7146C1192.37 91.7456 1192.15 89.6195 1191.83 87.3365L1192.44 86.6646C1194.54 86.8896 1196.78 87.0456 1199.15 87.1346C1203 87.2686 1210.41 87.3356 1221.38 87.3356H1248.5C1259.78 87.3356 1267.32 87.2686 1271.13 87.1346C1273.19 87.0456 1275.27 86.8896 1277.37 86.6646L1278.04 87.3365C1277.64 90.0675 1277.39 92.4626 1277.31 94.5206C1277.26 94.8796 1277.17 99.7805 1277.04 109.225H1271.46C1271.37 105.733 1271.08 102.4 1270.59 99.2206C1270.32 97.6096 1270.03 96.6476 1269.72 96.3336C1269.45 96.1106 1268.73 95.9536 1267.57 95.8636C1263.9 95.5056 1259.49 95.3266 1254.34 95.3266H1244.74C1244.61 96.8946 1244.54 103.026 1244.54 113.724V153.942C1244.54 163.611 1244.78 169.43 1245.28 171.399C1245.59 172.564 1246.26 173.425 1247.29 173.984C1248.32 174.544 1251.52 174.914 1256.89 175.092V180.598C1248.21 180.195 1240.89 179.994 1234.94 179.994C1228.58 179.992 1221.26 180.194 1212.98 180.597Z" fill="#092264"/>
<path d="M1283.04 170.839L1286.89 170.692C1291.24 170.525 1293.09 170.405 1293.88 170.338C1293.95 169.505 1294.05 168.126 1294.19 165.851C1294.54 160.562 1294.72 155.636 1294.72 151.19V123.125C1294.72 114.306 1294.68 108.57 1294.59 106.077C1294.38 100.697 1294.15 98.1478 1294.01 96.9548C1293.19 96.8748 1291.26 96.7328 1286.89 96.5718L1283.04 96.4297V82.4697L1287.23 82.6697C1292.77 82.9337 1299.24 83.0668 1306.44 83.0668C1314.55 83.0668 1322.32 82.9318 1329.53 82.6678L1333.67 82.5148V96.4567L1329.79 96.5707C1324.71 96.7207 1323.11 96.8858 1322.65 96.9518C1322.57 97.4008 1322.47 98.1997 1322.38 99.5367C1322.32 100.338 1322.24 102.039 1322.19 105.922C1321.96 120.224 1321.92 123.174 1321.92 123.66V150.719L1322.12 162.941C1322.12 167.542 1322.35 169.531 1322.5 170.329C1322.52 170.335 1322.55 170.341 1322.58 170.347C1322.75 170.381 1323.98 170.573 1329.75 170.691L1333.67 170.771V184.749L1329.53 184.596C1322.3 184.33 1314.49 184.196 1306.31 184.196C1299.2 184.196 1292.79 184.33 1287.23 184.594L1283.04 184.794V170.839H1283.04Z" fill="#092264"/>
<path d="M1329.67 86.6646V92.5726C1325.15 92.7066 1322.47 92.8746 1321.62 93.0766C1320.77 93.2776 1320.16 93.5246 1319.8 93.8156C1319.45 94.1076 1319.2 94.4766 1319.07 94.9236C1318.75 95.6856 1318.53 97.1396 1318.39 99.2876C1318.3 100.453 1318.24 102.645 1318.19 105.868C1318.01 116.88 1317.92 122.811 1317.92 123.661V150.719L1318.12 163.006C1318.12 167.617 1318.35 170.616 1318.8 172.003C1318.97 172.63 1319.28 173.111 1319.7 173.447C1320.13 173.783 1320.8 174.051 1321.72 174.253C1322.63 174.454 1325.29 174.6 1329.67 174.689V180.597C1322.38 180.328 1314.59 180.194 1306.31 180.194C1299.1 180.194 1292.68 180.328 1287.04 180.597V174.689C1291.69 174.511 1294.38 174.353 1295.1 174.219C1296.04 174.041 1296.67 173.794 1297.01 173.48C1297.35 173.167 1297.56 172.809 1297.65 172.406C1297.78 171.869 1297.96 169.766 1298.18 166.095C1298.54 160.724 1298.72 155.755 1298.72 151.189V123.124C1298.72 114.217 1298.68 108.487 1298.59 105.935C1298.36 100.251 1298.09 96.6926 1297.78 95.2596C1297.65 94.6786 1297.43 94.2306 1297.14 93.9166C1296.85 93.6036 1296.31 93.3456 1295.53 93.1446C1294.75 92.9436 1291.92 92.7535 1287.04 92.5735V86.6656C1292.68 86.9346 1299.15 87.0685 1306.44 87.0685C1314.63 87.0675 1322.38 86.9326 1329.67 86.6646Z" fill="#092264"/>
<path d="M1381.23 185.066L1380.22 182.567C1376.4 173.138 1372.72 164.133 1369.28 155.803L1359.76 133.06C1352.35 115.358 1347.74 104.702 1346.08 101.387C1344.67 98.5879 1343.9 97.5109 1343.59 97.1439C1343.08 96.9799 1341.45 96.5939 1337.31 96.5039L1333.4 96.4199V82.5459L1337.51 82.6659C1348.16 82.9769 1354.71 83.1339 1357 83.1339L1385.1 82.5849V96.4568L1381.15 96.5049C1377.76 96.5449 1375.77 96.7309 1374.6 96.9189C1375.04 98.3539 1376.05 101.264 1378.42 107.026C1381.03 113.332 1381.15 113.711 1381.24 113.961C1381.34 114.262 1381.46 114.615 1381.61 115.029L1394.84 147.287L1406.07 119.476C1406.28 118.966 1407.15 116.733 1410.79 106.893C1412.96 101.113 1413.87 98.3129 1414.24 96.9549C1411.39 96.6949 1409.03 96.5449 1407.13 96.5029L1403.22 96.4159V82.5669L1424.27 83.0639L1442.78 82.5499V96.1489L1439.15 96.4859C1435.81 96.7969 1434.26 97.0889 1433.59 97.2509C1432.95 98.2169 1431.22 101.288 1427.3 110.696L1422.52 121.874L1413.46 143.468C1405.82 161.775 1400.58 174.878 1397.9 182.408L1396.95 185.064H1381.23V185.066Z" fill="#092264"/>
<path d="M1383.93 181.067C1380.12 171.667 1376.47 162.737 1372.98 154.277L1363.45 131.516C1355.97 113.656 1351.37 103.015 1349.65 99.5896C1347.93 96.1656 1346.62 94.2076 1345.72 93.7146C1344.38 92.9986 1341.6 92.5966 1337.4 92.5056V86.6646C1348.14 86.9786 1354.67 87.1346 1357 87.1346L1381.11 86.6646V92.5056C1377.35 92.5506 1374.62 92.7746 1372.92 93.1776C1371.93 93.4026 1371.25 93.7266 1370.87 94.1516C1370.49 94.5776 1370.3 95.1256 1370.3 95.7966C1370.3 97.1396 1371.77 101.393 1374.73 108.554C1376.43 112.673 1377.34 114.899 1377.45 115.235C1377.56 115.571 1377.7 115.985 1377.88 116.477L1394.87 157.903L1409.78 120.975C1410.13 120.125 1411.72 115.895 1414.54 108.285C1416.56 102.914 1417.79 99.3105 1418.24 97.4745C1418.32 96.9375 1418.37 96.4005 1418.37 95.8625C1418.37 95.1015 1418.25 94.5316 1418 94.1506C1417.75 93.7706 1417.43 93.4906 1417.03 93.3116C1416.71 93.1776 1415.91 93.0666 1414.61 92.9756C1411.7 92.7066 1409.24 92.5506 1407.22 92.5056V86.6646L1424.28 87.0676L1438.78 86.6646V92.5056C1434.44 92.9086 1431.91 93.3786 1431.19 93.9156C1429.98 94.8556 1427.46 99.9366 1423.61 109.157L1418.84 120.302L1409.78 141.922C1402.08 160.364 1396.86 173.412 1394.13 181.066H1383.93V181.067Z" fill="#092264"/>
<path d="M1445.26 174.425L1447.56 173.347C1449.31 172.535 1450.81 171.704 1452.07 170.869C1452.23 169.129 1452.38 166.754 1452.51 163.774C1452.86 156.144 1453.04 150.56 1453.04 147.16V116.946C1453.04 115.811 1452.98 111.43 1452.84 103.925C1452.74 100.055 1452.54 98.0398 1452.39 97.0328C1451.36 96.8498 1449.23 96.5828 1445.02 96.3668L1441.23 96.1718V82.5778L1460.89 83.0007C1463.93 83.0457 1466.86 83.0668 1469.67 83.0668C1475.73 83.0668 1482.59 82.9998 1490.07 82.8668C1490.07 82.8668 1503.7 82.5308 1503.71 82.5308C1505.45 82.5308 1508.68 82.6187 1513.67 82.7997C1514.47 82.8117 1515.44 82.9767 1516.8 83.3307L1518.49 83.7698L1520.4 87.3148L1518.97 98.1387C1518.91 99.0337 1518.05 111.411 1518.05 111.411H1505.15L1505.08 107.479C1505 102.949 1504.85 100.703 1504.74 99.6138C1504.14 99.5088 1503.23 99.3768 1501.88 99.2358C1497.59 98.7588 1493.36 98.5187 1489.27 98.5187C1486.48 98.5187 1483.6 98.5997 1480.68 98.7607C1480.3 103.074 1480.11 108.269 1480.11 114.258V124.246C1481.91 124.32 1483.76 124.358 1485.65 124.358C1486.62 124.358 1490.34 124.268 1496.68 124.091C1497.44 124.076 1498.02 124.053 1498.45 124.027C1498.66 122.927 1498.89 120.966 1498.97 117.591L1499.06 113.682H1512.48L1512.14 132.453L1512.48 151.158H1498.6L1498.63 147.124C1498.67 142.539 1498.39 140.591 1498.22 139.849C1498.19 139.842 1498.15 139.834 1498.1 139.827C1495.24 139.372 1491.46 139.14 1486.86 139.14C1484.35 139.14 1482.09 139.186 1480.11 139.278V164.011C1480.11 165.59 1480.13 167.064 1480.17 168.422C1482.87 168.543 1485.89 168.605 1489.21 168.605C1493.92 168.605 1498.32 168.451 1502.3 168.147C1505.2 167.925 1506.74 167.67 1507.51 167.5C1508 165.924 1508.72 162.833 1509.62 156.774L1510.13 153.365H1523.55L1523.06 157.807C1522.1 166.479 1521.61 173.694 1521.61 179.252V180.907L1518.57 183.948L1517.17 184.101C1514.14 184.433 1510 184.594 1504.52 184.594L1493.63 184.392C1483.07 184.259 1475.68 184.191 1471.68 184.191C1470.66 184.191 1463.14 184.327 1449.34 184.593L1445.26 184.672V174.425H1445.26Z" fill="#092264"/>
<path d="M1449.26 180.597V176.972C1451.94 175.719 1454.13 174.42 1455.83 173.077C1456.1 171.197 1456.33 168.154 1456.51 163.946C1456.86 156.248 1457.04 150.652 1457.04 147.16V116.946C1457.04 115.782 1456.98 111.418 1456.84 103.853C1456.71 98.7948 1456.39 95.7067 1455.9 94.5867C1455.68 94.1397 1455.34 93.8038 1454.89 93.5798C1453.69 93.0428 1450.46 92.6397 1445.23 92.3707V86.6638L1460.8 86.9998C1463.89 87.0448 1466.85 87.0668 1469.67 87.0668C1475.8 87.0668 1482.62 86.9998 1490.14 86.8658L1503.77 86.5298C1505.39 86.5298 1508.65 86.6198 1513.58 86.7988C1514.02 86.7988 1514.76 86.9328 1515.79 87.2018L1516.26 88.0748L1514.99 97.7438C1514.94 98.4148 1514.72 101.638 1514.32 107.412H1509.08C1508.99 102.131 1508.79 98.8848 1508.47 97.6768C1508.29 97.0508 1508.03 96.6027 1507.67 96.3337C1507.09 95.9307 1505.29 95.5728 1502.3 95.2598C1497.86 94.7678 1493.52 94.5208 1489.27 94.5208C1485.29 94.5208 1481.21 94.6778 1477.05 94.9908C1476.42 100.05 1476.11 106.472 1476.11 114.261V128.025C1479.15 128.25 1482.33 128.361 1485.64 128.361C1486.67 128.361 1490.39 128.272 1496.79 128.092C1499.21 128.048 1500.63 127.891 1501.05 127.622C1501.48 127.353 1501.8 126.883 1502.03 126.212C1502.56 124.511 1502.88 121.67 1502.97 117.685H1508.41L1508.14 132.456L1508.41 147.16H1502.63C1502.68 141.968 1502.34 138.767 1501.62 137.559C1501.09 136.664 1500.12 136.105 1498.74 135.88C1495.65 135.388 1491.69 135.141 1486.85 135.141C1482.51 135.141 1478.93 135.275 1476.11 135.544V164.012C1476.11 167.191 1476.18 169.92 1476.31 172.203C1479.94 172.472 1484.23 172.606 1489.2 172.606C1494.04 172.606 1498.5 172.45 1502.6 172.136C1506.69 171.823 1509.21 171.375 1510.15 170.793C1510.46 170.615 1510.75 170.212 1511.02 169.585C1511.83 167.436 1512.68 163.364 1513.57 157.365H1519.08C1518.09 166.227 1517.6 173.524 1517.6 179.253L1516.73 180.126C1513.87 180.44 1509.79 180.596 1504.51 180.596L1493.7 180.395C1483.05 180.261 1475.71 180.194 1471.68 180.194C1470.61 180.194 1463.13 180.328 1449.26 180.597Z" fill="#092264"/>
<path d="M332.613 180.597V177.441C334.985 176.055 336.954 174.666 338.522 173.278C338.791 171.085 338.969 168.4 339.059 165.221C339.237 158.686 339.328 146.802 339.328 129.569C339.328 124.959 339.216 117.775 338.992 108.016C338.858 100.496 338.611 96.1988 338.253 95.1248C338.028 94.4538 337.693 93.9828 337.246 93.7148C336.306 93.0888 332.949 92.5967 327.175 92.2377V86.6647C328.159 86.6647 329.189 86.6878 330.264 86.7318L339.529 87.0007C342.573 87.0457 346.354 87.0677 350.876 87.0677C355.352 87.0677 358.866 87.0238 361.417 86.9338C367.863 86.6648 372.069 86.5308 374.04 86.5308C381.426 86.5308 387.122 87.2928 391.129 88.8138C395.134 90.3358 398.066 92.5397 399.924 95.4277C401.781 98.3147 402.71 101.549 402.71 105.13C402.71 108.981 401.647 112.561 399.521 115.873C397.394 119.186 394.675 121.759 391.363 123.594C389.393 124.713 385.006 126.212 378.203 128.092C386.349 129.077 392.022 130.375 395.223 131.986C398.423 133.598 400.986 136.116 402.911 139.54C404.835 142.965 405.798 146.781 405.798 150.988C405.798 155.42 404.813 159.438 402.843 163.04C400.873 166.643 398.333 169.721 395.222 172.272C392.11 174.824 388.541 176.85 384.514 178.348C380.485 179.848 375.449 180.597 369.407 180.597L346.846 180.194C343.222 180.194 338.477 180.328 332.613 180.597ZM358.061 125.406L361.954 125.473C364.998 125.473 367.818 125.228 370.415 124.734C373.01 124.242 375.114 123.381 376.726 122.149C378.338 120.918 379.69 119.083 380.788 116.643C381.884 114.204 382.434 111.395 382.434 108.216C382.434 104.993 381.807 102.252 380.554 99.9908C379.3 97.7308 377.667 96.1197 375.652 95.1567C373.638 94.1947 370.617 93.7128 366.588 93.7128C363.678 93.7128 361.037 93.8918 358.665 94.2498C358.396 97.4728 358.24 101.189 358.195 105.395L358.062 115.802V125.406H358.061ZM358.328 173.077C359.805 173.391 362.58 173.547 366.654 173.547C372.203 173.547 376.692 171.724 380.115 168.075C383.54 164.427 385.251 159.202 385.251 152.397C385.251 147.563 384.356 143.647 382.566 140.647C380.775 137.648 378.403 135.534 375.448 134.302C372.493 133.071 368.421 132.455 363.228 132.455C361.392 132.455 359.669 132.545 358.059 132.724V163.341L358.192 171.331C358.194 171.555 358.239 172.137 358.328 173.077Z" fill="white"/>
<path d="M421.846 180.597V176.972C424.531 175.719 426.724 174.42 428.425 173.077C428.694 171.197 428.917 168.154 429.096 163.946C429.454 156.248 429.633 150.652 429.633 147.16V116.946C429.633 115.782 429.566 111.418 429.432 103.853C429.298 98.7948 428.984 95.7067 428.492 94.5867C428.267 94.1397 427.932 93.8038 427.485 93.5798C426.276 93.0428 423.054 92.6397 417.817 92.3707V86.6638L433.394 86.9998C436.483 87.0448 439.436 87.0668 442.256 87.0668C448.388 87.0668 455.214 86.9998 462.735 86.8658L476.364 86.5298C477.976 86.5298 481.243 86.6198 486.168 86.7988C486.615 86.7988 487.354 86.9328 488.384 87.2018L488.854 88.0748L487.578 97.7438C487.533 98.4148 487.309 101.638 486.906 107.412H481.669C481.579 102.131 481.377 98.8848 481.065 97.6768C480.886 97.0508 480.617 96.6027 480.259 96.3337C479.677 95.9307 477.886 95.5728 474.888 95.2598C470.456 94.7678 466.114 94.5208 461.862 94.5208C457.877 94.5208 453.804 94.6778 449.642 94.9908C449.015 100.05 448.702 106.472 448.702 114.261V128.025C451.745 128.25 454.923 128.361 458.236 128.361C459.265 128.361 462.98 128.272 469.381 128.092C471.798 128.048 473.218 127.891 473.644 127.622C474.069 127.353 474.394 126.883 474.618 126.212C475.155 124.511 475.468 121.67 475.558 117.685H480.996L480.727 132.456L480.996 147.16H475.222C475.266 141.968 474.93 138.767 474.215 137.559C473.678 136.664 472.715 136.105 471.328 135.88C468.239 135.388 464.277 135.141 459.444 135.141C455.101 135.141 451.521 135.275 448.701 135.544V164.012C448.701 167.191 448.768 169.92 448.902 172.203C452.527 172.472 456.824 172.606 461.793 172.606C466.626 172.606 471.091 172.45 475.187 172.136C479.283 171.823 481.801 171.375 482.741 170.793C483.054 170.615 483.345 170.212 483.614 169.585C484.42 167.436 485.27 163.364 486.166 157.365H491.671C490.686 166.227 490.194 173.524 490.194 179.253L489.322 180.126C486.457 180.44 482.383 180.596 477.101 180.596L466.291 180.395C455.638 180.261 448.298 180.194 444.269 180.194C443.196 180.194 435.721 180.328 421.846 180.597Z" fill="white"/>
<path d="M521.753 180.597V175.091C527.125 174.913 530.314 174.554 531.321 174.017C532.328 173.48 533.01 172.585 533.368 171.331C533.86 169.407 534.107 163.61 534.107 153.941V113.723C534.107 102.757 534.04 96.6246 533.906 95.3256H524.305C519.47 95.3256 515.217 95.4826 511.548 95.7956C510.071 95.9296 509.22 96.1096 508.996 96.3326C508.682 96.6016 508.414 97.3846 508.19 98.6826C507.608 101.817 507.272 105.33 507.183 109.225H501.61C501.431 100.049 501.318 94.8796 501.274 93.7146C501.14 91.7456 500.916 89.6195 500.604 87.3365L501.207 86.6646C503.311 86.8896 505.548 87.0456 507.922 87.1346C511.771 87.2686 519.179 87.3356 530.146 87.3356H557.271C568.551 87.3356 576.093 87.2686 579.899 87.1346C581.956 87.0456 584.038 86.8896 586.143 86.6646L586.815 87.3365C586.412 90.0675 586.166 92.4626 586.076 94.5206C586.031 94.8796 585.942 99.7805 585.807 109.225H580.234C580.145 105.733 579.854 102.4 579.362 99.2206C579.093 97.6096 578.802 96.6476 578.489 96.3336C578.22 96.1106 577.504 95.9536 576.34 95.8636C572.669 95.5056 568.259 95.3266 563.113 95.3266H553.512C553.378 96.8946 553.311 103.026 553.311 113.724V153.942C553.311 163.611 553.556 169.43 554.049 171.399C554.362 172.564 555.033 173.425 556.063 173.984C557.092 174.544 560.293 174.914 565.665 175.092V180.598C556.98 180.195 549.662 179.994 543.709 179.994C537.352 179.992 530.033 180.194 521.753 180.597Z" fill="white"/>
<path d="M719.486 168.444L716.397 175.225C710.802 178.179 705.778 180.205 701.324 181.301C696.869 182.397 691.308 182.946 684.639 182.946C675.148 182.946 666.756 181.446 659.461 178.447C653.73 176.03 648.874 172.83 644.891 168.846C640.906 164.862 637.841 160.543 635.692 155.888C632.425 148.861 630.791 141.229 630.791 132.992C630.791 118.892 635.614 107.377 645.26 98.4468C654.905 89.5168 668.525 85.0518 686.117 85.0518C692.159 85.0518 697.586 85.4998 702.399 86.3948C707.209 87.2908 712.795 88.8787 719.151 91.1617L719.487 92.0338C718.77 94.1388 718.211 96.7787 717.808 99.9567C717.136 105.016 716.71 109.693 716.532 113.99H711.296C711.206 109.067 710.982 105.127 710.624 102.173C707.624 99.0397 704.256 96.7007 700.519 95.1567C696.781 93.6127 692.002 92.8398 686.185 92.8398C675.665 92.8398 667.25 96.1637 660.939 102.811C654.628 109.458 651.472 118.735 651.472 130.642C651.472 137.849 652.535 144.138 654.661 149.509C656.787 154.88 659.619 159.323 663.155 162.837C666.691 166.351 670.249 168.913 673.83 170.525C678.709 172.673 684.618 173.748 691.556 173.748C696.122 173.748 700.44 173.234 704.514 172.204C708.587 171.175 713.019 169.407 717.808 166.9L719.486 168.444Z" fill="white"/>
<path d="M730.229 134.739C730.229 126.548 731.472 119.408 733.955 113.32C736.439 107.233 739.986 102.063 744.597 97.8107C749.207 93.5587 754.22 90.4918 759.637 88.6118C766.574 86.2398 774.14 85.0527 782.331 85.0527C790.478 85.0527 797.863 86.1937 804.489 88.4767C809.412 90.2227 813.764 92.7398 817.548 96.0308C821.33 99.3208 824.205 102.69 826.176 106.136C828.145 109.584 829.634 113.365 830.641 117.483C831.648 121.602 832.151 126.144 832.151 131.112C832.151 139.528 830.697 147.339 827.788 154.545C825.639 159.916 822.494 164.683 818.354 168.846C814.213 173.009 809.501 176.21 804.221 178.447C796.969 181.446 788.688 182.946 779.377 182.946C769.306 182.946 760.655 181.121 753.427 177.473C746.198 173.826 740.524 168.443 736.407 161.326C732.287 154.21 730.229 145.347 730.229 134.739ZM750.909 130.777C750.909 141.207 752.341 149.835 755.205 156.66C758.069 163.487 761.74 168.309 766.216 171.129C770.692 173.949 775.974 175.359 782.062 175.359C787.702 175.359 792.748 174.016 797.203 171.33C801.656 168.645 805.147 164.102 807.677 157.7C810.205 151.3 811.47 143.533 811.47 134.402C811.47 128.136 810.788 122.407 809.423 117.214C808.057 112.022 806.099 107.602 803.548 103.953C800.996 100.305 797.986 97.5187 794.517 95.5938C791.047 93.6697 786.448 92.7067 780.719 92.7067C774.184 92.7067 768.622 94.2408 764.034 97.3068C759.446 100.373 756.112 104.905 754.03 110.903C751.949 116.902 750.909 123.526 750.909 130.777Z" fill="white"/>
<path d="M846.721 180.597V177.173C847.883 176.681 849.517 175.808 851.622 174.554C852.562 174.017 853.166 173.57 853.435 173.211C853.613 172.988 853.726 172.741 853.771 172.472C853.995 171.354 854.196 167.359 854.375 160.487C854.553 153.616 854.644 145.369 854.644 135.745C854.644 121.601 854.599 112.872 854.51 109.56C854.331 101.145 854.04 96.3326 853.637 95.1236C853.458 94.5866 853.122 94.1836 852.63 93.9146C851.6 93.2436 848.175 92.7966 842.358 92.5716V86.6636C848.041 86.9326 854.533 87.0666 861.829 87.0666C869.976 87.0666 877.697 86.9326 884.994 86.6636V92.5716C879.935 92.7966 876.846 93.1986 875.728 93.7806C875.235 94.0496 874.877 94.4856 874.654 95.0896C874.429 95.6936 874.218 98.4576 874.017 103.382C873.816 108.306 873.715 114.527 873.715 122.047C873.715 122.853 873.737 129.321 873.782 141.451C873.826 147.853 873.859 154.198 873.882 160.486C873.904 166.775 873.938 170.591 873.982 171.934C880.16 172.203 884.367 172.337 886.606 172.337C893.409 172.337 899.34 171.934 904.398 171.128C906.233 170.859 907.329 170.569 907.688 170.256C908.046 169.943 908.427 169.115 908.829 167.772C909.724 164.371 910.597 160.477 911.448 156.089H917.02C916.886 157.342 916.819 158.081 916.819 158.304L915.14 171.867C914.781 176.12 914.58 178.672 914.536 179.521C913.238 179.88 911.94 180.125 910.642 180.26C907.911 180.485 903.681 180.596 897.952 180.596C897.146 180.596 891.886 180.485 882.173 180.26C874.787 180.082 869.639 179.991 866.73 179.991C862.342 179.992 855.673 180.194 846.721 180.597Z" fill="white"/>
<path d="M930.716 180.597V177.173C931.879 176.681 933.513 175.808 935.618 174.554C936.558 174.017 937.162 173.57 937.431 173.211C937.609 172.988 937.722 172.741 937.767 172.472C937.991 171.354 938.192 167.359 938.37 160.487C938.548 153.616 938.639 145.369 938.639 135.745C938.639 121.601 938.594 112.872 938.505 109.56C938.326 101.145 938.036 96.3326 937.633 95.1236C937.454 94.5866 937.118 94.1836 936.626 93.9146C935.596 93.2436 932.171 92.7966 926.352 92.5716V86.6636C932.036 86.9326 938.527 87.0666 945.824 87.0666C953.97 87.0666 961.692 86.9326 968.988 86.6636V92.5716C963.93 92.7966 960.841 93.1986 959.723 93.7806C959.23 94.0496 958.872 94.4856 958.649 95.0896C958.425 95.6936 958.212 98.4576 958.011 103.382C957.811 108.306 957.709 114.527 957.709 122.047C957.709 122.853 957.731 129.321 957.776 141.451C957.82 147.853 957.854 154.198 957.877 160.486C957.899 166.775 957.932 170.591 957.977 171.934C964.155 172.203 968.361 172.337 970.6 172.337C977.404 172.337 983.334 171.934 988.393 171.128C990.228 170.859 991.324 170.569 991.682 170.256C992.04 169.943 992.421 169.115 992.823 167.772C993.718 164.371 994.591 160.477 995.442 156.089H1001.02C1000.88 157.342 1000.81 158.081 1000.81 158.304L999.135 171.867C998.776 176.12 998.575 178.672 998.531 179.521C997.232 179.88 995.934 180.125 994.636 180.26C991.905 180.485 987.676 180.596 981.946 180.596C981.14 180.596 975.881 180.485 966.167 180.26C958.782 180.082 953.633 179.991 950.725 179.991C946.337 179.992 939.667 180.194 930.716 180.597Z" fill="white"/>
<path d="M1013.77 180.597V176.972C1016.46 175.719 1018.65 174.42 1020.35 173.077C1020.62 171.197 1020.84 168.154 1021.02 163.946C1021.38 156.248 1021.56 150.652 1021.56 147.16V116.946C1021.56 115.782 1021.49 111.418 1021.36 103.853C1021.22 98.7948 1020.91 95.7067 1020.42 94.5867C1020.19 94.1397 1019.86 93.8038 1019.41 93.5798C1018.2 93.0428 1014.98 92.6397 1009.74 92.3707V86.6638L1025.32 86.9998C1028.41 87.0448 1031.36 87.0668 1034.18 87.0668C1040.31 87.0668 1047.14 86.9998 1054.66 86.8658L1068.29 86.5298C1069.9 86.5298 1073.17 86.6198 1078.09 86.7988C1078.54 86.7988 1079.28 86.9328 1080.31 87.2018L1080.78 88.0748L1079.5 97.7438C1079.46 98.4148 1079.23 101.638 1078.83 107.412H1073.59C1073.5 102.131 1073.3 98.8848 1072.99 97.6768C1072.81 97.0508 1072.54 96.6027 1072.18 96.3337C1071.6 95.9307 1069.81 95.5728 1066.81 95.2598C1062.38 94.7678 1058.04 94.5208 1053.79 94.5208C1049.8 94.5208 1045.73 94.6778 1041.57 94.9908C1040.94 100.05 1040.63 106.472 1040.63 114.261V128.025C1043.67 128.25 1046.85 128.361 1050.16 128.361C1051.19 128.361 1054.91 128.272 1061.31 128.092C1063.72 128.048 1065.14 127.891 1065.57 127.622C1065.99 127.353 1066.32 126.883 1066.54 126.212C1067.08 124.511 1067.39 121.67 1067.48 117.685H1072.92L1072.65 132.456L1072.92 147.16H1067.15C1067.19 141.968 1066.86 138.767 1066.14 137.559C1065.6 136.664 1064.64 136.105 1063.25 135.88C1060.16 135.388 1056.2 135.141 1051.37 135.141C1047.03 135.141 1043.45 135.275 1040.63 135.544V164.012C1040.63 167.191 1040.69 169.92 1040.83 172.203C1044.45 172.472 1048.75 172.606 1053.72 172.606C1058.55 172.606 1063.02 172.45 1067.11 172.136C1071.21 171.823 1073.73 171.375 1074.67 170.793C1074.98 170.615 1075.27 170.212 1075.54 169.585C1076.34 167.436 1077.19 163.364 1078.09 157.365H1083.6C1082.61 166.227 1082.12 173.524 1082.12 179.253L1081.25 180.126C1078.38 180.44 1074.31 180.596 1069.03 180.596L1058.22 180.395C1047.56 180.261 1040.22 180.194 1036.19 180.194C1035.12 180.194 1027.65 180.328 1013.77 180.597Z" fill="white"/>
<path d="M1185.32 168.444L1182.23 175.225C1176.63 178.179 1171.61 180.205 1167.16 181.301C1162.7 182.397 1157.14 182.946 1150.47 182.946C1140.98 182.946 1132.59 181.446 1125.29 178.447C1119.56 176.03 1114.71 172.83 1110.72 168.846C1106.74 164.862 1103.67 160.543 1101.53 155.888C1098.26 148.861 1096.62 141.229 1096.62 132.992C1096.62 118.892 1101.45 107.377 1111.09 98.4468C1120.74 89.5168 1134.36 85.0518 1151.95 85.0518C1157.99 85.0518 1163.42 85.4998 1168.23 86.3948C1173.04 87.2908 1178.63 88.8787 1184.98 91.1617L1185.32 92.0338C1184.6 94.1388 1184.04 96.7787 1183.64 99.9567C1182.97 105.016 1182.54 109.693 1182.36 113.99H1177.13C1177.04 109.067 1176.82 105.127 1176.46 102.173C1173.46 99.0397 1170.09 96.7007 1166.35 95.1567C1162.61 93.6127 1157.83 92.8398 1152.02 92.8398C1141.5 92.8398 1133.08 96.1637 1126.77 102.811C1120.46 109.458 1117.31 118.735 1117.31 130.642C1117.31 137.849 1118.37 144.138 1120.49 149.509C1122.62 154.88 1125.45 159.323 1128.99 162.837C1132.52 166.351 1136.08 168.913 1139.66 170.525C1144.54 172.673 1150.45 173.748 1157.39 173.748C1161.96 173.748 1166.27 173.234 1170.35 172.204C1174.42 171.175 1178.85 169.407 1183.64 166.9L1185.32 168.444Z" fill="white"/>
<path d="M1212.98 180.597V175.091C1218.35 174.913 1221.54 174.554 1222.55 174.017C1223.56 173.48 1224.24 172.585 1224.6 171.331C1225.09 169.407 1225.34 163.61 1225.34 153.941V113.723C1225.34 102.757 1225.27 96.6246 1225.14 95.3256H1215.53C1210.7 95.3256 1206.45 95.4826 1202.78 95.7956C1201.3 95.9296 1200.45 96.1096 1200.22 96.3326C1199.91 96.6016 1199.64 97.3846 1199.42 98.6826C1198.84 101.817 1198.5 105.33 1198.41 109.225H1192.84C1192.66 100.049 1192.55 94.8796 1192.5 93.7146C1192.37 91.7456 1192.15 89.6195 1191.83 87.3365L1192.44 86.6646C1194.54 86.8896 1196.78 87.0456 1199.15 87.1346C1203 87.2686 1210.41 87.3356 1221.38 87.3356H1248.5C1259.78 87.3356 1267.32 87.2686 1271.13 87.1346C1273.19 87.0456 1275.27 86.8896 1277.37 86.6646L1278.04 87.3365C1277.64 90.0675 1277.39 92.4626 1277.31 94.5206C1277.26 94.8796 1277.17 99.7805 1277.04 109.225H1271.46C1271.37 105.733 1271.08 102.4 1270.59 99.2206C1270.32 97.6096 1270.03 96.6476 1269.72 96.3336C1269.45 96.1106 1268.73 95.9536 1267.57 95.8636C1263.9 95.5056 1259.49 95.3266 1254.34 95.3266H1244.74C1244.61 96.8946 1244.54 103.026 1244.54 113.724V153.942C1244.54 163.611 1244.78 169.43 1245.28 171.399C1245.59 172.564 1246.26 173.425 1247.29 173.984C1248.32 174.544 1251.52 174.914 1256.89 175.092V180.598C1248.21 180.195 1240.89 179.994 1234.94 179.994C1228.58 179.992 1221.26 180.194 1212.98 180.597Z" fill="white"/>
<path d="M1329.67 86.6646V92.5726C1325.15 92.7066 1322.47 92.8746 1321.62 93.0766C1320.77 93.2776 1320.16 93.5246 1319.8 93.8156C1319.45 94.1076 1319.2 94.4766 1319.07 94.9236C1318.75 95.6856 1318.53 97.1396 1318.39 99.2876C1318.3 100.453 1318.24 102.645 1318.19 105.868C1318.01 116.88 1317.92 122.811 1317.92 123.661V150.719L1318.12 163.006C1318.12 167.617 1318.35 170.616 1318.8 172.003C1318.97 172.63 1319.28 173.111 1319.7 173.447C1320.13 173.783 1320.8 174.051 1321.72 174.253C1322.63 174.454 1325.29 174.6 1329.67 174.689V180.597C1322.38 180.328 1314.59 180.194 1306.31 180.194C1299.1 180.194 1292.68 180.328 1287.04 180.597V174.689C1291.69 174.511 1294.38 174.353 1295.1 174.219C1296.04 174.041 1296.67 173.794 1297.01 173.48C1297.35 173.167 1297.56 172.809 1297.65 172.406C1297.78 171.869 1297.96 169.766 1298.18 166.095C1298.54 160.724 1298.72 155.755 1298.72 151.189V123.124C1298.72 114.217 1298.68 108.487 1298.59 105.935C1298.36 100.251 1298.09 96.6926 1297.78 95.2596C1297.65 94.6786 1297.43 94.2306 1297.14 93.9166C1296.85 93.6036 1296.31 93.3456 1295.53 93.1446C1294.75 92.9436 1291.92 92.7535 1287.04 92.5735V86.6656C1292.68 86.9346 1299.15 87.0685 1306.44 87.0685C1314.63 87.0675 1322.38 86.9326 1329.67 86.6646Z" fill="white"/>
<path d="M1383.93 181.067C1380.12 171.667 1376.47 162.737 1372.98 154.277L1363.45 131.516C1355.97 113.656 1351.37 103.015 1349.65 99.5896C1347.93 96.1656 1346.62 94.2076 1345.72 93.7146C1344.38 92.9986 1341.6 92.5966 1337.4 92.5056V86.6646C1348.14 86.9786 1354.67 87.1346 1357 87.1346L1381.11 86.6646V92.5056C1377.35 92.5506 1374.62 92.7746 1372.92 93.1776C1371.93 93.4026 1371.25 93.7266 1370.87 94.1516C1370.49 94.5776 1370.3 95.1256 1370.3 95.7966C1370.3 97.1396 1371.77 101.393 1374.73 108.554C1376.43 112.673 1377.34 114.899 1377.45 115.235C1377.56 115.571 1377.7 115.985 1377.88 116.477L1394.87 157.903L1409.78 120.975C1410.13 120.125 1411.72 115.895 1414.54 108.285C1416.56 102.914 1417.79 99.3105 1418.24 97.4745C1418.32 96.9375 1418.37 96.4005 1418.37 95.8625C1418.37 95.1015 1418.25 94.5316 1418 94.1506C1417.75 93.7706 1417.43 93.4906 1417.03 93.3116C1416.71 93.1776 1415.91 93.0666 1414.61 92.9756C1411.7 92.7066 1409.24 92.5506 1407.22 92.5056V86.6646L1424.28 87.0676L1438.78 86.6646V92.5056C1434.44 92.9086 1431.91 93.3786 1431.19 93.9156C1429.98 94.8556 1427.46 99.9366 1423.61 109.157L1418.84 120.302L1409.78 141.922C1402.08 160.364 1396.86 173.412 1394.13 181.066H1383.93V181.067Z" fill="white"/>
<path d="M1449.26 180.597V176.972C1451.94 175.719 1454.13 174.42 1455.83 173.077C1456.1 171.197 1456.33 168.154 1456.51 163.946C1456.86 156.248 1457.04 150.652 1457.04 147.16V116.946C1457.04 115.782 1456.98 111.418 1456.84 103.853C1456.71 98.7948 1456.39 95.7067 1455.9 94.5867C1455.68 94.1397 1455.34 93.8038 1454.89 93.5798C1453.69 93.0428 1450.46 92.6397 1445.23 92.3707V86.6638L1460.8 86.9998C1463.89 87.0448 1466.85 87.0668 1469.67 87.0668C1475.8 87.0668 1482.62 86.9998 1490.14 86.8658L1503.77 86.5298C1505.39 86.5298 1508.65 86.6198 1513.58 86.7988C1514.02 86.7988 1514.76 86.9328 1515.79 87.2018L1516.26 88.0748L1514.99 97.7438C1514.94 98.4148 1514.72 101.638 1514.32 107.412H1509.08C1508.99 102.131 1508.79 98.8848 1508.47 97.6768C1508.29 97.0508 1508.03 96.6027 1507.67 96.3337C1507.09 95.9307 1505.29 95.5728 1502.3 95.2598C1497.86 94.7678 1493.52 94.5208 1489.27 94.5208C1485.29 94.5208 1481.21 94.6778 1477.05 94.9908C1476.42 100.05 1476.11 106.472 1476.11 114.261V128.025C1479.15 128.25 1482.33 128.361 1485.64 128.361C1486.67 128.361 1490.39 128.272 1496.79 128.092C1499.21 128.048 1500.63 127.891 1501.05 127.622C1501.48 127.353 1501.8 126.883 1502.03 126.212C1502.56 124.511 1502.88 121.67 1502.97 117.685H1508.41L1508.14 132.456L1508.41 147.16H1502.63C1502.68 141.968 1502.34 138.767 1501.62 137.559C1501.09 136.664 1500.12 136.105 1498.74 135.88C1495.65 135.388 1491.69 135.141 1486.85 135.141C1482.51 135.141 1478.93 135.275 1476.11 135.544V164.012C1476.11 167.191 1476.18 169.92 1476.31 172.203C1479.94 172.472 1484.23 172.606 1489.2 172.606C1494.04 172.606 1498.5 172.45 1502.6 172.136C1506.69 171.823 1509.21 171.375 1510.15 170.793C1510.46 170.615 1510.75 170.212 1511.02 169.585C1511.83 167.436 1512.68 163.364 1513.57 157.365H1519.08C1518.09 166.227 1517.6 173.524 1517.6 179.253L1516.73 180.126C1513.87 180.44 1509.79 180.596 1504.51 180.596L1493.7 180.395C1483.05 180.261 1475.71 180.194 1471.68 180.194C1470.61 180.194 1463.13 180.328 1449.26 180.597Z" fill="white"/>
<path d="M264.776 133.996C264.776 151.606 261.328 168.691 254.53 184.772C247.955 200.298 238.555 214.246 226.575 226.227C214.604 238.198 200.656 247.607 185.12 254.172C169.039 260.98 151.954 264.429 134.353 264.429C116.752 264.429 99.6679 260.981 83.5869 254.172C68.0509 247.607 54.103 238.198 42.132 226.227C30.151 214.246 20.7419 200.298 14.1769 184.772C7.37794 168.691 3.92993 151.606 3.92993 133.996C3.92993 116.395 7.37794 99.3108 14.1769 83.2288C20.7419 67.6928 30.151 53.7547 42.132 41.7737C54.103 29.7927 68.0509 20.3937 83.5869 13.8187C99.6679 7.01973 116.753 3.57178 134.353 3.57178C151.954 3.57178 169.039 7.01973 185.12 13.8187C200.656 20.3937 214.604 29.7927 226.575 41.7737C238.555 53.7547 247.955 67.6928 254.53 83.2288C261.328 99.3108 264.776 116.396 264.776 133.996Z" fill="white"/>
<path d="M257.732 81.8768C250.987 65.9308 241.333 51.6108 229.037 39.3148C216.741 27.0188 202.421 17.3648 186.475 10.6198C169.963 3.63575 152.426 0.0947266 134.352 0.0947266C116.277 0.0947266 98.741 3.63575 82.229 10.6198C66.283 17.3638 51.963 27.0188 39.667 39.3148C27.371 51.6108 17.717 65.9307 10.972 81.8757C3.98798 98.3877 0.447021 115.925 0.447021 133.999C0.447021 152.074 3.98798 169.61 10.972 186.122C17.717 202.068 27.371 216.387 39.667 228.683C51.963 240.979 66.283 250.633 82.229 257.378C98.741 264.362 116.277 267.903 134.352 267.903C152.427 267.903 169.963 264.362 186.475 257.378C202.421 250.634 216.741 240.979 229.037 228.683C241.333 216.387 250.987 202.067 257.732 186.122C264.716 169.61 268.257 152.073 268.257 133.999C268.257 115.926 264.716 98.3888 257.732 81.8768ZM222.97 222.617C199.299 246.288 167.828 259.324 134.352 259.324C100.877 259.324 69.405 246.288 45.735 222.617C22.065 198.946 9.02899 167.475 9.02899 134C9.02899 100.525 22.065 69.0528 45.735 45.3818C69.405 21.7108 100.877 8.67474 134.352 8.67474C167.827 8.67474 199.299 21.7108 222.97 45.3818C246.641 69.0528 259.676 100.524 259.676 134C259.677 167.475 246.641 198.947 222.97 222.617Z" fill="#092264"/>
<path d="M66.5911 135.163C67.1521 134.385 67.7261 133.614 68.3221 132.836C67.7191 133.615 67.1441 134.392 66.5911 135.163Z" fill="#092264"/>
<path d="M230.688 84.6609C225.124 84.6609 220.232 88.1579 219.048 92.9789L211.416 124.052C211.213 124.045 211.017 124.052 210.82 124.052C208.381 116.68 203.644 107.114 196.286 98.8519L196.23 98.9219L196.279 98.8519C186.903 88.1999 174.919 79.8609 162.179 73.5539C167.701 69.4119 173.202 64.7939 177.744 59.8259C182.678 54.4159 192.986 42.2289 184.745 35.9639C176.616 29.7899 159.454 43.0629 151.661 46.1959C145.095 37.6389 140.294 32.1729 134.667 32.1729C128.984 32.1729 124.064 37.8559 117.091 46.1959C110.896 42.0119 91.3649 31.0939 84.4689 36.0209C75.1069 42.7059 98.5549 66.6519 107.287 73.6459C93.2779 80.7449 81.5119 90.2199 72.8289 99.9679C72.5979 100.227 72.373 100.487 72.142 100.746C71.918 101.005 71.693 101.265 71.476 101.517C70.593 102.554 69.7379 103.591 68.9249 104.629C68.7219 104.888 68.519 105.148 68.322 105.407C67.726 106.185 67.1519 106.956 66.5909 107.734C66.4089 107.993 66.2269 108.246 66.0449 108.505C65.8629 108.764 65.6879 109.024 65.5129 109.276C65.3379 109.535 65.163 109.795 64.994 110.047C64.819 110.306 64.6499 110.559 64.4819 110.818C64.3209 111.07 64.152 111.33 63.991 111.582C63.83 111.841 63.669 112.094 63.515 112.346C62.884 113.362 62.296 114.371 61.749 115.373C61.335 116.123 60.9429 116.866 60.5789 117.609C60.4529 117.854 60.3339 118.1 60.2209 118.345C59.8499 119.109 59.506 119.873 59.184 120.623C59.1 120.833 59.0159 121.036 58.9319 121.247C58.7989 121.555 58.6799 121.864 58.5679 122.165C58.4979 122.333 58.435 122.494 58.379 122.662C58.204 123.132 58.0429 123.594 57.8879 124.057C57.6919 124.057 57.4959 124.05 57.2919 124.057L49.6609 92.9839C48.4769 88.1629 43.5849 84.6659 38.0209 84.6659C31.4549 84.6659 26.1079 89.4099 26.1079 95.2409V110.322C28.1549 140.211 32.24 151.15 40.551 171.143C52.205 199.168 82.2829 220.079 82.5839 220.289L82.6259 220.317C97.0339 229.028 115.97 235.188 130.041 235.776V235.832H130.868C131.162 235.832 131.464 235.825 131.765 235.825L131.8 235.818C132.669 235.825 133.524 235.811 134.351 235.769L134.358 235.671V235.769C135.185 235.811 136.04 235.825 136.909 235.818L136.944 235.825C137.245 235.825 137.547 235.832 137.841 235.832H138.668V235.776C152.74 235.187 171.675 229.027 186.083 220.317L186.125 220.289C186.426 220.079 216.504 199.167 228.158 171.143C236.469 151.15 240.555 140.21 242.601 110.322V95.2409C242.601 89.4049 237.254 84.6609 230.688 84.6609ZM130.04 227.356C124.427 227.223 117.089 225.695 112.114 224.181C99.079 220.222 87.075 213.403 77.418 204.468C65.799 193.718 56.2959 181.433 49.1829 167.95C39.7299 150.017 34.726 130.072 34.726 110.275V95.3479C34.726 93.9669 35.7209 92.7619 37.1439 92.4189C37.4389 92.3489 37.733 92.3139 38.02 92.3139C38.616 92.3139 39.1969 92.4539 39.7159 92.7339C40.4939 93.1539 41.0469 93.8339 41.2369 94.6119C45.8479 113.386 49.4569 132.195 58.4409 149.498C63.0869 158.447 66.8159 163.605 73.8229 171.18C76.9059 174.516 81.2089 179.547 89.1769 187.41C94.5519 192.715 99.584 186.793 95.968 182.694C84.152 169.204 69.9829 156.337 63.7449 139.056C63.0369 137.094 62.7289 133.646 64.8519 132.349C67.4239 130.779 70.2619 133.87 71.8459 135.559C80.1219 144.368 87.9569 154.312 97.2009 162.077C104.903 168.545 113.242 172.659 119.416 180.935C126.15 189.954 130.04 200.943 130.04 212.232V227.356ZM136.585 151.425H132.114C130.684 151.425 129.598 150.143 129.83 148.734L130.72 143.268C128.596 143.058 126.396 142.665 124.126 142.07C121.848 141.481 120.419 141.187 119.823 141.187C119.431 141.187 119.073 141.236 118.744 141.327C117.973 141.544 117.188 141.019 117.118 140.213C116.735 136.076 116.342 131.418 115.938 126.225C115.901 125.754 116.509 125.549 116.767 125.944C117.289 126.742 117.95 127.488 118.73 128.181C120.173 129.463 122.023 130.564 124.126 131.489C128.324 133.339 132.311 134.068 136.095 133.682C139.872 133.297 141.764 132.007 141.764 129.8V129.646C141.764 128.623 141.133 127.838 139.872 127.298C138.61 126.758 136.228 126.079 132.717 125.259C130.741 124.796 129.164 124.411 127.98 124.103C126.789 123.795 125.429 123.36 123.902 122.793C122.367 122.232 121.169 121.63 120.307 120.985C119.445 120.347 118.59 119.555 117.749 118.602C116.908 117.656 116.305 116.528 115.934 115.217C115.562 113.907 115.38 112.435 115.38 110.788V110.711C115.38 106.766 116.747 103.507 119.494 100.942C122.234 98.3769 125.976 96.8909 130.721 96.4779L129.831 91.0119C129.6 89.6029 130.686 88.3209 132.115 88.3209H136.607C138.029 88.3209 139.116 89.5959 138.891 91.0049L137.98 96.7859C138.919 96.8909 140.096 97.0519 141.505 97.2839C142.913 97.5149 144.084 97.6969 145.023 97.8239C145.962 97.9499 146.705 98.0129 147.245 98.0129C147.644 98.0129 148.002 97.9849 148.31 97.9289C149.06 97.8029 149.761 98.3349 149.817 99.0989C149.943 100.872 150.139 103.206 150.399 106.1C150.596 108.276 150.748 109.997 150.854 111.265C150.892 111.712 150.311 111.94 150.047 111.578C149.599 110.964 149.035 110.395 148.374 109.871C147.057 108.813 145.346 107.944 143.392 107.25C139.488 105.87 135.774 105.456 132.242 106.024C128.71 106.585 126.937 107.846 126.937 109.794V109.871C126.937 110.845 127.617 111.637 128.976 112.254C130.335 112.871 132.767 113.564 136.278 114.335C139.242 114.945 141.639 115.561 143.468 116.178C145.297 116.795 147.028 117.629 148.654 118.68C150.287 119.731 151.471 121.063 152.214 122.682C152.957 124.301 153.328 126.263 153.328 128.569V128.723C153.328 132.83 151.954 136.165 149.215 138.73C146.468 141.295 142.725 142.809 137.981 143.271L138.878 148.73C139.107 150.143 138.014 151.425 136.585 151.425ZM233.981 110.275C233.981 130.072 228.977 150.017 219.523 167.95C212.41 181.433 202.907 193.718 191.288 204.468C181.631 213.403 169.627 220.222 156.592 224.181C151.616 225.695 144.279 227.222 138.666 227.356V212.233C138.666 200.943 142.556 189.955 149.29 180.936C155.464 172.66 163.803 168.546 171.505 162.078C180.748 154.313 188.583 144.369 196.859 135.56C198.443 133.871 201.281 130.781 203.853 132.35C205.977 133.646 205.668 137.094 204.96 139.057C198.723 156.338 184.553 169.205 172.738 182.695C169.122 186.795 174.154 192.716 179.529 187.411C187.497 179.548 191.8 174.516 194.883 171.181C201.891 163.605 205.619 158.448 210.265 149.499C219.249 132.197 222.858 113.387 227.47 94.6129C227.659 93.8349 228.213 93.1549 228.991 92.7349C229.509 92.4549 230.091 92.3149 230.687 92.3149C230.974 92.3149 231.269 92.3499 231.563 92.4199C232.985 92.7629 233.981 93.9689 233.981 95.3489V110.275Z" fill="#092264"/>
</svg>
