<svg width="32" height="32" viewBox="0 0 32 32" fill="none" xmlns="http://www.w3.org/2000/svg">
<g clip-path="url(#clip0_38_205)">
<path fill-rule="evenodd" clip-rule="evenodd" d="M16 0C6.98669 0 0 6.60225 0 15.52C0 20.1846 1.91169 24.2153 5.02488 26.9994C5.28625 27.2333 5.444 27.561 5.45469 27.9117L5.54181 30.7577C5.56962 31.6656 6.50738 32.2563 7.33813 31.8896L10.5139 30.4876C10.783 30.3689 11.0849 30.3468 11.3684 30.4249C12.8278 30.8262 14.381 31.0399 15.9999 31.0399C25.0132 31.0399 31.9999 24.4377 31.9999 15.5199C31.9999 6.60219 25.0133 0 16 0Z" fill="url(#paint0_radial_38_205)"/>
<path fill-rule="evenodd" clip-rule="evenodd" d="M6.39209 20.0588L11.0921 12.6022C11.8397 11.4159 13.4406 11.1206 14.5624 11.9619L18.3005 14.7655C18.4674 14.8907 18.6706 14.9581 18.8793 14.9575C19.088 14.9569 19.2908 14.8884 19.457 14.7622L24.5055 10.9307C25.1794 10.4193 26.059 11.2258 25.608 11.9414L20.908 19.3981C20.1603 20.5843 18.5594 20.8797 17.4377 20.0383L13.6995 17.2346C13.5325 17.1094 13.3294 17.0421 13.1207 17.0427C12.9121 17.0433 12.7093 17.1119 12.5431 17.238L7.49452 21.0695C6.82065 21.5808 5.94102 20.7744 6.39209 20.0588Z" fill="white"/>
</g>
<defs>
<radialGradient id="paint0_radial_38_205" cx="0" cy="0" r="1" gradientUnits="userSpaceOnUse" gradientTransform="translate(6.1625 31.6115) scale(34.85 34.85)">
<stop stop-color="#0099FF"/>
<stop offset="0.61" stop-color="#A033FF"/>
<stop offset="0.935" stop-color="#FF5280"/>
<stop offset="1" stop-color="#FF7061"/>
</radialGradient>
<clipPath id="clip0_38_205">
<rect width="32" height="32" fill="white"/>
</clipPath>
</defs>
</svg>
