<svg width="101" height="100" viewBox="0 0 101 100" fill="none" xmlns="http://www.w3.org/2000/svg">
<path d="M15.726 80.2582C20.2494 80.2582 23.917 76.5908 23.917 72.0672V68.2564C23.917 63.7322 20.2494 60.0654 15.726 60.0654C11.2025 60.0654 7.53516 63.7322 7.53516 68.2564V72.0672C7.53516 76.5906 11.2025 80.2582 15.726 80.2582ZM50.5 20.1928C55.0234 20.1928 58.691 16.5252 58.691 12.0018V8.19102C58.691 3.66738 55.0234 0 50.5 0C45.9766 0 42.309 3.66738 42.309 8.19102V12.0018C42.309 16.526 45.9766 20.1928 50.5 20.1928ZM25.3711 84.05L23.6836 83.6379C21.4189 85.1998 18.6785 86.1176 15.726 86.1176C12.7734 86.1176 10.0322 85.1996 7.76855 83.6381L6.08105 84.05C2.80547 84.8488 0.5 87.783 0.5 91.1553V100H30.952V91.1553C30.952 87.783 28.6463 84.8486 25.3711 84.0498V84.05ZM85.274 60.0647C80.7506 60.0647 77.083 63.7322 77.083 68.2564V72.0664C77.083 76.5908 80.7506 80.2582 85.274 80.2582C89.7975 80.2582 93.4648 76.5908 93.4648 72.0664V68.2564C93.4648 63.7322 89.7975 60.0647 85.274 60.0647ZM60.1451 23.9844L58.4576 23.5732C56.193 25.135 53.4525 26.0529 50.5 26.0529C47.5475 26.0529 44.8062 25.135 42.5426 23.5732L40.8551 23.9846C37.5789 24.7834 35.274 27.7184 35.274 31.0906V39.9353H65.726V31.0906C65.726 27.7184 63.4203 24.7832 60.1451 23.9844ZM94.9191 84.05L93.2316 83.6379C90.968 85.1998 88.2266 86.1176 85.274 86.1176C82.3215 86.1176 79.5803 85.1996 77.3166 83.6381L75.6291 84.05C72.3537 84.8488 70.048 87.783 70.048 91.1553V100H100.5V91.1553C100.5 87.783 98.1943 84.8486 94.9191 84.0498V84.05ZM75.8809 34.3385C80.9102 39.8713 83.9602 46.8369 84.6416 54.2213C84.8523 54.2113 85.0631 54.206 85.274 54.2053C87.0969 54.2042 88.9024 54.5601 90.5885 55.2529C90.0996 46.025 86.4619 37.2682 80.2174 30.3971C76.25 26.0322 71.4289 22.6379 66.1066 20.3918C69.2766 22.6662 71.332 26.284 71.5617 30.3346C73.1127 31.5438 74.5576 32.8833 75.8807 34.3385H75.8809ZM20.692 30.4984C14.5037 37.3527 10.898 46.0732 10.4121 55.2521C12.0981 54.5599 13.9034 54.2042 15.726 54.2053C15.9381 54.2053 16.1486 54.2121 16.3584 54.2213C17.0361 46.8773 20.0596 39.943 25.0406 34.4244C26.385 32.936 27.8564 31.5676 29.4383 30.3346C29.5466 28.3769 30.092 26.4683 31.0344 24.749C31.9768 23.0296 33.2922 21.5431 34.8842 20.3986C29.5229 22.6631 24.6707 26.0902 20.692 30.4984ZM36.5885 88.7406C36.7362 89.537 36.8108 90.3453 36.8113 91.1553V95.1447C41.1631 96.7225 45.7805 97.5387 50.5 97.5387C55.2219 97.5387 59.8385 96.7232 64.1887 95.1455V91.1553C64.1887 90.3336 64.2656 89.5272 64.4107 88.7428C60.0643 90.6754 55.3469 91.6793 50.5 91.6793C45.6553 91.6793 40.9365 90.6738 36.5885 88.7406Z" fill="#1FA5DA"/>
</svg>
